SplineFontDB: 3.0
FontName: NewCode-BoldItalic
FullName: New Code Bold Italic
FamilyName: New Code Bold Italic
Weight: Bold
Copyright: (c) 2015 Adobe & Nathan Rutzky & Guillaume Vivies
Version: 1.001
ItalicAngle: -9
UnderlinePosition: -100
UnderlineWidth: 50
Ascent: 750
Descent: 250
InvalidEm: 0
sfntRevision: 0x00010000
LayerCount: 2
Layer: 0 0 "Arri+AOgA-re" 1
Layer: 1 0 "Avant" 0
XUID: [1021 924 1960966456 2062]
StyleMap: 0x0040
FSType: 8
OS2Version: 3
OS2_WeightWidthSlopeOnly: 0
OS2_UseTypoMetrics: 0
CreationTime: 1432776649
ModificationTime: 1555184850
PfmFamily: 81
TTFWeight: 700
TTFWidth: 5
LineGap: 0
VLineGap: 0
Panose: 0 0 8 9 0 0 0 0 0 0
OS2TypoAscent: 750
OS2TypoAOffset: 0
OS2TypoDescent: -250
OS2TypoDOffset: 0
OS2TypoLinegap: 0
OS2WinAscent: 984
OS2WinAOffset: 0
OS2WinDescent: 273
OS2WinDOffset: 0
HheadAscent: 984
HheadAOffset: 0
HheadDescent: -273
HheadDOffset: 0
OS2SubXSize: 650
OS2SubYSize: 600
OS2SubXOff: -12
OS2SubYOff: 75
OS2SupXSize: 650
OS2SupYSize: 600
OS2SupXOff: 55
OS2SupYOff: 350
OS2StrikeYSize: 50
OS2StrikeYPos: 306
OS2CapHeight: 660
OS2XHeight: 510
OS2Vendor: 'GVIV'
OS2CodePages: 20000193.00000000
OS2UnicodeRanges: 00000007.00000000.00000000.00000000
Lookup: 1 0 0 "'aalt' Activer toutes les variantes dans Latin lookup 0" { "sous-table 'aalt' Activer toutes les variantes dans Latin lookup 0"  } ['aalt' ('DFLT' <'dflt' > 'latn' <'CAT ' 'dflt' > ) ]
Lookup: 3 0 0 "'aalt' Activer toutes les variantes dans Latin lookup 1" { "sous-table 'aalt' Activer toutes les variantes dans Latin lookup 1"  } ['aalt' ('DFLT' <'dflt' > 'latn' <'CAT ' 'dflt' > ) ]
Lookup: 6 0 0 "'ccmp' Composition et d+AOkA-composition de glyphe (CJC) dans Latin lookup 2" { "'ccmp' Composition et d+AOkA-composition de glyphe (CJC) dans Latin lookup 2 contextuel 0"  "'ccmp' Composition et d+AOkA-composition de glyphe (CJC) dans Latin lookup 2 contextuel 1"  } ['ccmp' ('latn' <'dflt' > ) ]

StartChar: .notdef
Encoding: 65536 -1 0
Width: 600
Flags: HMW
HStem: 0 91<218 382 218 565> 568 92<224 376 224 224>
VStem: 35 99<155 155 155 526> 466 99<155 526 526 526>
LayerCount: 2
Fore
SplineSet
35 0 m 1
 35 660 l 1
 565 660 l 1
 565 0 l 1
 35 0 l 1
298 414 m 1
 302 414 l 1
 344 510 l 1
 376 568 l 1
 224 568 l 1
 255 510 l 1
 298 414 l 1
134 155 m 1
 228 340 l 1
 134 526 l 1
 134 155 l 1
466 155 m 1
 466 526 l 1
 372 340 l 1
 466 155 l 1
218 91 m 1
 382 91 l 1
 343 168 l 1
 302 266 l 1
 298 266 l 1
 257 168 l 1
 218 91 l 1
EndSplineSet
Validated: 1
EndChar

StartChar: A
Encoding: 65 65 2
Width: 600
GlyphClass: 2
Flags: HMW
HStem: 0 21G<9 9 9 159 435 435 435 591> 158 115<272 409 272 421 224 409> 548 112<382 386 382 382>
VStem: 9 582<0 0>
LayerCount: 2
Fore
SplineSet
9 0 m 1
 317 660 l 1
 493 660 l 1
 591 0 l 1
 435 0 l 1
 421 158 l 1
 224 158 l 1
 159 0 l 1
 9 0 l 1
272 273 m 1
 409 273 l 1
 404 335 l 2
 399 401 392 479 386 548 c 1
 382 548 l 1
 355 478 324 401 297 335 c 2
 272 273 l 1
EndSplineSet
Validated: 1
Substitution2: "sous-table Substitution simple lookups16" ordfeminine
Substitution2: "sous-table 'aalt' Activer toutes les variantes dans Latin lookup 0" ordfeminine
EndChar

StartChar: Aacute
Encoding: 193 193 3
Width: 600
GlyphClass: 2
Flags: HMW
HStem: 0 21G<9 9 9 159 435 435 435 591> 158 115<272 409 272 421 224 409> 546 113<381 385 381 381> 709 121<337 593 437 454>
VStem: 9 584
LayerCount: 2
Fore
SplineSet
337 709 m 1
 437 830 l 1
 593 830 l 1
 454 709 l 1
 337 709 l 1
9 0 m 1
 316 660 l 1
 492 660 l 1
 591 0 l 1
 435 0 l 1
 421 158 l 1
 224 158 l 1
 159 0 l 1
 9 0 l 1
272 273 m 1
 409 273 l 1
 404 334 l 2
 398 400 392 478 385 546 c 1
 381 546 l 1
 355 477 324 400 297 334 c 2
 272 273 l 1
EndSplineSet
Validated: 1
EndChar

StartChar: Abreve
Encoding: 258 258 4
Width: 600
GlyphClass: 2
Flags: HMW
HStem: 0 21G<9 9 9 159 435 435 435 591> 158 115<272 409 272 421 224 409> 546 113<381 385 381 381> 709 74<407 441 407 455.5>
VStem: 9 582<0 0>
LayerCount: 2
Fore
SplineSet
412 709 m 0
 328 709 294 756 294 822 c 0
 294 825 294 827 294 830 c 1
 375 830 l 1
 377 804 390 783 424 783 c 0
 458 783 477 804 487 830 c 1
 568 830 l 1
 549 759 499 709 412 709 c 0
9 0 m 1
 316 660 l 1
 492 660 l 1
 591 0 l 1
 435 0 l 1
 421 158 l 1
 224 158 l 1
 159 0 l 1
 9 0 l 1
272 273 m 1
 409 273 l 1
 404 334 l 2
 398 400 392 478 385 546 c 1
 381 546 l 1
 355 477 324 400 297 334 c 2
 272 273 l 1
EndSplineSet
Validated: 1
EndChar

StartChar: uni01CD
Encoding: 461 461 5
Width: 600
GlyphClass: 2
Flags: HMW
HStem: 0 21G<9 9 9 159 435 435 435 591> 158 115<272 409 272 421 224 409> 546 113<381 385 381 381> 709 121<340 340 340 376 263 484>
VStem: 9 590
LayerCount: 2
Fore
SplineSet
340 709 m 1
 263 830 l 1
 376 830 l 1
 420 768 l 1
 424 768 l 1
 486 830 l 1
 599 830 l 1
 484 709 l 1
 340 709 l 1
9 0 m 1
 316 660 l 1
 492 660 l 1
 591 0 l 1
 435 0 l 1
 421 158 l 1
 224 158 l 1
 159 0 l 1
 9 0 l 1
272 273 m 1
 409 273 l 1
 404 334 l 2
 398 400 392 478 385 546 c 1
 381 546 l 1
 355 477 324 400 297 334 c 2
 272 273 l 1
EndSplineSet
Validated: 1
EndChar

StartChar: Acircumflex
Encoding: 194 194 6
Width: 600
GlyphClass: 2
Flags: HMW
HStem: 0 21G<9 9 9 159 435 435 435 591> 158 115<272 409 272 421 224 409> 546 113<381 385 381 381> 709 121<244 503 244 503 467 467 467 503 359 580>
VStem: 9 582<0 0>
LayerCount: 2
Fore
SplineSet
244 709 m 1
 359 830 l 1
 503 830 l 1
 580 709 l 1
 467 709 l 1
 424 771 l 1
 420 771 l 1
 357 709 l 1
 244 709 l 1
9 0 m 1
 316 660 l 1
 492 660 l 1
 591 0 l 1
 435 0 l 1
 421 158 l 1
 224 158 l 1
 159 0 l 1
 9 0 l 1
272 273 m 1
 409 273 l 1
 404 334 l 2
 398 400 392 478 385 546 c 1
 381 546 l 1
 355 477 324 400 297 334 c 2
 272 273 l 1
EndSplineSet
Validated: 1
EndChar

StartChar: Adieresis
Encoding: 196 196 7
Width: 600
GlyphClass: 2
Flags: HMW
HStem: 0 21G<9 9 9 159 435 435 435 591> 158 115<272 409 272 421 224 409> 547 112<382 386 382 382> 708 140<312.5 336 510.5 534>
VStem: 253 142<765.5 790.5> 451 142<765.5 790.5>
LayerCount: 2
Fore
SplineSet
313 708 m 0
 276 708 253 733 253 768 c 0
 253 813 290 848 335 848 c 0
 372 848 395 823 395 788 c 0
 395 743 359 708 313 708 c 0
511 708 m 0
 474 708 451 733 451 768 c 0
 451 813 488 848 533 848 c 0
 570 848 593 823 593 788 c 0
 593 743 557 708 511 708 c 0
9 0 m 1
 316 660 l 1
 492 660 l 1
 591 0 l 1
 435 0 l 1
 421 158 l 1
 224 158 l 1
 159 0 l 1
 9 0 l 1
272 273 m 1
 409 273 l 1
 404 334 l 2
 398 400 392 478 386 547 c 1
 382 547 l 1
 355 477 324 400 297 334 c 2
 272 273 l 1
EndSplineSet
Validated: 1
EndChar

StartChar: Agrave
Encoding: 192 192 8
Width: 600
GlyphClass: 2
Flags: HMW
HStem: 0 21G<9 9 9 159 435 435 435 591> 158 115<272 409 272 421 224 409> 546 113<381 385 381 381> 709 121<370 370 370 425 269 487>
VStem: 9 582<0 0>
LayerCount: 2
Fore
SplineSet
370 709 m 1
 269 830 l 1
 425 830 l 1
 487 709 l 1
 370 709 l 1
9 0 m 1
 316 660 l 1
 492 660 l 1
 591 0 l 1
 435 0 l 1
 421 158 l 1
 224 158 l 1
 159 0 l 1
 9 0 l 1
272 273 m 1
 409 273 l 1
 404 334 l 2
 398 400 392 478 385 546 c 1
 381 546 l 1
 355 477 324 400 297 334 c 2
 272 273 l 1
EndSplineSet
Validated: 1
EndChar

StartChar: Amacron
Encoding: 256 256 9
Width: 600
GlyphClass: 2
Flags: HMW
HStem: 0 21G<9 9 9 159 435 435 435 591> 158 115<272 409 272 421 224 409> 547 112<382 386 382 382> 728 93<274 571 289 556>
VStem: 9 582<0 0>
LayerCount: 2
Fore
SplineSet
274 728 m 1
 289 821 l 1
 571 821 l 1
 556 728 l 1
 274 728 l 1
9 0 m 1
 316 660 l 1
 492 660 l 1
 591 0 l 1
 435 0 l 1
 421 158 l 1
 224 158 l 1
 159 0 l 1
 9 0 l 1
272 273 m 1
 409 273 l 1
 404 335 l 2
 399 401 392 478 386 547 c 1
 382 547 l 1
 355 477 324 401 297 335 c 2
 272 273 l 1
EndSplineSet
Validated: 1
EndChar

StartChar: Aogonek
Encoding: 260 260 10
Width: 600
GlyphClass: 2
Flags: HMW
HStem: -225 95<443 526.5> 0 21G<9 159 9 9 435 475 435 435 591 591> 158 115<272 409 272 421 224 409> 548 112<382 386 382 382>
VStem: 372 114<-169.5 -77.5>
LayerCount: 2
Fore
SplineSet
472 -225 m 0
 414 -225 372 -196 372 -143 c 0
 372 -76 435 -21 475 0 c 1
 435 0 l 1
 421 158 l 1
 224 158 l 1
 159 0 l 1
 9 0 l 1
 317 660 l 1
 493 660 l 1
 591 0 l 1
 530 -5 486 -57 486 -98 c 0
 486 -119 501 -130 519 -130 c 0
 534 -130 550 -123 561 -116 c 1
 583 -190 l 1
 554 -210 507 -225 472 -225 c 0
272 273 m 1
 409 273 l 1
 404 335 l 2
 399 401 392 479 386 548 c 1
 382 548 l 1
 355 478 324 401 297 335 c 2
 272 273 l 1
EndSplineSet
Validated: 1
EndChar

StartChar: Aring
Encoding: 197 197 11
Width: 600
GlyphClass: 2
Flags: HMW
HStem: 0 21G<9 9 9 159 435 435 435 591> 158 115<272 409 272 421 224 409> 547 112<382 386 382 382> 704 55<410 432.5 410 449> 847 55<421 444>
VStem: 313 72<784.5 811 784.5 822> 468 74<794.5 821>
LayerCount: 2
Fore
SplineSet
412 704 m 0
 351 704 313 737 313 789 c 0
 313 855 369 902 443 902 c 0
 503 902 542 868 542 817 c 0
 542 749 486 704 412 704 c 0
420 759 m 0
 445 759 468 779 468 810 c 0
 468 832 454 847 434 847 c 0
 408 847 385 826 385 796 c 0
 385 773 400 759 420 759 c 0
9 0 m 1
 316 660 l 1
 492 660 l 1
 591 0 l 1
 435 0 l 1
 421 158 l 1
 224 158 l 1
 159 0 l 1
 9 0 l 1
272 273 m 1
 409 273 l 1
 404 334 l 2
 398 400 392 478 386 547 c 1
 382 547 l 1
 355 477 324 400 297 334 c 2
 272 273 l 1
EndSplineSet
Validated: 1
EndChar

StartChar: Atilde
Encoding: 195 195 12
Width: 600
GlyphClass: 2
Flags: HMW
HStem: 0 21G<9 9 9 159 435 435 435 591> 158 115<272 409 272 421 224 409> 547 112<382 386 382 382> 711 137<243 398 243 398 345 502>
VStem: 9 595
LayerCount: 2
Fore
SplineSet
243 711 m 1
 267 802 319 848 371 848 c 0
 425 848 453 802 484 802 c 0
 501 802 517 814 529 848 c 1
 604 848 l 1
 580 756 528 711 476 711 c 0
 422 711 394 757 363 757 c 0
 346 757 330 744 318 711 c 1
 243 711 l 1
9 0 m 1
 316 660 l 1
 492 660 l 1
 591 0 l 1
 435 0 l 1
 421 158 l 1
 224 158 l 1
 159 0 l 1
 9 0 l 1
272 273 m 1
 409 273 l 1
 404 335 l 2
 399 401 392 478 386 547 c 1
 382 547 l 1
 355 477 324 401 297 335 c 2
 272 273 l 1
EndSplineSet
Validated: 1
EndChar

StartChar: AE
Encoding: 198 198 13
Width: 600
GlyphClass: 2
Flags: HMW
HStem: 0 124<461 595> 152 114<269 335 217 353> 279 124<505 603 485 623> 536 124<526 671 526 526> 549 111<395 398 395 395>
VStem: -3 694<0 660>
LayerCount: 2
Fore
SplineSet
-3 0 m 1xb4
 311 660 l 1
 691 660 l 1
 671 536 l 1
 526 536 l 1
 505 403 l 1
 623 403 l 1
 603 279 l 1
 485 279 l 1
 461 124 l 1
 615 124 l 1
 595 0 l 1
 311 0 l 1xb4
 335 152 l 1
 217 152 l 1xf4
 148 0 l 1
 -3 0 l 1xb4
269 266 m 1xec
 353 266 l 1
 398 549 l 1
 395 549 l 1
 367 483 338 419 312 361 c 2
 269 266 l 1xec
EndSplineSet
Validated: 1
EndChar

StartChar: B
Encoding: 66 66 14
Width: 600
GlyphClass: 2
Flags: HMW
HStem: 0 114<249 307> 289 104<293 341 277 343> 546 114<317 368 317 317>
VStem: 447 143<186 244> 460 148<486 508.5>
LayerCount: 2
Fore
SplineSet
84 0 m 1xf0
 189 660 l 1
 393 660 l 2
 516 660 608 628 608 522 c 0xe8
 608 450 562 377 471 353 c 1
 470 349 l 1
 549 334 590 292 590 220 c 0
 590 70 463 0 307 0 c 2
 84 0 l 1xf0
293 393 m 1
 343 393 l 2
 426 393 460 433 460 488 c 0
 460 529 430 546 368 546 c 2
 317 546 l 1
 293 393 l 1
249 114 m 1
 313 114 l 2
 405 114 447 152 447 220 c 0xf0
 447 268 413 289 341 289 c 2
 277 289 l 1
 249 114 l 1
EndSplineSet
Validated: 1
EndChar

StartChar: uni0243
Encoding: 579 579 15
Width: 600
GlyphClass: 2
Flags: HMW
HStem: 0 105<248 309> 177 71<37 123 270 365> 314 87<295 347 281 348> 554 106<319 373 319 319>
VStem: 455 140<192 260.5> 465 144<491 516.5>
LayerCount: 2
Fore
SplineSet
84 0 m 1xf8
 112 177 l 1
 37 177 l 1
 47 242 l 1
 123 248 l 1
 189 660 l 1
 395 660 l 2
 519 660 609 626 609 525 c 0xf4
 609 457 567 393 477 370 c 1
 476 366 l 1
 554 350 595 306 595 231 c 0
 595 74 466 0 309 0 c 2
 84 0 l 1xf8
295 401 m 1
 348 401 l 2
 428 401 465 437 465 496 c 0
 465 537 434 554 373 554 c 2
 319 554 l 1
 295 401 l 1
248 105 m 1
 314 105 l 2
 404 105 455 152 455 232 c 0xf8
 455 289 418 314 347 314 c 2
 281 314 l 1
 270 248 l 1
 376 248 l 1
 365 177 l 1
 259 177 l 1
 248 105 l 1
EndSplineSet
Validated: 1
EndChar

StartChar: C
Encoding: 67 67 16
Width: 600
GlyphClass: 2
Flags: HMW
HStem: -12 127<348 402> 545 127<398.5 475.5>
VStem: 101 153<232.5 364.5 232.5 391.5>
LayerCount: 2
Fore
SplineSet
361 -12 m 0
 213 -12 101 85 101 266 c 0
 101 517 275 672 472 672 c 0
 555 672 615 632 652 588 c 1
 557 497 l 1
 530 526 499 545 452 545 c 0
 345 545 254 443 254 286 c 0
 254 179 306 115 390 115 c 0
 437 115 478 138 516 174 c 1
 582 85 l 1
 518 21 443 -12 361 -12 c 0
EndSplineSet
Validated: 1
EndChar

StartChar: Cacute
Encoding: 262 262 17
Width: 600
GlyphClass: 2
Flags: HMW
HStem: -12 127<348 402> 544 127<398.5 475.5> 709 121<391 647 491 508>
VStem: 100 154<231.5 363 231.5 390>
LayerCount: 2
Fore
SplineSet
391 709 m 1
 491 830 l 1
 647 830 l 1
 508 709 l 1
 391 709 l 1
361 -12 m 0
 213 -12 100 85 100 265 c 0
 100 515 275 671 472 671 c 0
 555 671 615 630 652 587 c 1
 557 496 l 1
 530 524 499 544 452 544 c 0
 345 544 254 441 254 285 c 0
 254 178 306 115 390 115 c 0
 437 115 478 138 516 174 c 1
 582 85 l 1
 518 21 443 -12 361 -12 c 0
EndSplineSet
Validated: 1
EndChar

StartChar: Ccaron
Encoding: 268 268 18
Width: 600
GlyphClass: 2
Flags: HMW
HStem: -12 127<348 402> 544 127<398.5 475.5> 709 121<394 394 394 429 317 537>
VStem: 100 154<231.5 363 231.5 390>
LayerCount: 2
Fore
SplineSet
394 709 m 1
 317 830 l 1
 429 830 l 1
 474 768 l 1
 478 768 l 1
 540 830 l 1
 652 830 l 1
 537 709 l 1
 394 709 l 1
361 -12 m 0
 213 -12 100 85 100 265 c 0
 100 515 275 671 472 671 c 0
 555 671 615 630 652 587 c 1
 557 496 l 1
 530 524 499 544 452 544 c 0
 345 544 254 441 254 285 c 0
 254 178 306 115 390 115 c 0
 437 115 478 138 516 174 c 1
 582 85 l 1
 518 21 443 -12 361 -12 c 0
EndSplineSet
Validated: 1
EndChar

StartChar: Ccedilla
Encoding: 199 199 19
Width: 600
GlyphClass: 2
Flags: HMW
HStem: -223 59<217 219> -7 21G<302 302> 545 127<398.5 475.5>
VStem: 101 153<232.5 364.5 232.5 391.5> 307 107<-130.5 -108>
LayerCount: 2
Fore
SplineSet
219 -223 m 1
 217 -164 l 1
 269 -159 307 -145 307 -116 c 0
 307 -100 294 -87 256 -77 c 1
 302 -7 l 1
 184 15 101 110 101 266 c 0
 101 517 275 672 472 672 c 0
 555 672 615 632 652 588 c 1
 557 497 l 1
 530 526 499 545 452 545 c 0
 345 545 254 443 254 286 c 0
 254 179 306 115 390 115 c 0
 437 115 478 138 516 174 c 1
 582 85 l 1
 524 27 457 -6 385 -12 c 1
 366 -44 l 1
 394 -54 414 -73 414 -107 c 0
 414 -185 321 -218 219 -223 c 1
EndSplineSet
Validated: 1
EndChar

StartChar: Ccircumflex
Encoding: 264 264 20
Width: 600
GlyphClass: 2
Flags: HMW
HStem: -12 127<348 402> 544 127<398.5 475.5> 709 121<298 556 298 556 521 521 521 556 413 633>
VStem: 100 154<231.5 363 231.5 390>
LayerCount: 2
Fore
SplineSet
298 709 m 1
 413 830 l 1
 556 830 l 1
 633 709 l 1
 521 709 l 1
 478 771 l 1
 474 771 l 1
 410 709 l 1
 298 709 l 1
361 -12 m 0
 213 -12 100 85 100 265 c 0
 100 515 275 671 472 671 c 0
 555 671 615 630 652 587 c 1
 557 496 l 1
 530 524 499 544 452 544 c 0
 345 544 254 441 254 285 c 0
 254 178 306 115 390 115 c 0
 437 115 478 138 516 174 c 1
 582 85 l 1
 518 21 443 -12 361 -12 c 0
EndSplineSet
Validated: 1
EndChar

StartChar: Cdotaccent
Encoding: 266 266 21
Width: 600
GlyphClass: 2
Flags: HMW
HStem: -12 127<348 402> 544 127<398.5 475.5> 709 154<463.5 493>
VStem: 101 153<231.5 363.5 231.5 391.5> 391 174<771 801>
LayerCount: 2
Fore
SplineSet
466 709 m 0
 421 709 391 737 391 776 c 0
 391 826 436 863 491 863 c 0
 535 863 565 835 565 796 c 0
 565 746 520 709 466 709 c 0
361 -12 m 0
 213 -12 101 85 101 266 c 0
 101 517 275 671 472 671 c 0
 555 671 615 631 652 587 c 1
 557 496 l 1
 530 525 499 544 452 544 c 0
 345 544 254 442 254 285 c 0
 254 178 306 115 390 115 c 0
 437 115 478 138 516 174 c 1
 582 85 l 1
 518 21 443 -12 361 -12 c 0
EndSplineSet
Validated: 1
EndChar

StartChar: D
Encoding: 68 68 22
Width: 600
GlyphClass: 2
Flags: HMW
HStem: 0 119<232 250> 541 119<299 320 299 299>
VStem: 463 153<291 444>
LayerCount: 2
Fore
SplineSet
65 0 m 1
 170 660 l 1
 347 660 l 2
 511 660 616 577 616 399 c 0
 616 135 460 0 250 0 c 2
 65 0 l 1
232 119 m 1
 253 119 l 2
 378 119 463 196 463 386 c 0
 463 502 406 541 320 541 c 2
 299 541 l 1
 232 119 l 1
EndSplineSet
Validated: 1
EndChar

StartChar: Eth
Encoding: 208 208 23
Width: 600
GlyphClass: 2
Flags: HMW
HStem: 0 119<238 257> 305 69 305 72<50 131 279 374> 541 119<305 326 305 305>
VStem: 469 153<290.5 443.5>
LayerCount: 2
Fore
SplineSet
71 0 m 1xb8
 119 305 l 1
 50 305 l 1
 61 371 l 1
 131 377 l 1xd8
 176 660 l 1
 354 660 l 2
 518 660 622 577 622 399 c 0
 622 135 466 0 257 0 c 2
 71 0 l 1xb8
238 119 m 1
 259 119 l 2
 382 119 469 196 469 385 c 0
 469 502 412 541 326 541 c 2
 305 541 l 1
 279 377 l 1
 386 377 l 1
 374 305 l 1
 267 305 l 1xb8
 238 119 l 1
EndSplineSet
Validated: 1
EndChar

StartChar: Dcaron
Encoding: 270 270 24
Width: 600
GlyphClass: 2
Flags: HMW
HStem: 0 119<232 250> 540 119<299 320 299 299> 709 121<337 337 337 372 260 480>
VStem: 463 152<290.5 443>
LayerCount: 2
Fore
SplineSet
337 709 m 1
 260 830 l 1
 372 830 l 1
 417 768 l 1
 421 768 l 1
 483 830 l 1
 595 830 l 1
 480 709 l 1
 337 709 l 1
65 0 m 1
 169 660 l 1
 346 660 l 2
 511 660 615 576 615 398 c 0
 615 134 460 0 250 0 c 2
 65 0 l 1
232 119 m 1
 253 119 l 2
 377 119 463 196 463 385 c 0
 463 501 406 540 320 540 c 2
 299 540 l 1
 232 119 l 1
EndSplineSet
Validated: 1
EndChar

StartChar: Dcroat
Encoding: 272 272 25
Width: 600
GlyphClass: 2
Flags: HMW
HStem: 0 119<238 257> 305 69 305 72<50 131 279 374> 541 119<305 326 305 305>
VStem: 469 153<290.5 443.5>
LayerCount: 2
Fore
SplineSet
71 0 m 1xb8
 119 305 l 1
 50 305 l 1
 61 371 l 1
 131 377 l 1xd8
 176 660 l 1
 354 660 l 2
 518 660 622 577 622 399 c 0
 622 135 466 0 257 0 c 2
 71 0 l 1xb8
238 119 m 1
 259 119 l 2
 382 119 469 196 469 385 c 0
 469 502 412 541 326 541 c 2
 305 541 l 1
 279 377 l 1
 386 377 l 1
 374 305 l 1
 267 305 l 1xb8
 238 119 l 1
EndSplineSet
Validated: 1
EndChar

StartChar: E
Encoding: 69 69 26
Width: 600
GlyphClass: 2
Flags: HMW
HStem: 0 124<261 534> 278 123<305 525 285 545> 536 124<326 609 326 326>
VStem: 94 535
LayerCount: 2
Fore
SplineSet
94 0 m 1
 199 660 l 1
 629 660 l 1
 609 536 l 1
 326 536 l 1
 305 401 l 1
 545 401 l 1
 525 278 l 1
 285 278 l 1
 261 124 l 1
 554 124 l 1
 534 0 l 1
 94 0 l 1
EndSplineSet
Validated: 1
EndChar

StartChar: Eacute
Encoding: 201 201 27
Width: 600
GlyphClass: 2
Flags: HMW
HStem: 0 124<261 534> 278 123<305 525 285 545> 535 124<326 609 326 326> 709 121<359 615 458 476>
VStem: 94 534
LayerCount: 2
Fore
SplineSet
359 709 m 1
 458 830 l 1
 615 830 l 1
 476 709 l 1
 359 709 l 1
94 0 m 1
 198 660 l 1
 628 660 l 1
 609 535 l 1
 326 535 l 1
 305 401 l 1
 545 401 l 1
 525 278 l 1
 285 278 l 1
 261 124 l 1
 554 124 l 1
 534 0 l 1
 94 0 l 1
EndSplineSet
Validated: 1
EndChar

StartChar: Ebreve
Encoding: 276 276 28
Width: 600
GlyphClass: 2
Flags: HMW
HStem: 0 124<261 534> 278 123<305 525 285 545> 535 124<326 609 326 326> 709 74<428.5 463 428.5 477.5>
VStem: 94 534
LayerCount: 2
Fore
SplineSet
434 709 m 0
 351 709 316 754 316 819 c 0
 316 823 316 826 316 830 c 1
 396 830 l 1
 398 804 411 783 446 783 c 0
 480 783 499 804 509 830 c 1
 589 830 l 1
 571 759 521 709 434 709 c 0
94 0 m 1
 198 660 l 1
 628 660 l 1
 609 535 l 1
 326 535 l 1
 305 401 l 1
 545 401 l 1
 525 278 l 1
 285 278 l 1
 261 124 l 1
 554 124 l 1
 534 0 l 1
 94 0 l 1
EndSplineSet
Validated: 1
EndChar

StartChar: Ecaron
Encoding: 282 282 29
Width: 600
GlyphClass: 2
Flags: HMW
HStem: 0 124<261 534> 278 123<305 525 285 545> 535 124<326 609 326 326> 709 121<362 362 362 397 285 505>
VStem: 94 534
LayerCount: 2
Fore
SplineSet
362 709 m 1
 285 830 l 1
 397 830 l 1
 442 768 l 1
 446 768 l 1
 508 830 l 1
 620 830 l 1
 505 709 l 1
 362 709 l 1
94 0 m 1
 198 660 l 1
 628 660 l 1
 609 535 l 1
 326 535 l 1
 305 401 l 1
 545 401 l 1
 525 278 l 1
 285 278 l 1
 261 124 l 1
 554 124 l 1
 534 0 l 1
 94 0 l 1
EndSplineSet
Validated: 1
EndChar

StartChar: Ecircumflex
Encoding: 202 202 30
Width: 600
GlyphClass: 2
Flags: HMW
HStem: 0 124<261 534> 278 123<305 525 285 545> 535 124<326 609 326 326> 709 121<266 524 266 524 489 489 489 524 381 601>
VStem: 94 534
LayerCount: 2
Fore
SplineSet
266 709 m 1
 381 830 l 1
 524 830 l 1
 601 709 l 1
 489 709 l 1
 446 771 l 1
 442 771 l 1
 378 709 l 1
 266 709 l 1
94 0 m 1
 198 660 l 1
 628 660 l 1
 609 535 l 1
 326 535 l 1
 305 401 l 1
 545 401 l 1
 525 278 l 1
 285 278 l 1
 261 124 l 1
 554 124 l 1
 534 0 l 1
 94 0 l 1
EndSplineSet
Validated: 1
EndChar

StartChar: Edieresis
Encoding: 203 203 31
Width: 600
GlyphClass: 2
Flags: HMW
HStem: 0 124<261 534> 278 123<305 525 285 545> 535 124<326 609 326 326> 708 140<333.5 357.5 532.5 556>
VStem: 275 141<766 790> 473 141<766 790.5>
LayerCount: 2
Fore
SplineSet
334 708 m 0
 298 708 275 733 275 768 c 0
 275 812 311 848 356 848 c 0
 394 848 416 823 416 788 c 0
 416 744 381 708 334 708 c 0
533 708 m 0
 496 708 473 733 473 768 c 0
 473 813 510 848 555 848 c 0
 592 848 614 823 614 788 c 0
 614 744 579 708 533 708 c 0
94 0 m 1
 198 660 l 1
 628 660 l 1
 609 535 l 1
 326 535 l 1
 305 401 l 1
 545 401 l 1
 525 278 l 1
 285 278 l 1
 261 124 l 1
 554 124 l 1
 534 0 l 1
 94 0 l 1
EndSplineSet
Validated: 1
EndChar

StartChar: Edotaccent
Encoding: 278 278 32
Width: 600
GlyphClass: 2
Flags: HMW
HStem: 0 124<261 534> 278 123<305 525 285 545> 535 124<326 609 326 326> 709 154<431.5 461>
VStem: 359 174<771 801>
LayerCount: 2
Fore
SplineSet
434 709 m 0
 389 709 359 737 359 776 c 0
 359 826 404 863 459 863 c 0
 503 863 533 835 533 796 c 0
 533 746 488 709 434 709 c 0
94 0 m 1
 198 660 l 1
 628 660 l 1
 609 535 l 1
 326 535 l 1
 305 401 l 1
 545 401 l 1
 525 278 l 1
 285 278 l 1
 261 124 l 1
 554 124 l 1
 534 0 l 1
 94 0 l 1
EndSplineSet
Validated: 1
EndChar

StartChar: Egrave
Encoding: 200 200 33
Width: 600
GlyphClass: 2
Flags: HMW
HStem: 0 124<261 534> 278 123<305 525 285 545> 535 124<326 609 326 326> 709 121<391 391 391 447 290 508>
VStem: 94 534
LayerCount: 2
Fore
SplineSet
391 709 m 1
 290 830 l 1
 447 830 l 1
 508 709 l 1
 391 709 l 1
94 0 m 1
 198 660 l 1
 628 660 l 1
 609 535 l 1
 326 535 l 1
 305 401 l 1
 545 401 l 1
 525 278 l 1
 285 278 l 1
 261 124 l 1
 554 124 l 1
 534 0 l 1
 94 0 l 1
EndSplineSet
Validated: 1
EndChar

StartChar: Emacron
Encoding: 274 274 34
Width: 600
GlyphClass: 2
Flags: HMW
HStem: 0 124<261 534> 278 123<305 525 285 545> 535 124<326 609 326 326> 728 93<295 593 310 578>
VStem: 94 534
LayerCount: 2
Fore
SplineSet
295 728 m 1
 310 821 l 1
 593 821 l 1
 578 728 l 1
 295 728 l 1
94 0 m 1
 198 660 l 1
 628 660 l 1
 609 535 l 1
 326 535 l 1
 305 401 l 1
 545 401 l 1
 525 278 l 1
 285 278 l 1
 261 124 l 1
 554 124 l 1
 534 0 l 1
 94 0 l 1
EndSplineSet
Validated: 1
EndChar

StartChar: Eogonek
Encoding: 280 280 35
Width: 600
GlyphClass: 2
Flags: HMW
HStem: -225 95<385 470.5> 0 124<261 414 529 529 529 534> 278 123<305 525 285 545> 536 124<326 609 326 326>
VStem: 313 115<-169 -75.5>
LayerCount: 2
Fore
SplineSet
414 -225 m 0
 356 -225 313 -195 313 -143 c 0
 313 -77 373 -23 414 0 c 1
 94 0 l 1
 199 660 l 1
 629 660 l 1
 609 536 l 1
 326 536 l 1
 305 401 l 1
 545 401 l 1
 525 278 l 1
 285 278 l 1
 261 124 l 1
 554 124 l 1
 534 0 l 1
 529 0 l 2
 479 -2 428 -53 428 -98 c 0
 428 -120 445 -130 464 -130 c 0
 477 -130 492 -123 503 -116 c 1
 524 -190 l 1
 496 -210 449 -225 414 -225 c 0
EndSplineSet
Validated: 1
EndChar

StartChar: uni1EBC
Encoding: 7868 7868 36
Width: 600
GlyphClass: 2
Flags: HMW
HStem: 0 124<261 534> 278 123<305 525 285 545> 535 124<326 609 326 326> 711 137<264 419.5 264 419.5 366.5 523.5>
VStem: 94 534
LayerCount: 2
Fore
SplineSet
264 711 m 1
 289 802 340 848 393 848 c 0
 446 848 475 802 505 802 c 0
 522 802 539 814 551 848 c 1
 626 848 l 1
 601 756 550 711 497 711 c 0
 444 711 415 757 385 757 c 0
 368 757 351 744 339 711 c 1
 264 711 l 1
94 0 m 1
 198 660 l 1
 628 660 l 1
 609 535 l 1
 326 535 l 1
 305 401 l 1
 545 401 l 1
 525 278 l 1
 285 278 l 1
 261 124 l 1
 554 124 l 1
 534 0 l 1
 94 0 l 1
EndSplineSet
Validated: 1
EndChar

StartChar: F
Encoding: 70 70 37
Width: 600
GlyphClass: 2
Flags: HMW
HStem: 0 21G<108 108 108 255> 257 124<315 537 296 556> 536 124<340 623 340 340>
VStem: 108 535
LayerCount: 2
Fore
SplineSet
108 0 m 1
 213 660 l 1
 643 660 l 1
 623 536 l 1
 340 536 l 1
 315 381 l 1
 556 381 l 1
 537 257 l 1
 296 257 l 1
 255 0 l 1
 108 0 l 1
EndSplineSet
Validated: 1
EndChar

StartChar: G
Encoding: 71 71 38
Width: 600
GlyphClass: 2
Flags: HMW
HStem: -12 127<326.5 381.5 326.5 382.5> 251 120<379 455 360 606> 545 127<381 457>
VStem: 89 154<225.5 358.5 225.5 390.5>
LayerCount: 2
Fore
SplineSet
341 -12 m 0
 195 -12 89 85 89 263 c 0
 89 518 259 672 451 672 c 0
 539 672 594 631 629 588 c 1
 534 497 l 1
 510 526 483 545 431 545 c 0
 331 545 243 441 243 276 c 0
 243 175 284 115 369 115 c 0
 394 115 420 122 437 136 c 1
 455 251 l 1
 360 251 l 1
 379 371 l 1
 606 371 l 1
 558 68 l 1
 507 26 424 -12 341 -12 c 0
EndSplineSet
Validated: 1
EndChar

StartChar: Gbreve
Encoding: 286 286 39
Width: 600
GlyphClass: 2
Flags: HMW
HStem: -12 127<326.5 381.5 326.5 382.5> 250 120<379 455 360 606> 544 127<381 457> 709 74<437 471.5 437 486>
VStem: 89 154<225.5 357.5 225.5 389>
LayerCount: 2
Fore
SplineSet
442 709 m 0
 360 709 325 754 325 819 c 0
 325 823 325 826 325 830 c 1
 405 830 l 1
 407 804 420 783 454 783 c 0
 489 783 508 804 518 830 c 1
 598 830 l 1
 579 759 530 709 442 709 c 0
341 -12 m 0
 195 -12 89 84 89 262 c 0
 89 516 259 671 451 671 c 0
 539 671 594 629 629 587 c 1
 534 496 l 1
 510 524 483 544 431 544 c 0
 331 544 243 439 243 276 c 0
 243 175 284 115 369 115 c 0
 394 115 420 122 437 136 c 1
 455 250 l 1
 360 250 l 1
 379 370 l 1
 606 370 l 1
 558 68 l 1
 507 26 424 -12 341 -12 c 0
EndSplineSet
Validated: 1
EndChar

StartChar: Gcaron
Encoding: 486 486 40
Width: 600
GlyphClass: 2
Flags: HMW
HStem: -12 127<326.5 381.5 326.5 382.5> 250 120<379 455 360 606> 544 127<381 457> 709 121<371 371 371 406 294 514>
VStem: 89 154<225.5 357.5 225.5 389>
LayerCount: 2
Fore
SplineSet
371 709 m 1
 294 830 l 1
 406 830 l 1
 450 768 l 1
 454 768 l 1
 517 830 l 1
 629 830 l 1
 514 709 l 1
 371 709 l 1
341 -12 m 0
 195 -12 89 84 89 262 c 0
 89 516 259 671 451 671 c 0
 539 671 594 629 629 587 c 1
 534 496 l 1
 510 524 483 544 431 544 c 0
 331 544 243 439 243 276 c 0
 243 175 284 115 369 115 c 0
 394 115 420 122 437 136 c 1
 455 250 l 1
 360 250 l 1
 379 370 l 1
 606 370 l 1
 558 68 l 1
 507 26 424 -12 341 -12 c 0
EndSplineSet
Validated: 1
EndChar

StartChar: Gcircumflex
Encoding: 284 284 41
Width: 600
GlyphClass: 2
Flags: HMW
HStem: -12 127<326.5 381.5 326.5 382.5> 250 120<379 455 360 606> 544 127<381 457> 709 121<275 533 275 533 498 498 498 533 390 610>
VStem: 89 154<225.5 357.5 225.5 389>
LayerCount: 2
Fore
SplineSet
275 709 m 1
 390 830 l 1
 533 830 l 1
 610 709 l 1
 498 709 l 1
 454 771 l 1
 450 771 l 1
 387 709 l 1
 275 709 l 1
341 -12 m 0
 195 -12 89 84 89 262 c 0
 89 516 259 671 451 671 c 0
 539 671 594 629 629 587 c 1
 534 496 l 1
 510 524 483 544 431 544 c 0
 331 544 243 439 243 276 c 0
 243 175 284 115 369 115 c 0
 394 115 420 122 437 136 c 1
 455 250 l 1
 360 250 l 1
 379 370 l 1
 606 370 l 1
 558 68 l 1
 507 26 424 -12 341 -12 c 0
EndSplineSet
Validated: 1
EndChar

StartChar: Gdotaccent
Encoding: 288 288 42
Width: 600
GlyphClass: 2
Flags: HMW
HStem: -12 127<326.5 381.5 326.5 382.5> 250 120<379 455 360 606> 544 127<381 457> 709 154<440 470>
VStem: 89 154<225.5 358.5 225.5 390> 368 173<771.5 801>
LayerCount: 2
Fore
SplineSet
442 709 m 0
 398 709 368 737 368 776 c 0
 368 826 413 863 467 863 c 0
 512 863 541 836 541 797 c 0
 541 746 498 709 442 709 c 0
341 -12 m 0
 195 -12 89 84 89 263 c 0
 89 517 259 671 451 671 c 0
 539 671 594 630 629 587 c 1
 534 496 l 1
 510 525 483 544 431 544 c 0
 331 544 243 441 243 276 c 0
 243 175 284 115 369 115 c 0
 394 115 420 122 437 136 c 1
 455 250 l 1
 360 250 l 1
 379 370 l 1
 606 370 l 1
 558 68 l 1
 507 26 424 -12 341 -12 c 0
EndSplineSet
Validated: 1
EndChar

StartChar: uni1E20
Encoding: 7712 7712 43
Width: 600
GlyphClass: 2
Flags: HMW
HStem: -12 127<326.5 381.5 326.5 382.5> 250 120<379 455 360 606> 545 127<381 457> 728 93<304 602 319 587>
VStem: 89 154<225.5 358 225.5 390>
LayerCount: 2
Fore
SplineSet
304 728 m 1
 319 821 l 1
 602 821 l 1
 587 728 l 1
 304 728 l 1
341 -12 m 0
 195 -12 89 84 89 263 c 0
 89 517 259 672 451 672 c 0
 539 672 594 630 629 588 c 1
 534 497 l 1
 510 525 483 545 431 545 c 0
 331 545 243 440 243 276 c 0
 243 175 284 115 369 115 c 0
 394 115 420 122 437 136 c 1
 455 250 l 1
 360 250 l 1
 379 370 l 1
 606 370 l 1
 558 68 l 1
 507 26 424 -12 341 -12 c 0
EndSplineSet
Validated: 1
EndChar

StartChar: H
Encoding: 72 72 44
Width: 600
GlyphClass: 2
Flags: HMW
HStem: 0 21G<64 64 64 211 389 389 389 536> 276 129<275 433 255 453> 640 20G<169 316 316 316 494 641 641 641>
VStem: 64 577
LayerCount: 2
Fore
SplineSet
64 0 m 1
 169 660 l 1
 316 660 l 1
 275 405 l 1
 453 405 l 1
 494 660 l 1
 641 660 l 1
 536 0 l 1
 389 0 l 1
 433 276 l 1
 255 276 l 1
 211 0 l 1
 64 0 l 1
EndSplineSet
Validated: 1
EndChar

StartChar: Hbar
Encoding: 294 294 45
Width: 600
GlyphClass: 2
Flags: HMW
HStem: 0 21G<64 64 64 211 389 389 389 536> 276 129<275 433 255 453> 492 68 492 71<289 478 300 467 625 675> 492 168<81 316 81 316 289 289 289 316 169 467 614 614 614 641>
VStem: 64 622<0 563>
LayerCount: 2
Fore
SplineSet
64 0 m 1xcc
 142 492 l 1
 81 492 l 1xcc
 91 557 l 1
 153 562 l 1xe4
 169 660 l 1
 316 660 l 1xcc
 300 563 l 1
 478 563 l 1xd4
 494 660 l 1
 641 660 l 1xcc
 625 563 l 1
 686 563 l 1xd4
 675 492 l 1
 614 492 l 1
 536 0 l 1
 389 0 l 1
 433 276 l 1
 255 276 l 1
 211 0 l 1
 64 0 l 1xcc
275 405 m 1
 453 405 l 1
 467 492 l 1
 289 492 l 1
 275 405 l 1
EndSplineSet
Validated: 1
EndChar

StartChar: Hcircumflex
Encoding: 292 292 46
Width: 600
GlyphClass: 2
Flags: HMW
HStem: 0 21G<64 64 64 211 389 389 389 536> 276 128<275 433 255 453> 709 121<243 502 243 502 466 466 466 502 358 579>
VStem: 64 576
LayerCount: 2
Fore
SplineSet
243 709 m 1
 358 830 l 1
 502 830 l 1
 579 709 l 1
 466 709 l 1
 423 771 l 1
 419 771 l 1
 356 709 l 1
 243 709 l 1
64 0 m 1
 168 660 l 1
 315 660 l 1
 275 404 l 1
 453 404 l 1
 493 660 l 1
 640 660 l 1
 536 0 l 1
 389 0 l 1
 433 276 l 1
 255 276 l 1
 211 0 l 1
 64 0 l 1
EndSplineSet
Validated: 1
EndChar

StartChar: I
Encoding: 73 73 47
Width: 600
GlyphClass: 2
Flags: HMW
HStem: 0 124<74 246 94 246 394 526> 536 124<179 311 159 631 459 459 459 611>
VStem: 74 557
LayerCount: 2
Fore
SplineSet
74 0 m 1
 94 124 l 1
 246 124 l 1
 311 536 l 1
 159 536 l 1
 179 660 l 1
 631 660 l 1
 611 536 l 1
 459 536 l 1
 394 124 l 1
 546 124 l 1
 526 0 l 1
 74 0 l 1
EndSplineSet
Validated: 1
EndChar

StartChar: Iacute
Encoding: 205 205 48
Width: 600
GlyphClass: 2
Flags: HMW
HStem: 0 124<74 246 94 246 394 526> 535 124<178 311 159 630 459 459 459 611> 709 121<337 593 437 454>
VStem: 74 556
LayerCount: 2
Fore
SplineSet
337 709 m 1
 437 830 l 1
 593 830 l 1
 454 709 l 1
 337 709 l 1
74 0 m 1
 94 124 l 1
 246 124 l 1
 311 535 l 1
 159 535 l 1
 178 660 l 1
 630 660 l 1
 611 535 l 1
 459 535 l 1
 394 124 l 1
 546 124 l 1
 526 0 l 1
 74 0 l 1
EndSplineSet
Validated: 1
EndChar

StartChar: Ibreve
Encoding: 300 300 49
Width: 600
GlyphClass: 2
Flags: HMW
HStem: 0 124<74 246 94 246 394 526> 535 124<178 311 159 630 459 459 459 611> 709 74<407 441 407 455.5>
VStem: 74 556
LayerCount: 2
Fore
SplineSet
412 709 m 0
 328 709 294 756 294 822 c 0
 294 825 294 827 294 830 c 1
 375 830 l 1
 377 804 390 783 424 783 c 0
 458 783 477 804 487 830 c 1
 568 830 l 1
 549 759 499 709 412 709 c 0
74 0 m 1
 94 124 l 1
 246 124 l 1
 311 535 l 1
 159 535 l 1
 178 660 l 1
 630 660 l 1
 611 535 l 1
 459 535 l 1
 394 124 l 1
 546 124 l 1
 526 0 l 1
 74 0 l 1
EndSplineSet
Validated: 1
EndChar

StartChar: uni01CF
Encoding: 463 463 50
Width: 600
GlyphClass: 2
Flags: HMW
HStem: 0 124<74 246 94 246 394 526> 535 124<178 311 159 630 459 459 459 611> 709 121<340 340 340 376 263 484>
VStem: 74 556
LayerCount: 2
Fore
SplineSet
340 709 m 1
 263 830 l 1
 376 830 l 1
 420 768 l 1
 424 768 l 1
 486 830 l 1
 599 830 l 1
 484 709 l 1
 340 709 l 1
74 0 m 1
 94 124 l 1
 246 124 l 1
 311 535 l 1
 159 535 l 1
 178 660 l 1
 630 660 l 1
 611 535 l 1
 459 535 l 1
 394 124 l 1
 546 124 l 1
 526 0 l 1
 74 0 l 1
EndSplineSet
Validated: 1
EndChar

StartChar: Icircumflex
Encoding: 206 206 51
Width: 600
GlyphClass: 2
Flags: HMW
HStem: 0 124<74 246 94 246 394 526> 535 124<178 311 159 630 459 459 459 611> 709 121<244 503 244 503 467 467 467 503 359 580>
VStem: 74 556
LayerCount: 2
Fore
SplineSet
244 709 m 1
 359 830 l 1
 503 830 l 1
 580 709 l 1
 467 709 l 1
 424 771 l 1
 420 771 l 1
 357 709 l 1
 244 709 l 1
74 0 m 1
 94 124 l 1
 246 124 l 1
 311 535 l 1
 159 535 l 1
 178 660 l 1
 630 660 l 1
 611 535 l 1
 459 535 l 1
 394 124 l 1
 546 124 l 1
 526 0 l 1
 74 0 l 1
EndSplineSet
Validated: 1
EndChar

StartChar: Idieresis
Encoding: 207 207 52
Width: 600
GlyphClass: 2
Flags: HMW
HStem: 0 124<74 246 94 246 394 526> 535 124<178 311 159 630 459 459 459 611> 708 140<312.5 336 510.5 534>
VStem: 253 142<765.5 790.5> 451 142<765.5 790.5>
LayerCount: 2
Fore
SplineSet
313 708 m 0
 276 708 253 733 253 768 c 0
 253 813 290 848 335 848 c 0
 372 848 395 823 395 788 c 0
 395 743 359 708 313 708 c 0
511 708 m 0
 474 708 451 733 451 768 c 0
 451 813 488 848 533 848 c 0
 570 848 593 823 593 788 c 0
 593 743 557 708 511 708 c 0
74 0 m 1
 94 124 l 1
 246 124 l 1
 311 535 l 1
 159 535 l 1
 178 660 l 1
 630 660 l 1
 611 535 l 1
 459 535 l 1
 394 124 l 1
 546 124 l 1
 526 0 l 1
 74 0 l 1
EndSplineSet
Validated: 1
EndChar

StartChar: Idotaccent
Encoding: 304 304 53
Width: 600
GlyphClass: 2
Flags: HMW
HStem: 0 124<74 246 94 246 394 526> 535 124<178 311 159 630 459 459 459 611> 709 154<410 439>
VStem: 338 173<771 801>
LayerCount: 2
Fore
SplineSet
412 709 m 0
 368 709 338 737 338 776 c 0
 338 826 383 863 437 863 c 0
 481 863 511 835 511 796 c 0
 511 746 466 709 412 709 c 0
74 0 m 1
 94 124 l 1
 246 124 l 1
 311 535 l 1
 159 535 l 1
 178 660 l 1
 630 660 l 1
 611 535 l 1
 459 535 l 1
 394 124 l 1
 546 124 l 1
 526 0 l 1
 74 0 l 1
EndSplineSet
Validated: 1
EndChar

StartChar: Igrave
Encoding: 204 204 54
Width: 600
GlyphClass: 2
Flags: HMW
HStem: 0 124<74 246 94 246 394 526> 535 124<178 311 159 630 459 459 459 611> 709 121<370 370 370 425 269 487>
VStem: 74 556
LayerCount: 2
Fore
SplineSet
370 709 m 1
 269 830 l 1
 425 830 l 1
 487 709 l 1
 370 709 l 1
74 0 m 1
 94 124 l 1
 246 124 l 1
 311 535 l 1
 159 535 l 1
 178 660 l 1
 630 660 l 1
 611 535 l 1
 459 535 l 1
 394 124 l 1
 546 124 l 1
 526 0 l 1
 74 0 l 1
EndSplineSet
Validated: 1
EndChar

StartChar: Imacron
Encoding: 298 298 55
Width: 600
GlyphClass: 2
Flags: HMW
HStem: 0 124<74 246 94 246 394 526> 535 124<178 311 159 630 459 459 459 611> 728 93<274 571 289 556>
VStem: 74 556
LayerCount: 2
Fore
SplineSet
274 728 m 1
 289 821 l 1
 571 821 l 1
 556 728 l 1
 274 728 l 1
74 0 m 1
 94 124 l 1
 246 124 l 1
 311 535 l 1
 159 535 l 1
 178 660 l 1
 630 660 l 1
 611 535 l 1
 459 535 l 1
 394 124 l 1
 546 124 l 1
 526 0 l 1
 74 0 l 1
EndSplineSet
Validated: 1
EndChar

StartChar: Iogonek
Encoding: 302 302 56
Width: 600
GlyphClass: 2
Flags: HMW
HStem: -225 95<241.5 326> 0 124<94 246 94 266 74 246 394 526> 536 124<179 311 159 631 459 459 459 611>
VStem: 170 114<-109 -108.5>
LayerCount: 2
Fore
SplineSet
270 -225 m 0
 213 -225 170 -195 170 -143 c 0
 170 -74 230 -23 266 0 c 1
 74 0 l 1
 94 124 l 1
 246 124 l 1
 311 536 l 1
 159 536 l 1
 179 660 l 1
 631 660 l 1
 611 536 l 1
 459 536 l 1
 394 124 l 1
 546 124 l 1
 526 0 l 1
 374 0 l 1
 308 -26 284 -64 284 -98 c 0
 284 -120 301 -130 319 -130 c 0
 333 -130 349 -123 359 -116 c 1
 381 -190 l 1
 352 -210 305 -225 270 -225 c 0
EndSplineSet
Validated: 1
EndChar

StartChar: Itilde
Encoding: 296 296 57
Width: 600
GlyphClass: 2
Flags: HMW
HStem: 0 124<74 246 94 246 394 526> 535 124<178 311 159 630 459 459 459 611> 711 137<243 398 243 398 345 502>
VStem: 74 556
LayerCount: 2
Fore
SplineSet
243 711 m 1
 267 802 319 848 371 848 c 0
 425 848 453 802 484 802 c 0
 501 802 517 814 529 848 c 1
 604 848 l 1
 580 756 528 711 476 711 c 0
 422 711 394 757 363 757 c 0
 346 757 330 744 318 711 c 1
 243 711 l 1
74 0 m 1
 94 124 l 1
 246 124 l 1
 311 535 l 1
 159 535 l 1
 178 660 l 1
 630 660 l 1
 611 535 l 1
 459 535 l 1
 394 124 l 1
 546 124 l 1
 526 0 l 1
 74 0 l 1
EndSplineSet
Validated: 1
EndChar

StartChar: J
Encoding: 74 74 58
Width: 600
GlyphClass: 2
Flags: HMW
HStem: -12 127<264.5 319.5 264.5 361> 537 123<219 454 199 620>
VStem: 74 546
LayerCount: 2
Fore
SplineSet
271 -12 m 0
 199 -12 119 16 74 97 c 1
 174 188 l 1
 204 140 243 115 286 115 c 0
 353 115 392 145 406 236 c 2
 454 537 l 1
 199 537 l 1
 219 660 l 1
 620 660 l 1
 551 224 l 2
 531 95 451 -12 271 -12 c 0
EndSplineSet
Validated: 1
EndChar

StartChar: Jcircumflex
Encoding: 308 308 59
Width: 600
GlyphClass: 2
Flags: HMW
HStem: -12 127<264.5 319.5 264.5 361> 536 123<218 454 199 620> 709 121<266 524 266 524 489 489 489 524 381 601>
VStem: 74 546
LayerCount: 2
Fore
SplineSet
266 709 m 1
 381 830 l 1
 524 830 l 1
 601 709 l 1
 489 709 l 1
 446 771 l 1
 442 771 l 1
 378 709 l 1
 266 709 l 1
271 -12 m 0
 199 -12 119 16 74 97 c 1
 174 188 l 1
 204 140 243 115 286 115 c 0
 353 115 392 145 406 236 c 2
 454 536 l 1
 199 536 l 1
 218 660 l 1
 620 660 l 1
 551 224 l 2
 531 95 451 -12 271 -12 c 0
EndSplineSet
Validated: 1
EndChar

StartChar: K
Encoding: 75 75 60
Width: 600
GlyphClass: 2
Flags: HMW
HStem: 0 21G<68 68 68 217 431 431 431 594> 640 20G<173 322 322 322 518 680 680 680>
VStem: 68 612
LayerCount: 2
Fore
SplineSet
68 0 m 1
 173 660 l 1
 322 660 l 1
 278 388 l 1
 281 388 l 1
 518 660 l 1
 680 660 l 1
 443 397 l 1
 594 0 l 1
 431 0 l 1
 337 280 l 1
 245 178 l 1
 217 0 l 1
 68 0 l 1
EndSplineSet
Validated: 1
EndChar

StartChar: L
Encoding: 76 76 61
Width: 600
GlyphClass: 2
Flags: HMW
HStem: 0 124<274 544> 640 20G<212 359 359 359>
VStem: 107 457<0 124>
LayerCount: 2
Fore
SplineSet
107 0 m 1
 212 660 l 1
 359 660 l 1
 274 124 l 1
 564 124 l 1
 544 0 l 1
 107 0 l 1
EndSplineSet
Validated: 1
EndChar

StartChar: Lacute
Encoding: 313 313 62
Width: 600
GlyphClass: 2
Flags: HMW
HStem: 0 124<274 544> 709 121<232 488 332 350>
VStem: 107 457<0 124>
LayerCount: 2
Fore
SplineSet
232 709 m 1
 332 830 l 1
 488 830 l 1
 350 709 l 1
 232 709 l 1
107 0 m 1
 211 660 l 1
 358 660 l 1
 274 124 l 1
 564 124 l 1
 544 0 l 1
 107 0 l 1
EndSplineSet
Validated: 1
EndChar

StartChar: Lcaron
Encoding: 317 317 63
Width: 600
GlyphClass: 2
Flags: HMW
HStem: 0 124<274 544> 517 143<212 468 212 531> 517 224<468 592 498 531> 640 20G<212 359 359 359>
VStem: 107 485
LayerCount: 2
Fore
SplineSet
468 517 m 1xc8
 498 741 l 1
 592 741 l 1
 580 670 l 1xa8
 531 517 l 1
 468 517 l 1xc8
107 0 m 1
 212 660 l 1
 359 660 l 1x98
 274 124 l 1
 564 124 l 1
 544 0 l 1
 107 0 l 1
EndSplineSet
Validated: 1
EndChar

StartChar: Ldot
Encoding: 319 319 64
Width: 600
GlyphClass: 2
Flags: HMW
HStem: 0 124<274 544> 268 182<493 527> 640 20G<212 359 359 359>
VStem: 107 502<0 394.5> 411 198<340.5 375.5>
LayerCount: 2
Fore
SplineSet
107 0 m 1xf0
 212 660 l 1
 359 660 l 1
 274 124 l 1
 564 124 l 1
 544 0 l 1
 107 0 l 1xf0
495 268 m 0xe8
 445 268 411 299 411 345 c 0
 411 406 462 450 524 450 c 0
 576 450 609 418 609 371 c 0
 609 310 559 268 495 268 c 0xe8
EndSplineSet
Validated: 1
Ligature2: "sous-table Substitution de ligature lookups15" L periodcentered
EndChar

StartChar: Lslash
Encoding: 321 321 65
Width: 600
GlyphClass: 2
Flags: HMW
HStem: 0 124<274 544> 640 20G<212 359 359 359>
VStem: 58 506<124 160>
LayerCount: 2
Fore
SplineSet
107 0 m 1
 139 201 l 1
 58 160 l 1
 76 274 l 1
 157 315 l 1
 212 660 l 1
 359 660 l 1
 315 387 l 1
 540 502 l 1
 521 388 l 1
 297 273 l 1
 274 124 l 1
 564 124 l 1
 544 0 l 1
 107 0 l 1
EndSplineSet
Validated: 1
EndChar

StartChar: M
Encoding: 77 77 66
Width: 630
GlyphClass: 2
Flags: HMW
HStem: 0 21G<65 65 65 182 446 446 446 565> 516 144<245 249 245 245 543 547 543 543>
VStem: 65 605
LayerCount: 2
Fore
SplineSet
65 0 m 1
 170 660 l 1
 318 660 l 1
 356 425 l 1
 368 333 l 1
 371 333 l 1
 410 425 l 1
 522 660 l 1
 670 660 l 1
 565 0 l 1
 446 0 l 1
 481 220 l 2
 492 292 529 446 547 516 c 1
 543 516 l 1
 461 336 l 1
 375 176 l 1
 309 176 l 1
 272 336 l 1
 249 516 l 1
 245 516 l 1
 241 446 228 292 217 220 c 2
 182 0 l 1
 65 0 l 1
EndSplineSet
Validated: 1
EndChar

StartChar: N
Encoding: 78 78 67
Width: 600
GlyphClass: 2
Flags: HMW
HStem: 0 21G<66 66 66 207 384 384 384 534> 0 184<384 443 439 443 439 534> 475 185<261 265 261 261> 640 20G<171 321 321 321 498 639 639 639>
VStem: 66 573
LayerCount: 2
Fore
SplineSet
66 0 m 1x98
 171 660 l 1
 321 660 l 1
 406 329 l 1
 439 184 l 1
 443 184 l 1x58
 447 254 448 346 460 423 c 2
 498 660 l 1
 639 660 l 1
 534 0 l 1
 384 0 l 1
 299 332 l 1
 265 475 l 1
 261 475 l 1xa8
 257 402 257 315 245 237 c 2
 207 0 l 1
 66 0 l 1x98
EndSplineSet
Validated: 1
EndChar

StartChar: Nacute
Encoding: 323 323 68
Width: 600
GlyphClass: 2
Flags: HMW
HStem: 0 21G<66 66 66 207 384 384 384 534> 0 184<384 443 439 443 439 534> 473 186<261 265 261 261> 709 121<343 599 443 460>
VStem: 66 572
LayerCount: 2
Fore
SplineSet
343 709 m 1xb8
 443 830 l 1
 599 830 l 1
 460 709 l 1
 343 709 l 1xb8
66 0 m 1
 170 660 l 1
 320 660 l 1
 406 328 l 1
 439 184 l 1
 443 184 l 1x78
 447 254 448 346 460 423 c 2
 497 660 l 1
 638 660 l 1
 534 0 l 1
 384 0 l 1
 298 330 l 1
 265 473 l 1
 261 473 l 1
 257 401 256 313 244 236 c 2
 207 0 l 1
 66 0 l 1
EndSplineSet
Validated: 1
EndChar

StartChar: Ncaron
Encoding: 327 327 69
Width: 600
GlyphClass: 2
Flags: HMW
HStem: 0 21G<66 66 66 207 384 384 384 534> 0 184<384 443 439 443 439 534> 473 186<261 265 261 261> 709 121<346 346 346 382 269 490>
VStem: 66 572
LayerCount: 2
Fore
SplineSet
346 709 m 1xb8
 269 830 l 1
 382 830 l 1
 426 768 l 1
 430 768 l 1
 492 830 l 1
 605 830 l 1
 490 709 l 1
 346 709 l 1xb8
66 0 m 1
 170 660 l 1
 320 660 l 1
 406 328 l 1
 439 184 l 1
 443 184 l 1x78
 447 254 448 346 460 423 c 2
 497 660 l 1
 638 660 l 1
 534 0 l 1
 384 0 l 1
 298 330 l 1
 265 473 l 1
 261 473 l 1
 257 401 256 313 244 236 c 2
 207 0 l 1
 66 0 l 1
EndSplineSet
Validated: 1
EndChar

StartChar: uni1E44
Encoding: 7748 7748 70
Width: 600
GlyphClass: 2
Flags: HMW
HStem: 0 21G<66 66 66 207 384 384 384 534> 0 184<384 443 439 443 439 534> 474 185<261 265 261 261> 709 154<416 445>
VStem: 344 173<771 801>
LayerCount: 2
Fore
SplineSet
418 709 m 0xb8
 374 709 344 737 344 776 c 0
 344 826 389 863 443 863 c 0
 487 863 517 835 517 796 c 0
 517 746 472 709 418 709 c 0xb8
66 0 m 1
 170 660 l 1
 320 660 l 1
 406 328 l 1
 439 184 l 1
 443 184 l 1x78
 447 254 448 346 460 423 c 2
 497 660 l 1
 638 660 l 1
 534 0 l 1
 384 0 l 1
 298 331 l 1
 265 474 l 1
 261 474 l 1
 257 401 256 314 244 236 c 2
 207 0 l 1
 66 0 l 1
EndSplineSet
Validated: 1
EndChar

StartChar: Ntilde
Encoding: 209 209 71
Width: 600
GlyphClass: 2
Flags: HMW
HStem: 0 21G<66 66 66 207 384 384 384 534> 0 184<384 443 439 443 439 534> 474 185<261 265 261 261> 711 137<249 404 249 404 351 508>
VStem: 66 572
LayerCount: 2
Fore
SplineSet
249 711 m 1xb8
 273 802 325 848 377 848 c 0
 431 848 459 802 490 802 c 0
 507 802 523 814 535 848 c 1
 610 848 l 1
 586 756 534 711 482 711 c 0
 428 711 400 757 369 757 c 0
 352 757 336 744 324 711 c 1
 249 711 l 1xb8
66 0 m 1
 170 660 l 1
 320 660 l 1
 406 328 l 1
 439 184 l 1
 443 184 l 1x78
 447 254 448 346 460 423 c 2
 497 660 l 1
 638 660 l 1
 534 0 l 1
 384 0 l 1
 298 331 l 1
 265 474 l 1
 261 474 l 1
 257 401 256 314 244 236 c 2
 207 0 l 1
 66 0 l 1
EndSplineSet
Validated: 1
EndChar

StartChar: O
Encoding: 79 79 72
Width: 600
GlyphClass: 2
Flags: HMW
HStem: -12 127<291.5 361.5 291.5 389> 545 127<342.5 413>
VStem: 83 152<222 348.5 222 386.5> 470 152<318 442.5>
LayerCount: 2
Fore
SplineSet
298 -12 m 0
 166 -12 83 91 83 260 c 0
 83 513 224 672 406 672 c 0
 539 672 622 573 622 405 c 0
 622 155 480 -12 298 -12 c 0
318 115 m 0
 405 115 470 240 470 396 c 0
 470 489 440 545 386 545 c 0
 299 545 235 428 235 269 c 0
 235 175 265 115 318 115 c 0
EndSplineSet
Validated: 1
Substitution2: "sous-table Substitution simple lookups16" ordmasculine
Substitution2: "sous-table 'aalt' Activer toutes les variantes dans Latin lookup 0" ordmasculine
EndChar

StartChar: Oacute
Encoding: 211 211 73
Width: 600
GlyphClass: 2
Flags: HMW
HStem: -12 127<291.5 361.5 291.5 389> 544 127<342.5 413> 709 121<337 593 437 454>
VStem: 83 152<221.5 347 221.5 385.5> 470 152<316.5 440.5>
LayerCount: 2
Fore
SplineSet
337 709 m 1
 437 830 l 1
 593 830 l 1
 454 709 l 1
 337 709 l 1
298 -12 m 0
 166 -12 83 91 83 260 c 0
 83 511 224 671 406 671 c 0
 539 671 622 571 622 403 c 0
 622 154 480 -12 298 -12 c 0
318 115 m 0
 405 115 470 239 470 394 c 0
 470 487 440 544 386 544 c 0
 299 544 235 426 235 268 c 0
 235 175 265 115 318 115 c 0
EndSplineSet
Validated: 1
EndChar

StartChar: Obreve
Encoding: 334 334 74
Width: 600
GlyphClass: 2
Flags: HMW
HStem: -12 127<291.5 361.5 291.5 389> 544 127<342.5 413> 709 74<407 441 407 455.5>
VStem: 83 152<221.5 347 221.5 385.5> 470 152<316.5 440.5>
LayerCount: 2
Fore
SplineSet
412 709 m 0
 328 709 294 756 294 822 c 0
 294 825 294 827 294 830 c 1
 375 830 l 1
 377 804 390 783 424 783 c 0
 458 783 477 804 487 830 c 1
 568 830 l 1
 549 759 499 709 412 709 c 0
298 -12 m 0
 166 -12 83 91 83 260 c 0
 83 511 224 671 406 671 c 0
 539 671 622 571 622 403 c 0
 622 154 480 -12 298 -12 c 0
318 115 m 0
 405 115 470 239 470 394 c 0
 470 487 440 544 386 544 c 0
 299 544 235 426 235 268 c 0
 235 175 265 115 318 115 c 0
EndSplineSet
Validated: 1
EndChar

StartChar: uni01D1
Encoding: 465 465 75
Width: 600
GlyphClass: 2
Flags: HMW
HStem: -12 127<291.5 361.5 291.5 389> 544 127<342.5 413> 709 121<340 340 340 376 263 484>
VStem: 83 152<221.5 347 221.5 385.5> 470 152<316.5 440.5>
LayerCount: 2
Fore
SplineSet
340 709 m 1
 263 830 l 1
 376 830 l 1
 420 768 l 1
 424 768 l 1
 486 830 l 1
 599 830 l 1
 484 709 l 1
 340 709 l 1
298 -12 m 0
 166 -12 83 91 83 260 c 0
 83 511 224 671 406 671 c 0
 539 671 622 571 622 403 c 0
 622 154 480 -12 298 -12 c 0
318 115 m 0
 405 115 470 239 470 394 c 0
 470 487 440 544 386 544 c 0
 299 544 235 426 235 268 c 0
 235 175 265 115 318 115 c 0
EndSplineSet
Validated: 1
EndChar

StartChar: Ocircumflex
Encoding: 212 212 76
Width: 600
GlyphClass: 2
Flags: HMW
HStem: -12 127<291.5 361.5 291.5 389> 544 127<342.5 413> 709 121<244 503 244 503 467 467 467 503 359 580>
VStem: 83 152<221.5 347 221.5 385.5> 470 152<316.5 440.5>
LayerCount: 2
Fore
SplineSet
244 709 m 1
 359 830 l 1
 503 830 l 1
 580 709 l 1
 467 709 l 1
 424 771 l 1
 420 771 l 1
 357 709 l 1
 244 709 l 1
298 -12 m 0
 166 -12 83 91 83 260 c 0
 83 511 224 671 406 671 c 0
 539 671 622 571 622 403 c 0
 622 154 480 -12 298 -12 c 0
318 115 m 0
 405 115 470 239 470 394 c 0
 470 487 440 544 386 544 c 0
 299 544 235 426 235 268 c 0
 235 175 265 115 318 115 c 0
EndSplineSet
Validated: 1
EndChar

StartChar: Odieresis
Encoding: 214 214 77
Width: 600
GlyphClass: 2
Flags: HMW
HStem: -12 127<291.5 361.5 291.5 389> 544 127<342.5 413> 708 140<312.5 336 510.5 534>
VStem: 83 152<221.5 347.5 221.5 386.5> 253 142<765.5 790.5> 451 142<765.5 790.5> 470 152<317 441.5>
LayerCount: 2
Fore
SplineSet
313 708 m 0xfc
 276 708 253 733 253 768 c 0
 253 813 290 848 335 848 c 0
 372 848 395 823 395 788 c 0
 395 743 359 708 313 708 c 0xfc
511 708 m 0
 474 708 451 733 451 768 c 0
 451 813 488 848 533 848 c 0
 570 848 593 823 593 788 c 0
 593 743 557 708 511 708 c 0
298 -12 m 0xf2
 166 -12 83 90 83 260 c 0
 83 513 224 671 406 671 c 0
 539 671 622 572 622 404 c 0
 622 154 480 -12 298 -12 c 0xf2
318 115 m 0
 405 115 470 239 470 395 c 0
 470 488 440 544 386 544 c 0
 299 544 235 427 235 268 c 0
 235 175 265 115 318 115 c 0
EndSplineSet
Validated: 1
EndChar

StartChar: Ograve
Encoding: 210 210 78
Width: 600
GlyphClass: 2
Flags: HMW
HStem: -12 127<291.5 361.5 291.5 389> 544 127<342.5 413> 709 121<370 370 370 425 269 487>
VStem: 83 152<221.5 347 221.5 385.5> 470 152<316.5 440.5>
LayerCount: 2
Fore
SplineSet
370 709 m 1
 269 830 l 1
 425 830 l 1
 487 709 l 1
 370 709 l 1
298 -12 m 0
 166 -12 83 91 83 260 c 0
 83 511 224 671 406 671 c 0
 539 671 622 571 622 403 c 0
 622 154 480 -12 298 -12 c 0
318 115 m 0
 405 115 470 239 470 394 c 0
 470 487 440 544 386 544 c 0
 299 544 235 426 235 268 c 0
 235 175 265 115 318 115 c 0
EndSplineSet
Validated: 1
EndChar

StartChar: Ohungarumlaut
Encoding: 336 336 79
Width: 600
GlyphClass: 2
Flags: HMW
HStem: -12 127<291.5 361.5 291.5 389> 544 127<342.5 413> 709 121<275 482 357 374 454 482 537 553 454 454>
VStem: 83 152<221.5 347 221.5 385.5> 470 152<316.5 440.5>
LayerCount: 2
Fore
SplineSet
275 709 m 1
 357 830 l 1
 482 830 l 1
 374 709 l 1
 275 709 l 1
454 709 m 1
 537 830 l 1
 662 830 l 1
 553 709 l 1
 454 709 l 1
298 -12 m 0
 166 -12 83 91 83 260 c 0
 83 511 224 671 406 671 c 0
 539 671 622 571 622 403 c 0
 622 154 480 -12 298 -12 c 0
318 115 m 0
 405 115 470 239 470 394 c 0
 470 487 440 544 386 544 c 0
 299 544 235 426 235 268 c 0
 235 175 265 115 318 115 c 0
EndSplineSet
Validated: 1
EndChar

StartChar: Omacron
Encoding: 332 332 80
Width: 600
GlyphClass: 2
Flags: HMW
HStem: -12 127<291.5 361.5 291.5 389> 545 127<343 413> 728 93<274 571 289 556>
VStem: 83 152<221.5 347.5 221.5 386> 470 152<317 441.5>
LayerCount: 2
Fore
SplineSet
274 728 m 1
 289 821 l 1
 571 821 l 1
 556 728 l 1
 274 728 l 1
298 -12 m 0
 166 -12 83 90 83 260 c 0
 83 512 225 672 406 672 c 0
 539 672 622 572 622 404 c 0
 622 154 480 -12 298 -12 c 0
318 115 m 0
 405 115 470 239 470 395 c 0
 470 488 440 545 386 545 c 0
 300 545 235 427 235 268 c 0
 235 175 265 115 318 115 c 0
EndSplineSet
Validated: 1
EndChar

StartChar: uni01EA
Encoding: 490 490 81
Width: 600
GlyphClass: 2
Flags: HMW
HStem: -225 95<261 346.5> -10 21G 545 127<342.5 413>
VStem: 84 151<222 348.5 222 387.5> 189 114<-169 -83> 470 152<318 442.5>
LayerCount: 2
Fore
SplineSet
290 -225 m 0xec
 232 -225 189 -195 189 -143 c 0xec
 189 -86 234 -42 272 -12 c 1
 141 2 84 122 84 262 c 0xf4
 84 513 224 672 406 672 c 0
 539 672 622 573 622 405 c 0
 622 192 525 61 388 3 c 0
 327 -23 303 -68 303 -98 c 0
 303 -120 320 -130 340 -130 c 0
 353 -130 367 -123 378 -116 c 1
 400 -190 l 1
 372 -210 324 -225 290 -225 c 0xec
318 115 m 0xf4
 405 115 470 240 470 396 c 0
 470 489 440 545 386 545 c 0
 299 545 235 428 235 269 c 0
 235 175 265 115 318 115 c 0xf4
EndSplineSet
Validated: 1
EndChar

StartChar: Oslash
Encoding: 216 216 82
Width: 600
GlyphClass: 2
Flags: HMW
HStem: -12 21G -12 127<305.5 352 305.5 389> 546 127<352 399.5>
VStem: 83 151<249 249 249 386> 471 151<401 401>
LayerCount: 2
Fore
SplineSet
102 -41 m 1x78
 31 9 l 1
 110 103 l 1xb8
 93 141 83 201 83 259 c 0
 83 513 225 673 407 673 c 0
 464 673 511 656 547 624 c 1
 612 702 l 1
 682 652 l 1
 598 552 l 1
 614 516 622 461 622 406 c 0
 622 155 480 -12 298 -12 c 0
 244 -12 198 3 164 33 c 1
 102 -41 l 1x78
234 249 m 1
 436 517 l 2
 437 518 437 519 437 520 c 0
 437 530 410 546 386 546 c 0
 318 546 264 466 242 333 c 0
 237 303 235 275 234 249 c 1
318 115 m 0x78
 386 115 443 200 464 333 c 0
 468 358 470 381 471 401 c 1
 260 147 l 1
 274 126 293 115 318 115 c 0x78
EndSplineSet
Validated: 1
EndChar

StartChar: Otilde
Encoding: 213 213 83
Width: 600
GlyphClass: 2
Flags: HMW
HStem: -12 127<291.5 361.5 291.5 389> 544 127<342.5 413> 711 137<243 398 243 398 345 502>
VStem: 83 152<221.5 347.5 221.5 386.5> 470 152<317 441.5>
LayerCount: 2
Fore
SplineSet
243 711 m 1
 267 802 319 848 371 848 c 0
 425 848 453 802 484 802 c 0
 501 802 517 814 529 848 c 1
 604 848 l 1
 580 756 528 711 476 711 c 0
 422 711 394 757 363 757 c 0
 346 757 330 744 318 711 c 1
 243 711 l 1
298 -12 m 0
 166 -12 83 90 83 260 c 0
 83 513 224 671 406 671 c 0
 539 671 622 572 622 404 c 0
 622 154 480 -12 298 -12 c 0
318 115 m 0
 405 115 470 239 470 395 c 0
 470 488 440 544 386 544 c 0
 299 544 235 427 235 268 c 0
 235 175 265 115 318 115 c 0
EndSplineSet
Validated: 1
EndChar

StartChar: OE
Encoding: 338 338 84
Width: 600
GlyphClass: 2
Flags: HMW
HStem: 0 119<221 313 297 313 297 595> 0 124<445 595> 278 123<489 590 469 610> 537 123<510 670 510 510> 541 119<315 690 364 690>
VStem: 64 150<206.5 352.5 206.5 395.5>
LayerCount: 2
Fore
SplineSet
287 0 m 2x74
 155 0 64 86 64 261 c 0
 64 530 214 660 400 660 c 2
 690 660 l 1
 670 537 l 1
 510 537 l 1
 489 401 l 1
 610 401 l 1
 590 278 l 1
 469 278 l 1
 445 124 l 1
 615 124 l 1
 595 0 l 1
 287 0 l 2x74
297 119 m 2xac
 313 119 l 1
 380 541 l 1
 364 541 l 2
 266 541 214 448 214 257 c 0
 214 156 246 119 297 119 c 2xac
EndSplineSet
Validated: 1
EndChar

StartChar: P
Encoding: 80 80 85
Width: 600
GlyphClass: 2
Flags: HMW
HStem: 0 21G<74 74 74 221> 225 117<275 348 257 357> 543 117<307 389 307 307>
VStem: 495 147<428 494.5>
LayerCount: 2
Fore
SplineSet
74 0 m 1
 179 660 l 1
 417 660 l 2
 543 660 642 616 642 485 c 0
 642 306 501 225 348 225 c 2
 257 225 l 1
 221 0 l 1
 74 0 l 1
275 342 m 1
 357 342 l 2
 452 342 495 389 495 467 c 0
 495 522 458 543 389 543 c 2
 307 543 l 1
 275 342 l 1
EndSplineSet
Validated: 1
EndChar

StartChar: Thorn
Encoding: 222 222 86
Width: 600
GlyphClass: 2
Flags: HMW
HStem: 0 21G<73 73 73 220> 125 117<258 331 240 340> 443 117<309 372 290 400> 640 20G<178 325 325 325>
VStem: 478 147<328 394.5>
LayerCount: 2
Fore
SplineSet
73 0 m 1
 178 660 l 1
 325 660 l 1
 309 560 l 1
 400 560 l 2
 527 560 625 515 625 385 c 0
 625 205 485 125 331 125 c 2
 240 125 l 1
 220 0 l 1
 73 0 l 1
258 242 m 1
 340 242 l 2
 435 242 478 289 478 367 c 0
 478 422 441 443 372 443 c 2
 290 443 l 1
 258 242 l 1
EndSplineSet
Validated: 1
EndChar

StartChar: Q
Encoding: 81 81 87
Width: 600
GlyphClass: 2
Flags: HMW
HStem: -180 118<467.5 475.5> 545 127<338.5 410>
VStem: 81 152<221 345.5 221 386> 466 151<319 443>
LayerCount: 2
Fore
SplineSet
455 -180 m 0
 328 -180 252 -106 228 -3 c 1
 135 24 81 121 81 259 c 0
 81 513 220 672 403 672 c 0
 536 672 617 574 617 406 c 0
 617 202 520 47 382 0 c 1
 398 -48 444 -62 491 -62 c 0
 511 -62 531 -56 546 -49 c 1
 555 -159 l 1
 531 -171 496 -180 455 -180 c 0
315 115 m 0
 402 115 466 241 466 397 c 0
 466 489 437 545 383 545 c 0
 294 545 233 424 233 267 c 0
 233 175 261 115 315 115 c 0
EndSplineSet
Validated: 1
EndChar

StartChar: R
Encoding: 82 82 88
Width: 600
GlyphClass: 2
Flags: HMW
HStem: 0 21G<70 70 70 217 419 419 419 584> 239 117<273 332 255 345> 543 117<303 375 303 303>
VStem: 482 147<435 498>
LayerCount: 2
Fore
SplineSet
70 0 m 1
 175 660 l 1
 406 660 l 2
 530 660 629 619 629 490 c 0
 629 375 566 301 479 265 c 1
 584 0 l 1
 419 0 l 1
 332 239 l 1
 255 239 l 1
 217 0 l 1
 70 0 l 1
273 356 m 1
 345 356 l 2
 434 356 482 398 482 472 c 0
 482 524 444 543 375 543 c 2
 303 543 l 1
 273 356 l 1
EndSplineSet
Validated: 1
EndChar

StartChar: Racute
Encoding: 340 340 89
Width: 600
GlyphClass: 2
Flags: HMW
HStem: 0 21G<70 70 70 217 419 419 419 584> 238 117<273 332 255 345> 542 117<303 375 303 303> 709 121<340 596 440 457>
VStem: 482 146<433.5 496.5>
LayerCount: 2
Fore
SplineSet
340 709 m 1
 440 830 l 1
 596 830 l 1
 457 709 l 1
 340 709 l 1
70 0 m 1
 174 660 l 1
 405 660 l 2
 530 660 628 617 628 489 c 0
 628 374 566 300 479 264 c 1
 584 0 l 1
 419 0 l 1
 332 238 l 1
 255 238 l 1
 217 0 l 1
 70 0 l 1
273 355 m 1
 345 355 l 2
 434 355 482 397 482 470 c 0
 482 523 444 542 375 542 c 2
 303 542 l 1
 273 355 l 1
EndSplineSet
Validated: 1
EndChar

StartChar: Rcaron
Encoding: 344 344 90
Width: 600
GlyphClass: 2
Flags: HMW
HStem: 0 21G<70 70 70 217 419 419 419 584> 238 117<273 332 255 345> 542 117<303 375 303 303> 709 121<343 343 343 378 266 486>
VStem: 482 146<433.5 496.5>
LayerCount: 2
Fore
SplineSet
343 709 m 1
 266 830 l 1
 378 830 l 1
 423 768 l 1
 427 768 l 1
 489 830 l 1
 601 830 l 1
 486 709 l 1
 343 709 l 1
70 0 m 1
 174 660 l 1
 405 660 l 2
 530 660 628 617 628 489 c 0
 628 374 566 300 479 264 c 1
 584 0 l 1
 419 0 l 1
 332 238 l 1
 255 238 l 1
 217 0 l 1
 70 0 l 1
273 355 m 1
 345 355 l 2
 434 355 482 397 482 470 c 0
 482 523 444 542 375 542 c 2
 303 542 l 1
 273 355 l 1
EndSplineSet
Validated: 1
EndChar

StartChar: S
Encoding: 83 83 91
Width: 600
GlyphClass: 2
Flags: HMW
HStem: -12 127<291.5 358 291.5 385> 545 127<370 429>
VStem: 149 152<459.5 498 459.5 512.5> 429 155<166.5 206>
LayerCount: 2
Fore
SplineSet
296 -12 m 0
 208 -12 123 20 63 83 c 1
 164 184 l 1
 207 143 263 115 320 115 c 0
 396 115 429 145 429 188 c 0
 429 224 395 238 340 260 c 2
 262 297 l 1
 201 321 149 371 149 451 c 0
 149 574 268 672 421 672 c 0
 500 672 575 642 625 585 c 1
 535 492 l 1
 495 526 457 545 401 545 c 0
 339 545 301 519 301 477 c 0
 301 442 341 427 396 406 c 1
 470 371 l 1
 541 343 584 295 584 219 c 0
 584 97 474 -12 296 -12 c 0
EndSplineSet
Validated: 1
EndChar

StartChar: Sacute
Encoding: 346 346 92
Width: 600
GlyphClass: 2
Flags: HMW
HStem: -12 127<291.5 358 291.5 385> 544 127<370 429> 709 121<345 600 444 462>
VStem: 149 152<458.5 496.5 458.5 511> 429 155<166.5 206>
LayerCount: 2
Fore
SplineSet
345 709 m 1
 444 830 l 1
 600 830 l 1
 462 709 l 1
 345 709 l 1
296 -12 m 0
 208 -12 123 20 63 83 c 1
 164 184 l 1
 207 143 263 115 320 115 c 0
 396 115 429 145 429 188 c 0
 429 224 395 237 340 259 c 2
 262 296 l 1
 201 320 149 370 149 450 c 0
 149 572 268 671 421 671 c 0
 500 671 574 640 624 584 c 1
 535 491 l 1
 495 524 457 544 401 544 c 0
 339 544 301 517 301 476 c 0
 301 441 341 426 396 405 c 1
 470 370 l 1
 540 342 584 295 584 219 c 0
 584 97 474 -12 296 -12 c 0
EndSplineSet
Validated: 1
EndChar

StartChar: Scaron
Encoding: 352 352 93
Width: 600
GlyphClass: 2
Flags: HMW
HStem: -12 127<291.5 358 291.5 385> 544 127<370 429> 709 121<348 348 348 383 271 491>
VStem: 149 152<458.5 496.5 458.5 511> 429 155<166.5 206>
LayerCount: 2
Fore
SplineSet
348 709 m 1
 271 830 l 1
 383 830 l 1
 427 768 l 1
 431 768 l 1
 494 830 l 1
 606 830 l 1
 491 709 l 1
 348 709 l 1
296 -12 m 0
 208 -12 123 20 63 83 c 1
 164 184 l 1
 207 143 263 115 320 115 c 0
 396 115 429 145 429 188 c 0
 429 224 395 237 340 259 c 2
 262 296 l 1
 201 320 149 370 149 450 c 0
 149 572 268 671 421 671 c 0
 500 671 574 640 624 584 c 1
 535 491 l 1
 495 524 457 544 401 544 c 0
 339 544 301 517 301 476 c 0
 301 441 341 426 396 405 c 1
 470 370 l 1
 540 342 584 295 584 219 c 0
 584 97 474 -12 296 -12 c 0
EndSplineSet
Validated: 1
EndChar

StartChar: Scedilla
Encoding: 350 350 94
Width: 600
GlyphClass: 2
Flags: HMW
HStem: -223 59<173 175> -10 21G<255 255> 545 127<370 429>
VStem: 149 152<459.5 498 459.5 512.5> 263 106<-130.5 -108> 429 155<166.5 206>
LayerCount: 2
Fore
SplineSet
175 -223 m 1xf4
 173 -164 l 1
 225 -159 263 -145 263 -116 c 0
 263 -100 250 -87 212 -77 c 1
 255 -12 l 1xec
 183 -3 114 30 63 83 c 1
 164 184 l 1
 207 143 263 115 320 115 c 0
 396 115 429 145 429 188 c 0
 429 224 395 238 340 260 c 2
 262 297 l 1
 201 321 149 371 149 451 c 0
 149 574 268 672 421 672 c 0
 500 672 575 642 625 585 c 1
 535 492 l 1
 495 526 457 545 401 545 c 0
 339 545 301 519 301 477 c 0
 301 442 341 427 396 406 c 1xf4
 470 371 l 1
 541 343 584 295 584 219 c 0
 584 109 492 8 342 -9 c 1
 322 -44 l 1
 350 -54 369 -73 369 -107 c 0xec
 369 -185 277 -218 175 -223 c 1xf4
EndSplineSet
Validated: 1
EndChar

StartChar: Scircumflex
Encoding: 348 348 95
Width: 600
GlyphClass: 2
Flags: HMW
HStem: -12 127<291.5 358 291.5 385> 544 127<370 429> 709 121<252 510 252 510 475 475 475 510 367 587>
VStem: 149 152<458.5 496.5 458.5 511> 429 155<166.5 206>
LayerCount: 2
Fore
SplineSet
252 709 m 1
 367 830 l 1
 510 830 l 1
 587 709 l 1
 475 709 l 1
 431 771 l 1
 427 771 l 1
 364 709 l 1
 252 709 l 1
296 -12 m 0
 208 -12 123 20 63 83 c 1
 164 184 l 1
 207 143 263 115 320 115 c 0
 396 115 429 145 429 188 c 0
 429 224 395 237 340 259 c 2
 262 296 l 1
 201 320 149 370 149 450 c 0
 149 572 268 671 421 671 c 0
 500 671 574 640 624 584 c 1
 535 491 l 1
 495 524 457 544 401 544 c 0
 339 544 301 517 301 476 c 0
 301 441 341 426 396 405 c 1
 470 370 l 1
 540 342 584 295 584 219 c 0
 584 97 474 -12 296 -12 c 0
EndSplineSet
Validated: 1
EndChar

StartChar: uni1E60
Encoding: 7776 7776 96
Width: 600
GlyphClass: 2
Flags: HMW
HStem: -12 127<291.5 358 291.5 385> 544 127<370 429> 709 154<417 447>
VStem: 149 152<459 498 459 512> 345 173<771.5 801> 429 155<166.5 206>
LayerCount: 2
Fore
SplineSet
419 709 m 0xf8
 375 709 345 737 345 776 c 0
 345 826 390 863 444 863 c 0
 489 863 518 836 518 797 c 0
 518 746 475 709 419 709 c 0xf8
296 -12 m 0
 208 -12 123 20 63 83 c 1
 164 184 l 1
 207 143 263 115 320 115 c 0
 396 115 429 145 429 188 c 0
 429 224 395 237 340 259 c 2
 262 296 l 1
 201 320 149 371 149 451 c 0
 149 573 268 671 421 671 c 0
 500 671 575 641 624 584 c 1
 535 491 l 1
 495 525 457 544 401 544 c 0
 339 544 301 519 301 477 c 0
 301 441 341 426 396 405 c 1
 470 370 l 1
 540 342 584 295 584 219 c 0xf4
 584 97 474 -12 296 -12 c 0
EndSplineSet
Validated: 1
EndChar

StartChar: uni1E9E
Encoding: 7838 7838 97
Width: 600
GlyphClass: 2
Flags: HMW
HStem: -12 119<383.5 404 383.5 459> 0 21G<64 215 64 64> 0 53<64 249> 553 119<358.5 407>
VStem: 441 155<169.5 208.5>
LayerCount: 2
Fore
SplineSet
392 -12 m 0x98
 318 -12 272 18 249 53 c 1x38
 339 142 l 1
 358 116 376 107 391 107 c 0
 417 107 441 149 441 190 c 0x98
 441 227 412 261 353 279 c 1
 357 365 l 1
 452 493 l 1
 446 525 426 553 388 553 c 0
 329 553 296 511 283 427 c 2
 215 0 l 1
 64 0 l 1x58
 135 447 l 2
 155 572 239 672 410 672 c 0
 525 672 594 598 597 488 c 1
 505 363 l 1
 553 336 596 289 596 209 c 0
 596 94 526 -12 392 -12 c 0x98
EndSplineSet
Validated: 1
EndChar

StartChar: T
Encoding: 84 84 98
Width: 600
GlyphClass: 2
Flags: HMW
HStem: 0 21G<226 226 226 374> 536 124<136 311 116 674 459 459 459 654>
VStem: 116 558<536 660>
LayerCount: 2
Fore
SplineSet
226 0 m 1
 311 536 l 1
 116 536 l 1
 136 660 l 1
 674 660 l 1
 654 536 l 1
 459 536 l 1
 374 0 l 1
 226 0 l 1
EndSplineSet
Validated: 1
EndChar

StartChar: Tcaron
Encoding: 356 356 99
Width: 600
GlyphClass: 2
Flags: HMW
HStem: 0 21G<226 226 226 374> 535 124<135 311 116 673 459 459 459 654> 709 121<340 340 340 376 263 484>
VStem: 116 557<535 659>
LayerCount: 2
Fore
SplineSet
340 709 m 1
 263 830 l 1
 376 830 l 1
 420 768 l 1
 424 768 l 1
 486 830 l 1
 599 830 l 1
 484 709 l 1
 340 709 l 1
226 0 m 1
 311 535 l 1
 116 535 l 1
 135 660 l 1
 673 660 l 1
 654 535 l 1
 459 535 l 1
 374 0 l 1
 226 0 l 1
EndSplineSet
Validated: 1
EndChar

StartChar: uni0162
Encoding: 354 354 100
Width: 600
GlyphClass: 2
Flags: HMW
HStem: -224 60<170 172> 0 21G<226 258 226 226 344 344 344 374> 536 124<136 311 116 674 459 459 459 654>
VStem: 259 107<-130.5 -108>
LayerCount: 2
Fore
SplineSet
172 -224 m 1
 170 -164 l 1
 221 -159 259 -145 259 -116 c 0
 259 -100 247 -87 208 -77 c 1
 258 0 l 1
 226 0 l 1
 311 536 l 1
 116 536 l 1
 136 660 l 1
 674 660 l 1
 654 536 l 1
 459 536 l 1
 374 0 l 1
 344 0 l 1
 319 -44 l 1
 346 -54 366 -73 366 -107 c 0
 366 -185 273 -218 172 -224 c 1
EndSplineSet
Validated: 1
EndChar

StartChar: U
Encoding: 85 85 101
Width: 600
GlyphClass: 2
Flags: HMW
HStem: -12 127<289 351 289 379> 640 20G<168 316 316 316 499 640 640 640>
VStem: 98 148
LayerCount: 2
Fore
SplineSet
300 -12 m 0
 165 -12 98 56 98 183 c 0
 98 205 100 229 104 254 c 2
 168 660 l 1
 316 660 l 1
 249 239 l 2
 247 224 245 211 245 199 c 0
 245 145 269 115 320 115 c 0
 382 115 419 159 432 239 c 2
 499 660 l 1
 640 660 l 1
 576 254 l 2
 549 82 458 -12 300 -12 c 0
EndSplineSet
Validated: 1
EndChar

StartChar: Uacute
Encoding: 218 218 102
Width: 600
GlyphClass: 2
Flags: HMW
HStem: -12 127<289 351 289 379> 709 121<337 593 437 454>
VStem: 98 148
LayerCount: 2
Fore
SplineSet
337 709 m 1
 437 830 l 1
 593 830 l 1
 454 709 l 1
 337 709 l 1
300 -12 m 0
 165 -12 98 56 98 182 c 0
 98 204 100 228 104 253 c 2
 168 660 l 1
 316 660 l 1
 249 239 l 2
 247 224 245 210 245 198 c 0
 245 143 269 115 320 115 c 0
 382 115 419 158 432 239 c 2
 499 660 l 1
 640 660 l 1
 576 253 l 2
 549 82 458 -12 300 -12 c 0
EndSplineSet
Validated: 1
EndChar

StartChar: Ubreve
Encoding: 364 364 103
Width: 600
GlyphClass: 2
Flags: HMW
HStem: -12 127<289 351 289 379> 709 74<407 441 407 455.5>
VStem: 98 148
LayerCount: 2
Fore
SplineSet
412 709 m 0
 328 709 294 756 294 822 c 0
 294 825 294 827 294 830 c 1
 375 830 l 1
 377 804 390 783 424 783 c 0
 458 783 477 804 487 830 c 1
 568 830 l 1
 549 759 499 709 412 709 c 0
300 -12 m 0
 165 -12 98 56 98 182 c 0
 98 204 100 228 104 253 c 2
 168 660 l 1
 316 660 l 1
 249 239 l 2
 247 224 245 210 245 198 c 0
 245 143 269 115 320 115 c 0
 382 115 419 158 432 239 c 2
 499 660 l 1
 640 660 l 1
 576 253 l 2
 549 82 458 -12 300 -12 c 0
EndSplineSet
Validated: 1
EndChar

StartChar: uni01D3
Encoding: 467 467 104
Width: 600
GlyphClass: 2
Flags: HMW
HStem: -12 127<289 351 289 379> 709 121<340 340 340 376 263 484>
VStem: 98 148
LayerCount: 2
Fore
SplineSet
340 709 m 1
 263 830 l 1
 376 830 l 1
 420 768 l 1
 424 768 l 1
 486 830 l 1
 599 830 l 1
 484 709 l 1
 340 709 l 1
300 -12 m 0
 165 -12 98 56 98 182 c 0
 98 204 100 228 104 253 c 2
 168 660 l 1
 316 660 l 1
 249 239 l 2
 247 224 245 210 245 198 c 0
 245 143 269 115 320 115 c 0
 382 115 419 158 432 239 c 2
 499 660 l 1
 640 660 l 1
 576 253 l 2
 549 82 458 -12 300 -12 c 0
EndSplineSet
Validated: 1
EndChar

StartChar: Ucircumflex
Encoding: 219 219 105
Width: 600
GlyphClass: 2
Flags: HMW
HStem: -12 127<289 351 289 379> 709 121<244 503 244 503 467 467 467 503 359 580>
VStem: 98 148
LayerCount: 2
Fore
SplineSet
244 709 m 1
 359 830 l 1
 503 830 l 1
 580 709 l 1
 467 709 l 1
 424 771 l 1
 420 771 l 1
 357 709 l 1
 244 709 l 1
300 -12 m 0
 165 -12 98 56 98 182 c 0
 98 204 100 228 104 253 c 2
 168 660 l 1
 316 660 l 1
 249 239 l 2
 247 224 245 210 245 198 c 0
 245 143 269 115 320 115 c 0
 382 115 419 158 432 239 c 2
 499 660 l 1
 640 660 l 1
 576 253 l 2
 549 82 458 -12 300 -12 c 0
EndSplineSet
Validated: 1
EndChar

StartChar: Udieresis
Encoding: 220 220 106
Width: 600
GlyphClass: 2
Flags: HMW
HStem: -12 127<289 351 289 379> 708 140<312.5 336 510.5 534>
VStem: 98 148 253 142<765.5 790.5> 451 142<765.5 790.5>
LayerCount: 2
Fore
SplineSet
313 708 m 0
 276 708 253 733 253 768 c 0
 253 813 290 848 335 848 c 0
 372 848 395 823 395 788 c 0
 395 743 359 708 313 708 c 0
511 708 m 0
 474 708 451 733 451 768 c 0
 451 813 488 848 533 848 c 0
 570 848 593 823 593 788 c 0
 593 743 557 708 511 708 c 0
300 -12 m 0xe0
 165 -12 98 56 98 183 c 0
 98 205 100 229 104 254 c 2
 168 660 l 1
 316 660 l 1
 249 239 l 2
 247 224 245 210 245 198 c 0
 245 143 269 115 320 115 c 0
 382 115 419 158 432 239 c 2
 499 660 l 1
 640 660 l 1
 576 254 l 2
 549 82 458 -12 300 -12 c 0xe0
EndSplineSet
Validated: 1
EndChar

StartChar: Ugrave
Encoding: 217 217 107
Width: 600
GlyphClass: 2
Flags: HMW
HStem: -12 127<289 351 289 379> 709 121<370 370 370 425 269 487>
VStem: 98 148
LayerCount: 2
Fore
SplineSet
370 709 m 1
 269 830 l 1
 425 830 l 1
 487 709 l 1
 370 709 l 1
300 -12 m 0
 165 -12 98 56 98 182 c 0
 98 204 100 228 104 253 c 2
 168 660 l 1
 316 660 l 1
 249 239 l 2
 247 224 245 210 245 198 c 0
 245 143 269 115 320 115 c 0
 382 115 419 158 432 239 c 2
 499 660 l 1
 640 660 l 1
 576 253 l 2
 549 82 458 -12 300 -12 c 0
EndSplineSet
Validated: 1
EndChar

StartChar: Uhungarumlaut
Encoding: 368 368 108
Width: 600
GlyphClass: 2
Flags: HMW
HStem: -12 127<289 351 289 379> 709 121<275 482 357 374 454 482 537 553 454 454>
VStem: 98 148
LayerCount: 2
Fore
SplineSet
275 709 m 1
 357 830 l 1
 482 830 l 1
 374 709 l 1
 275 709 l 1
454 709 m 1
 537 830 l 1
 662 830 l 1
 553 709 l 1
 454 709 l 1
300 -12 m 0
 165 -12 98 56 98 182 c 0
 98 204 100 228 104 253 c 2
 168 660 l 1
 316 660 l 1
 249 239 l 2
 247 224 245 210 245 198 c 0
 245 143 269 115 320 115 c 0
 382 115 419 158 432 239 c 2
 499 660 l 1
 640 660 l 1
 576 253 l 2
 549 82 458 -12 300 -12 c 0
EndSplineSet
Validated: 1
EndChar

StartChar: Umacron
Encoding: 362 362 109
Width: 600
GlyphClass: 2
Flags: HMW
HStem: -12 127<289 351 289 379> 728 93<274 571 289 556>
VStem: 98 148
LayerCount: 2
Fore
SplineSet
274 728 m 1
 289 821 l 1
 571 821 l 1
 556 728 l 1
 274 728 l 1
300 -12 m 0
 165 -12 98 56 98 183 c 0
 98 205 100 229 104 254 c 2
 168 660 l 1
 316 660 l 1
 249 239 l 2
 247 224 245 211 245 199 c 0
 245 145 269 115 320 115 c 0
 382 115 419 159 432 239 c 2
 499 660 l 1
 640 660 l 1
 576 254 l 2
 549 82 458 -12 300 -12 c 0
EndSplineSet
Validated: 1
EndChar

StartChar: Uogonek
Encoding: 370 370 110
Width: 600
GlyphClass: 2
Flags: HMW
HStem: -225 95<260 345.5> -10 21G -10 125 640 20G<168 316 316 316 499 640 640 640>
VStem: 98 147 188 115<-109 -108.5>
LayerCount: 2
Fore
SplineSet
289 -225 m 0xd4
 231 -225 188 -195 188 -143 c 0xd4
 188 -74 251 -32 272 -12 c 1
 155 -4 98 67 98 184 c 0
 98 206 100 229 104 254 c 2
 168 660 l 1
 316 660 l 1
 249 239 l 2
 247 224 245 211 245 199 c 0
 245 145 269 115 319 115 c 0xb8
 381 115 419 159 432 239 c 2
 499 660 l 1
 640 660 l 1
 576 254 l 2
 556 128 501 48 413 9 c 0
 318 -33 303 -71 303 -98 c 0
 303 -120 320 -130 339 -130 c 0
 352 -130 367 -123 377 -116 c 1
 399 -190 l 1
 371 -210 324 -225 289 -225 c 0xd4
EndSplineSet
Validated: 1
EndChar

StartChar: Uring
Encoding: 366 366 111
Width: 600
GlyphClass: 2
Flags: HMW
HStem: -12 127<289 351 289 379> 704 55<410 432.5 410 449> 847 55<421 444>
VStem: 98 148 313 72<784.5 811 784.5 822> 468 74<794.5 821>
LayerCount: 2
Fore
SplineSet
412 704 m 0
 351 704 313 737 313 789 c 0
 313 855 369 902 443 902 c 0
 503 902 542 868 542 817 c 0
 542 749 486 704 412 704 c 0
420 759 m 0
 445 759 468 779 468 810 c 0
 468 832 454 847 434 847 c 0
 408 847 385 826 385 796 c 0
 385 773 400 759 420 759 c 0
300 -12 m 0
 165 -12 98 56 98 182 c 0
 98 204 100 228 104 253 c 2
 168 660 l 1
 316 660 l 1
 249 239 l 2
 247 224 245 210 245 198 c 0
 245 143 269 115 320 115 c 0
 382 115 419 158 432 239 c 2
 499 660 l 1
 640 660 l 1
 576 253 l 2
 549 82 458 -12 300 -12 c 0
EndSplineSet
Validated: 1
EndChar

StartChar: Utilde
Encoding: 360 360 112
Width: 600
GlyphClass: 2
Flags: HMW
HStem: -12 127<289 351 289 379> 711 137<243 398 243 398 345 502>
VStem: 98 148
LayerCount: 2
Fore
SplineSet
243 711 m 1
 267 802 319 848 371 848 c 0
 425 848 453 802 484 802 c 0
 501 802 517 814 529 848 c 1
 604 848 l 1
 580 756 528 711 476 711 c 0
 422 711 394 757 363 757 c 0
 346 757 330 744 318 711 c 1
 243 711 l 1
300 -12 m 0
 165 -12 98 56 98 183 c 0
 98 205 100 229 104 254 c 2
 168 660 l 1
 316 660 l 1
 249 239 l 2
 247 224 245 210 245 198 c 0
 245 143 269 115 320 115 c 0
 382 115 419 158 432 239 c 2
 499 660 l 1
 640 660 l 1
 576 254 l 2
 549 82 458 -12 300 -12 c 0
EndSplineSet
Validated: 1
EndChar

StartChar: V
Encoding: 86 86 113
Width: 600
GlyphClass: 2
Flags: HMW
HStem: 0 139<212 327 323 327 323 389> 640 20G<120 275 275 275 540 690 690 690>
VStem: 120 570<660 660>
LayerCount: 2
Fore
SplineSet
212 0 m 1
 120 660 l 1
 275 660 l 1
 306 351 l 2
 313 279 316 212 323 139 c 1
 327 139 l 1
 359 212 385 279 414 351 c 2
 540 660 l 1
 690 660 l 1
 389 0 l 1
 212 0 l 1
EndSplineSet
Validated: 1
EndChar

StartChar: W
Encoding: 87 87 114
Width: 600
GlyphClass: 2
Flags: HMW
HStem: 0 139<91 204 201 204 201 242 450 454> 336 156<352 355 352 352> 640 20G<109 259 259 259 561 701 701 701>
VStem: 100 101 353 83 357 93
LayerCount: 2
Fore
SplineSet
91 0 m 1xf4
 109 660 l 1
 259 660 l 1
 224 307 l 2
 216 250 209 195 201 139 c 1
 204 139 l 1
 223 195 246 251 266 307 c 2
 340 492 l 1
 429 492 l 1xf8
 443 307 l 2
 444 253 449 196 450 139 c 1
 454 139 l 1
 465 196 474 252 486 307 c 2
 561 660 l 1
 701 660 l 1
 515 0 l 1
 361 0 l 1
 353 210 l 2
 353 225 352 240 352 256 c 0
 352 283 353 311 355 336 c 1
 352 336 l 1
 342 296 328 251 314 210 c 2
 242 0 l 1
 91 0 l 1xf4
EndSplineSet
Validated: 1
EndChar

StartChar: Wacute
Encoding: 7810 7810 115
Width: 600
GlyphClass: 2
Flags: HMW
HStem: 0 139<91 204 201 204 201 242 450 454> 335 156<352 355 352 352> 709 121<337 593 437 454>
VStem: 100 102 353 83 357 93
LayerCount: 2
Fore
SplineSet
337 709 m 1xf4
 437 830 l 1
 593 830 l 1
 454 709 l 1
 337 709 l 1xf4
91 0 m 1
 108 660 l 1
 258 660 l 1
 224 307 l 2
 216 250 210 195 202 139 c 1
 204 139 l 1
 223 195 246 251 266 307 c 2
 340 491 l 1
 429 491 l 1xf8
 443 307 l 2
 444 253 449 196 450 139 c 1
 454 139 l 1
 465 196 475 253 486 307 c 2
 561 660 l 1
 700 660 l 1
 515 0 l 1
 361 0 l 1
 353 209 l 2
 352 224 352 239 352 254 c 0
 352 282 353 309 355 335 c 1
 352 335 l 1
 342 295 328 250 314 209 c 2
 242 0 l 1
 91 0 l 1
EndSplineSet
Validated: 1
EndChar

StartChar: Wcircumflex
Encoding: 372 372 116
Width: 600
GlyphClass: 2
Flags: HMW
HStem: 0 139<91 204 201 204 201 242 450 454> 335 156<352 355 352 352> 709 121<244 503 244 503 467 467 467 503 359 580>
VStem: 100 102 353 83 357 93
LayerCount: 2
Fore
SplineSet
244 709 m 1xf4
 359 830 l 1
 503 830 l 1
 580 709 l 1
 467 709 l 1
 424 771 l 1
 420 771 l 1
 357 709 l 1
 244 709 l 1xf4
91 0 m 1
 108 660 l 1
 258 660 l 1
 224 307 l 2
 216 250 210 195 202 139 c 1
 204 139 l 1
 223 195 246 251 266 307 c 2
 340 491 l 1
 429 491 l 1xf8
 443 307 l 2
 444 253 449 196 450 139 c 1
 454 139 l 1
 465 196 475 253 486 307 c 2
 561 660 l 1
 700 660 l 1
 515 0 l 1
 361 0 l 1
 353 209 l 2
 352 224 352 239 352 254 c 0
 352 282 353 309 355 335 c 1
 352 335 l 1
 342 295 328 250 314 209 c 2
 242 0 l 1
 91 0 l 1
EndSplineSet
Validated: 1
EndChar

StartChar: Wdieresis
Encoding: 7812 7812 117
Width: 600
GlyphClass: 2
Flags: HMW
HStem: 0 139<91 204 201 204 201 242 450 454> 335 156<352 355 352 352> 708 140<312.5 336 510.5 534>
VStem: 100 102 253 142<765.5 790.5> 353 83 357 93 451 142<765.5 790.5>
LayerCount: 2
Fore
SplineSet
313 708 m 0xf9
 276 708 253 733 253 768 c 0
 253 813 290 848 335 848 c 0
 372 848 395 823 395 788 c 0
 395 743 359 708 313 708 c 0xf9
511 708 m 0
 474 708 451 733 451 768 c 0
 451 813 488 848 533 848 c 0
 570 848 593 823 593 788 c 0
 593 743 557 708 511 708 c 0
91 0 m 1
 108 660 l 1
 258 660 l 1
 224 307 l 2
 216 250 210 195 202 139 c 1
 204 139 l 1
 223 195 246 251 266 307 c 2
 340 491 l 1
 429 491 l 1xf4
 443 307 l 2
 444 253 449 196 450 139 c 1
 454 139 l 1
 465 196 474 252 486 307 c 2
 561 660 l 1
 700 660 l 1
 515 0 l 1
 361 0 l 1
 353 209 l 2
 352 224 352 239 352 254 c 0
 352 282 353 310 355 335 c 1
 352 335 l 1
 342 296 328 250 314 209 c 2xf2
 242 0 l 1
 91 0 l 1
EndSplineSet
Validated: 1
EndChar

StartChar: Wgrave
Encoding: 7808 7808 118
Width: 600
GlyphClass: 2
Flags: HMW
HStem: 0 139<91 204 201 204 201 242 450 454> 335 156<352 355 352 352> 709 121<370 370 370 425 269 487>
VStem: 100 102 353 83 357 93
LayerCount: 2
Fore
SplineSet
370 709 m 1xf4
 269 830 l 1
 425 830 l 1
 487 709 l 1
 370 709 l 1xf4
91 0 m 1
 108 660 l 1
 258 660 l 1
 224 307 l 2
 216 250 210 195 202 139 c 1
 204 139 l 1
 223 195 246 251 266 307 c 2
 340 491 l 1
 429 491 l 1xf8
 443 307 l 2
 444 253 449 196 450 139 c 1
 454 139 l 1
 465 196 475 253 486 307 c 2
 561 660 l 1
 700 660 l 1
 515 0 l 1
 361 0 l 1
 353 209 l 2
 352 224 352 239 352 254 c 0
 352 282 353 309 355 335 c 1
 352 335 l 1
 342 295 328 250 314 209 c 2
 242 0 l 1
 91 0 l 1
EndSplineSet
Validated: 1
EndChar

StartChar: X
Encoding: 88 88 119
Width: 600
GlyphClass: 2
Flags: HMW
HStem: 0 21G<18 18 18 175 418 418 418 582> 640 20G<134 299 299 299 518 676 676 676>
VStem: 18 658
LayerCount: 2
Fore
SplineSet
18 0 m 1
 262 339 l 1
 134 660 l 1
 299 660 l 1
 342 534 l 2
 352 504 361 470 375 428 c 1
 379 428 l 1
 401 470 421 504 440 534 c 2
 518 660 l 1
 676 660 l 1
 445 332 l 1
 582 0 l 1
 418 0 l 1
 368 136 l 2
 356 170 345 204 334 244 c 1
 330 244 l 1
 307 204 287 170 265 136 c 2
 175 0 l 1
 18 0 l 1
EndSplineSet
Validated: 1
EndChar

StartChar: Y
Encoding: 89 89 120
Width: 600
GlyphClass: 2
Flags: HMW
HStem: 0 21G<226 226 226 374> 640 20G<121 279 279 279 535 689 689 689>
VStem: 121 568<660 660>
LayerCount: 2
Fore
SplineSet
226 0 m 1
 261 223 l 1
 121 660 l 1
 279 660 l 1
 319 500 l 2
 332 450 343 402 354 349 c 1
 358 349 l 1
 388 402 414 450 443 500 c 2
 535 660 l 1
 689 660 l 1
 409 223 l 1
 374 0 l 1
 226 0 l 1
EndSplineSet
Validated: 1
EndChar

StartChar: Yacute
Encoding: 221 221 121
Width: 600
GlyphClass: 2
Flags: HMW
HStem: 0 21G<226 226 226 374> 709 121<337 593 437 454>
VStem: 120 568<659 659>
LayerCount: 2
Fore
SplineSet
337 709 m 1
 437 830 l 1
 593 830 l 1
 454 709 l 1
 337 709 l 1
226 0 m 1
 261 223 l 1
 120 660 l 1
 279 660 l 1
 319 499 l 2
 332 449 343 401 354 349 c 1
 358 349 l 1
 388 401 414 449 443 499 c 2
 535 660 l 1
 688 660 l 1
 409 223 l 1
 374 0 l 1
 226 0 l 1
EndSplineSet
Validated: 1
EndChar

StartChar: Ycircumflex
Encoding: 374 374 122
Width: 600
GlyphClass: 2
Flags: HMW
HStem: 0 21G<226 226 226 374> 709 121<244 503 244 503 467 467 467 503 359 580>
VStem: 120 568<659 659>
LayerCount: 2
Fore
SplineSet
244 709 m 1
 359 830 l 1
 503 830 l 1
 580 709 l 1
 467 709 l 1
 424 771 l 1
 420 771 l 1
 357 709 l 1
 244 709 l 1
226 0 m 1
 261 223 l 1
 120 660 l 1
 279 660 l 1
 319 499 l 2
 332 449 343 401 354 349 c 1
 358 349 l 1
 388 401 414 449 443 499 c 2
 535 660 l 1
 688 660 l 1
 409 223 l 1
 374 0 l 1
 226 0 l 1
EndSplineSet
Validated: 1
EndChar

StartChar: Ydieresis
Encoding: 376 376 123
Width: 600
GlyphClass: 2
Flags: HMW
HStem: 0 21G<226 226 226 374> 708 140<312.5 336 510.5 534>
VStem: 253 142<765.5 790.5> 451 142<765.5 790.5>
LayerCount: 2
Fore
SplineSet
313 708 m 0
 276 708 253 733 253 768 c 0
 253 813 290 848 335 848 c 0
 372 848 395 823 395 788 c 0
 395 743 359 708 313 708 c 0
511 708 m 0
 474 708 451 733 451 768 c 0
 451 813 488 848 533 848 c 0
 570 848 593 823 593 788 c 0
 593 743 557 708 511 708 c 0
226 0 m 1
 261 223 l 1
 120 660 l 1
 279 660 l 1
 319 499 l 2
 332 449 343 401 354 349 c 1
 358 349 l 1
 388 401 414 449 443 499 c 2
 535 660 l 1
 688 660 l 1
 409 223 l 1
 374 0 l 1
 226 0 l 1
EndSplineSet
Validated: 1
EndChar

StartChar: uni1E8E
Encoding: 7822 7822 124
Width: 600
GlyphClass: 2
Flags: HMW
HStem: 0 21G<226 226 226 374> 709 154<410 439>
VStem: 338 173<771 801>
LayerCount: 2
Fore
SplineSet
412 709 m 0
 368 709 338 737 338 776 c 0
 338 826 383 863 437 863 c 0
 481 863 511 835 511 796 c 0
 511 746 466 709 412 709 c 0
226 0 m 1
 261 223 l 1
 120 660 l 1
 279 660 l 1
 319 499 l 2
 332 449 343 401 354 349 c 1
 358 349 l 1
 388 401 414 449 443 499 c 2
 535 660 l 1
 688 660 l 1
 409 223 l 1
 374 0 l 1
 226 0 l 1
EndSplineSet
Validated: 1
EndChar

StartChar: Ygrave
Encoding: 7922 7922 125
Width: 600
GlyphClass: 2
Flags: HMW
HStem: 0 21G<226 226 226 374> 709 121<370 370 370 425 269 487>
VStem: 120 568<659 659>
LayerCount: 2
Fore
SplineSet
370 709 m 1
 269 830 l 1
 425 830 l 1
 487 709 l 1
 370 709 l 1
226 0 m 1
 261 223 l 1
 120 660 l 1
 279 660 l 1
 319 499 l 2
 332 449 343 401 354 349 c 1
 358 349 l 1
 388 401 414 449 443 499 c 2
 535 660 l 1
 688 660 l 1
 409 223 l 1
 374 0 l 1
 226 0 l 1
EndSplineSet
Validated: 1
EndChar

StartChar: uni1EF8
Encoding: 7928 7928 126
Width: 600
GlyphClass: 2
Flags: HMW
HStem: 0 21G<226 226 226 374> 711 137<243 398 243 398 345 502>
VStem: 120 568<659 659>
LayerCount: 2
Fore
SplineSet
243 711 m 1
 267 802 319 848 371 848 c 0
 425 848 453 802 484 802 c 0
 501 802 517 814 529 848 c 1
 604 848 l 1
 580 756 528 711 476 711 c 0
 422 711 394 757 363 757 c 0
 346 757 330 744 318 711 c 1
 243 711 l 1
226 0 m 1
 261 223 l 1
 120 660 l 1
 279 660 l 1
 319 499 l 2
 332 449 343 401 354 349 c 1
 358 349 l 1
 388 401 414 449 443 499 c 2
 535 660 l 1
 688 660 l 1
 409 223 l 1
 374 0 l 1
 226 0 l 1
EndSplineSet
Validated: 1
EndChar

StartChar: Z
Encoding: 90 90 127
Width: 600
GlyphClass: 2
Flags: HMW
HStem: 0 124<258 547> 537 123<190 447 170 648>
VStem: 56 592
LayerCount: 2
Fore
SplineSet
56 0 m 1
 70 89 l 1
 447 537 l 1
 170 537 l 1
 190 660 l 1
 648 660 l 1
 633 571 l 1
 258 124 l 1
 567 124 l 1
 547 0 l 1
 56 0 l 1
EndSplineSet
Validated: 1
EndChar

StartChar: Zacute
Encoding: 377 377 128
Width: 600
GlyphClass: 2
Flags: HMW
HStem: 0 124<258 547> 536 123<189 447 170 647> 709 121<352 607 451 469>
VStem: 56 591
LayerCount: 2
Fore
SplineSet
352 709 m 1
 451 830 l 1
 607 830 l 1
 469 709 l 1
 352 709 l 1
56 0 m 1
 70 89 l 1
 447 536 l 1
 170 536 l 1
 189 660 l 1
 647 660 l 1
 633 570 l 1
 258 124 l 1
 567 124 l 1
 547 0 l 1
 56 0 l 1
EndSplineSet
Validated: 1
EndChar

StartChar: Zcaron
Encoding: 381 381 129
Width: 600
GlyphClass: 2
Flags: HMW
HStem: 0 124<258 547> 536 123<189 447 170 647> 709 121<355 355 355 390 278 498>
VStem: 56 591
LayerCount: 2
Fore
SplineSet
355 709 m 1
 278 830 l 1
 390 830 l 1
 434 768 l 1
 438 768 l 1
 501 830 l 1
 613 830 l 1
 498 709 l 1
 355 709 l 1
56 0 m 1
 70 89 l 1
 447 536 l 1
 170 536 l 1
 189 660 l 1
 647 660 l 1
 633 570 l 1
 258 124 l 1
 567 124 l 1
 547 0 l 1
 56 0 l 1
EndSplineSet
Validated: 1
EndChar

StartChar: Zdotaccent
Encoding: 379 379 130
Width: 600
GlyphClass: 2
Flags: HMW
HStem: 0 124<258 547> 536 123<189 447 170 647> 709 154<424 454>
VStem: 352 173<771.5 801>
LayerCount: 2
Fore
SplineSet
426 709 m 0
 382 709 352 737 352 776 c 0
 352 826 397 863 451 863 c 0
 496 863 525 836 525 797 c 0
 525 746 482 709 426 709 c 0
56 0 m 1
 70 89 l 1
 447 536 l 1
 170 536 l 1
 189 660 l 1
 647 660 l 1
 633 570 l 1
 258 124 l 1
 567 124 l 1
 547 0 l 1
 56 0 l 1
EndSplineSet
Validated: 1
EndChar

StartChar: a
Encoding: 97 97 131
Width: 600
GlyphClass: 2
Flags: HMW
HStem: -12 120<200 327.5> 0 21G<408 528 408 408> 403 120<330 370.5 281 376.5> 490 20G<479 609 609 609>
VStem: 82 152<178.5 277 178.5 299.5>
AnchorPoint: "Ancre-2" 381 510 basechar 0
AnchorPoint: "Ancre-1" 542 10 basechar 0
AnchorPoint: "Ancre-0" 300 0 basechar 0
LayerCount: 2
Fore
SplineSet
254 -12 m 0xa8
 146 -12 82 68 82 199 c 0
 82 400 220 523 342 523 c 0
 399 523 430 501 460 467 c 1x68
 479 510 l 1
 609 510 l 1
 528 0 l 1
 408 0 l 1x58
 405 53 l 1
 402 53 l 1
 360 16 304 -12 254 -12 c 0xa8
311 108 m 0
 344 108 374 122 406 157 c 1
 439 367 l 1
 416 393 391 403 362 403 c 0
 298 403 234 340 234 214 c 0
 234 143 262 108 311 108 c 0
EndSplineSet
Validated: 1
Substitution2: "sous-table Substitution simple lookups16" ordfeminine
Substitution2: "sous-table 'aalt' Activer toutes les variantes dans Latin lookup 0" ordfeminine
EndChar

StartChar: aacute
Encoding: 225 225 132
Width: 600
GlyphClass: 2
Flags: HMW
HStem: -12 120<200 327.5> 0 21G<408 528 408 408> 403 120<330 370.5 281 376.5> 490 20G<479 609 609 609> 574 167<271 536 271 536>
VStem: 82 152<178.5 277 178.5 299.5>
AnchorPoint: "Ancre-2" 419 741 basechar 0
AnchorPoint: "Ancre-1" 542 10 basechar 0
AnchorPoint: "Ancre-0" 300 0 basechar 0
LayerCount: 2
Fore
SplineSet
271 574 m 1x6c
 386 741 l 1
 536 741 l 1
 378 574 l 1
 271 574 l 1x6c
254 -12 m 0xac
 146 -12 82 68 82 199 c 0
 82 400 220 523 342 523 c 0
 399 523 430 501 460 467 c 1x6c
 479 510 l 1
 609 510 l 1
 528 0 l 1
 408 0 l 1x5c
 405 53 l 1
 402 53 l 1
 360 16 304 -12 254 -12 c 0xac
311 108 m 0
 344 108 374 122 406 157 c 1
 439 367 l 1
 416 393 391 403 362 403 c 0
 298 403 234 340 234 214 c 0
 234 143 262 108 311 108 c 0
EndSplineSet
Validated: 1
EndChar

StartChar: abreve
Encoding: 259 259 133
Width: 600
GlyphClass: 2
Flags: HMW
HStem: -12 120<200 327.5> 0 21G<408 528 408 408> 403 120<330 370.5 281 376.5> 490 20G<479 609 609 609> 574 81<384 424 384 440.5>
VStem: 82 152<178.5 277 178.5 299.5> 269 82<730 730>
AnchorPoint: "Ancre-2" 418 730 basechar 0
AnchorPoint: "Ancre-1" 542 10 basechar 0
AnchorPoint: "Ancre-0" 300 0 basechar 0
LayerCount: 2
Fore
SplineSet
391 574 m 0x6e
 304 574 267 632 267 701 c 0
 267 710 268 720 269 730 c 1
 351 730 l 1
 351 728 351 725 351 723 c 0
 351 684 366 655 404 655 c 0
 444 655 469 688 481 730 c 1
 563 730 l 1
 548 649 490 574 391 574 c 0x6e
254 -12 m 0xae
 146 -12 82 68 82 199 c 0
 82 400 220 523 342 523 c 0
 399 523 430 501 460 467 c 1x6e
 479 510 l 1
 609 510 l 1
 528 0 l 1
 408 0 l 1x5e
 405 53 l 1
 402 53 l 1
 360 16 304 -12 254 -12 c 0xae
311 108 m 0
 344 108 374 122 406 157 c 1
 439 367 l 1
 416 393 391 403 362 403 c 0
 298 403 234 340 234 214 c 0
 234 143 262 108 311 108 c 0
EndSplineSet
Validated: 1
EndChar

StartChar: uni01CE
Encoding: 462 462 134
Width: 600
GlyphClass: 2
Flags: HMW
HStem: -12 120<200 327.5> 0 21G<408 528 408 408> 403 120<330 370.5 281 376.5> 490 20G<479 609 609 609> 574 167<329 329 329 362 255 453>
VStem: 82 152<178.5 277 178.5 299.5>
AnchorPoint: "Ancre-2" 419 741 basechar 0
AnchorPoint: "Ancre-1" 542 10 basechar 0
AnchorPoint: "Ancre-0" 300 0 basechar 0
LayerCount: 2
Fore
SplineSet
329 574 m 1x6c
 255 741 l 1
 362 741 l 1
 400 645 l 1
 404 645 l 1
 472 741 l 1
 579 741 l 1
 453 574 l 1
 329 574 l 1x6c
254 -12 m 0xac
 146 -12 82 68 82 199 c 0
 82 400 220 523 342 523 c 0
 399 523 430 501 460 467 c 1x6c
 479 510 l 1
 609 510 l 1
 528 0 l 1
 408 0 l 1x5c
 405 53 l 1
 402 53 l 1
 360 16 304 -12 254 -12 c 0xac
311 108 m 0
 344 108 374 122 406 157 c 1
 439 367 l 1
 416 393 391 403 362 403 c 0
 298 403 234 340 234 214 c 0
 234 143 262 108 311 108 c 0
EndSplineSet
Validated: 1
EndChar

StartChar: acircumflex
Encoding: 226 226 135
Width: 600
GlyphClass: 2
Flags: HMW
HStem: -12 120<200 327.5> 0 21G<408 528 408 408> 403 120<330 370.5 281 376.5> 490 20G<479 609 609 609> 574 167<229 479 229 479 446 446 446 479 355 553>
VStem: 82 152<178.5 277 178.5 299.5>
AnchorPoint: "Ancre-2" 419 741 basechar 0
AnchorPoint: "Ancre-1" 542 10 basechar 0
AnchorPoint: "Ancre-0" 300 0 basechar 0
LayerCount: 2
Fore
SplineSet
229 574 m 1x6c
 355 741 l 1
 479 741 l 1
 553 574 l 1
 446 574 l 1
 408 669 l 1
 404 669 l 1
 336 574 l 1
 229 574 l 1x6c
254 -12 m 0xac
 146 -12 82 68 82 199 c 0
 82 400 220 523 342 523 c 0
 399 523 430 501 460 467 c 1x6c
 479 510 l 1
 609 510 l 1
 528 0 l 1
 408 0 l 1x5c
 405 53 l 1
 402 53 l 1
 360 16 304 -12 254 -12 c 0xac
311 108 m 0
 344 108 374 122 406 157 c 1
 439 367 l 1
 416 393 391 403 362 403 c 0
 298 403 234 340 234 214 c 0
 234 143 262 108 311 108 c 0
EndSplineSet
Validated: 1
EndChar

StartChar: adieresis
Encoding: 228 228 136
Width: 600
GlyphClass: 2
Flags: HMW
HStem: -12 120<200 327.5> 0 21G<408 528 408 408> 403 120<330 370.5 281 376.5> 490 20G<479 609 609 609> 571 157<280.5 307 498.5 524.5>
VStem: 82 152<178.5 277 178.5 299.5> 214 159<636 663.5> 433 159<636 663>
AnchorPoint: "Ancre-2" 417 728 basechar 0
AnchorPoint: "Ancre-1" 542 10 basechar 0
AnchorPoint: "Ancre-0" 300 0 basechar 0
LayerCount: 2
Fore
SplineSet
281 571 m 0x6b
 240 571 214 600 214 639 c 0
 214 688 255 728 306 728 c 0
 347 728 373 698 373 660 c 0
 373 610 333 571 281 571 c 0x6b
499 571 m 0
 458 571 433 600 433 638 c 0
 433 688 473 728 524 728 c 0
 566 728 592 698 592 660 c 0
 592 610 550 571 499 571 c 0
254 -12 m 0xac
 146 -12 82 68 82 199 c 0
 82 400 220 523 342 523 c 0
 399 523 430 501 460 467 c 1x6c
 479 510 l 1
 609 510 l 1
 528 0 l 1
 408 0 l 1x5c
 405 53 l 1
 402 53 l 1
 360 16 304 -12 254 -12 c 0xac
311 108 m 0
 344 108 374 122 406 157 c 1
 439 367 l 1
 416 393 391 403 362 403 c 0
 298 403 234 340 234 214 c 0
 234 143 262 108 311 108 c 0
EndSplineSet
Validated: 1
EndChar

StartChar: agrave
Encoding: 224 224 137
Width: 600
GlyphClass: 2
Flags: HMW
HStem: -12 120<200 327.5> 0 21G<408 528 408 408> 403 120<330 370.5 281 376.5> 490 20G<479 609 609 609> 574 167<403 403 403 447 297 510>
VStem: 82 152<178.5 277 178.5 299.5>
AnchorPoint: "Ancre-2" 419 741 basechar 0
AnchorPoint: "Ancre-1" 542 10 basechar 0
AnchorPoint: "Ancre-0" 300 0 basechar 0
LayerCount: 2
Fore
SplineSet
403 574 m 1x6c
 297 741 l 1
 447 741 l 1
 510 574 l 1
 403 574 l 1x6c
254 -12 m 0xac
 146 -12 82 68 82 199 c 0
 82 400 220 523 342 523 c 0
 399 523 430 501 460 467 c 1x6c
 479 510 l 1
 609 510 l 1
 528 0 l 1
 408 0 l 1x5c
 405 53 l 1
 402 53 l 1
 360 16 304 -12 254 -12 c 0xac
311 108 m 0
 344 108 374 122 406 157 c 1
 439 367 l 1
 416 393 391 403 362 403 c 0
 298 403 234 340 234 214 c 0
 234 143 262 108 311 108 c 0
EndSplineSet
Validated: 1
EndChar

StartChar: amacron
Encoding: 257 257 138
Width: 600
GlyphClass: 2
Flags: HMW
HStem: -12 120<200 327.5> 0 21G<408 528 408 408> 403 120<330 370.5 281 376.5> 490 20G<479 609 609 609> 592 93<256 546 270 532>
VStem: 82 152<178.5 277 178.5 299.5>
AnchorPoint: "Ancre-2" 410 685 basechar 0
AnchorPoint: "Ancre-1" 542 10 basechar 0
AnchorPoint: "Ancre-0" 300 0 basechar 0
LayerCount: 2
Fore
SplineSet
256 592 m 1x6c
 270 685 l 1
 546 685 l 1
 532 592 l 1
 256 592 l 1x6c
254 -12 m 0xac
 146 -12 82 68 82 199 c 0
 82 400 220 523 342 523 c 0
 399 523 430 501 460 467 c 1x6c
 479 510 l 1
 609 510 l 1
 528 0 l 1
 408 0 l 1x5c
 405 53 l 1
 402 53 l 1
 360 16 304 -12 254 -12 c 0xac
311 108 m 0
 344 108 374 122 406 157 c 1
 439 367 l 1
 416 393 391 403 362 403 c 0
 298 403 234 340 234 214 c 0
 234 143 262 108 311 108 c 0
EndSplineSet
Validated: 1
EndChar

StartChar: aogonek
Encoding: 261 261 139
Width: 600
GlyphClass: 2
Flags: HMW
HStem: -210 21G<379 421.5> -210 87<379 461.5> -12 120<200 327.5> 0 21G<483 483 483 528> 403 120<330 370.5 281 376.5> 490 20G<479 609 609 609>
VStem: 82 152<178.5 277 178.5 299.5> 313 105<-102.5 -99.5>
AnchorPoint: "Ancre-2" 381 510 basechar 0
AnchorPoint: "Ancre-1" 542 10 basechar 0
AnchorPoint: "Ancre-0" 300 0 basechar 0
LayerCount: 2
Fore
SplineSet
483 0 m 1x9b
 438 -32 418 -62 418 -91 c 0
 418 -114 436 -123 455 -123 c 0
 468 -123 481 -117 491 -111 c 1x5b
 512 -177 l 1
 483 -197 437 -210 406 -210 c 0
 352 -210 313 -183 313 -132 c 0
 313 -67 371 -20 403 0 c 1
 408 0 l 1
 405 53 l 1
 402 53 l 1
 360 16 304 -12 254 -12 c 0
 146 -12 82 68 82 199 c 0
 82 400 220 523 342 523 c 0
 399 523 430 501 460 467 c 1xab
 479 510 l 1
 609 510 l 1x97
 528 0 l 1
 483 0 l 1x9b
311 108 m 0xab
 344 108 374 122 406 157 c 1
 439 367 l 1
 416 393 391 403 362 403 c 0
 298 403 234 340 234 214 c 0
 234 143 262 108 311 108 c 0xab
EndSplineSet
Validated: 1
EndChar

StartChar: aring
Encoding: 229 229 140
Width: 600
GlyphClass: 2
Flags: HMW
HStem: -12 120<200 327.5> 0 21G<408 528 408 408> 403 120<330 370.5 281 376.5> 490 20G<479 609 609 609> 548 55<385.5 408.5 385.5 424> 697 55<397 420.5>
VStem: 82 152<178.5 277 178.5 299.5> 288 73<630.5 658 630.5 670> 445 72<642 669.5>
AnchorPoint: "Ancre-2" 421 752 basechar 0
AnchorPoint: "Ancre-1" 542 10 basechar 0
AnchorPoint: "Ancre-0" 300 0 basechar 0
LayerCount: 2
Fore
SplineSet
387 548 m 0xaf80
 327 548 288 582 288 635 c 0
 288 705 345 752 419 752 c 0
 479 752 517 718 517 665 c 0
 517 595 461 548 387 548 c 0xaf80
396 603 m 0
 421 603 445 628 445 660 c 0
 445 683 431 697 410 697 c 0
 384 697 361 674 361 642 c 0
 361 619 375 603 396 603 c 0
254 -12 m 0
 146 -12 82 68 82 199 c 0
 82 400 220 523 342 523 c 0
 399 523 430 501 460 467 c 1x6780
 479 510 l 1
 609 510 l 1
 528 0 l 1
 408 0 l 1x5780
 405 53 l 1
 402 53 l 1
 360 16 304 -12 254 -12 c 0
311 108 m 0
 344 108 374 122 406 157 c 1
 439 367 l 1
 416 393 391 403 362 403 c 0xa780
 298 403 234 340 234 214 c 0
 234 143 262 108 311 108 c 0
EndSplineSet
Validated: 1
EndChar

StartChar: atilde
Encoding: 227 227 141
Width: 600
GlyphClass: 2
Flags: HMW
HStem: -12 120<200 327.5> 0 21G<408 528 408 408> 403 120<330 370.5 281 376.5> 490 20G<479 609 609 609> 575 91<444 468.5 444 475.5> 575 143<220 384.5 220 384.5 329.5 475.5> 628 90<335.5 360>
VStem: 82 152<178.5 277 178.5 299.5>
AnchorPoint: "Ancre-2" 416 718 basechar 0
AnchorPoint: "Ancre-1" 542 10 basechar 0
AnchorPoint: "Ancre-0" 300 0 basechar 0
LayerCount: 2
Fore
SplineSet
220 575 m 1x69
 247 672 299 718 360 718 c 0
 409 718 430 666 458 666 c 0x69
 479 666 495 679 510 718 c 1
 585 718 l 1x65
 558 622 506 575 445 575 c 0x69
 395 575 374 628 346 628 c 0x63
 325 628 310 615 295 575 c 1
 220 575 l 1x69
254 -12 m 0xa9
 146 -12 82 68 82 199 c 0
 82 400 220 523 342 523 c 0
 399 523 430 501 460 467 c 1x69
 479 510 l 1
 609 510 l 1
 528 0 l 1
 408 0 l 1x59
 405 53 l 1
 402 53 l 1
 360 16 304 -12 254 -12 c 0xa9
311 108 m 0
 344 108 374 122 406 157 c 1
 439 367 l 1
 416 393 391 403 362 403 c 0
 298 403 234 340 234 214 c 0
 234 143 262 108 311 108 c 0
EndSplineSet
Validated: 1
EndChar

StartChar: ae
Encoding: 230 230 142
Width: 600
GlyphClass: 2
Flags: HMW
HStem: -12 115<442.5 464> 212 91<405 524 405 620 393 524> 406 117<248.5 267> 410 113<492 509>
VStem: 36 135<130 165.5 130 175.5> 275 118<212 218> 528 115
LayerCount: 2
Fore
SplineSet
152 -12 m 0xde
 74 -12 36 43 36 115 c 0
 36 236 118 295 293 329 c 1
 294 335 294 341 294 347 c 0
 294 385 281 406 248 406 c 0
 221 406 178 392 140 370 c 1xee
 103 466 l 1
 163 500 220 523 277 523 c 0
 335 523 365 492 381 446 c 1
 423 497 463 523 521 523 c 0
 604 523 643 439 643 336 c 0
 643 269 627 233 620 212 c 1
 393 212 l 1
 393 211 393 209 393 208 c 0
 393 139 420 103 466 103 c 0
 494 103 519 111 549 130 c 1
 584 36 l 1
 541 5 485 -12 443 -12 c 0
 372 -12 331 19 305 68 c 1
 244 12 197 -12 152 -12 c 0xde
405 303 m 1
 524 303 l 1
 527 319 528 334 528 348 c 0
 528 384 518 410 489 410 c 0
 456 410 424 376 405 303 c 1
210 102 m 0
 229 102 255 115 277 139 c 1
 274 151 273 166 273 182 c 0
 273 194 274 206 275 218 c 2
 277 239 l 1
 202 223 171 188 171 143 c 0
 171 117 185 102 210 102 c 0
EndSplineSet
Validated: 1
EndChar

StartChar: b
Encoding: 98 98 143
Width: 600
GlyphClass: 2
Flags: HMW
HStem: -12 120<313 355 309 399.5> 0 21G<72 187 72 72> 403 120<359 488.5>
VStem: 448 152<238 335.5>
LayerCount: 2
Fore
SplineSet
336 -12 m 0xb0
 290 -12 246 11 212 56 c 1
 208 56 l 1xb0
 187 0 l 1
 72 0 l 1x70
 187 723 l 1
 334 723 l 1
 305 544 l 1
 288 463 l 1
 333 500 388 523 436 523 c 0
 541 523 600 442 600 319 c 0
 600 112 463 -12 336 -12 c 0xb0
322 108 m 0
 388 108 448 173 448 303 c 0
 448 368 424 403 375 403 c 0
 343 403 311 387 275 353 c 1
 242 143 l 1
 266 117 296 108 322 108 c 0
EndSplineSet
Validated: 1
EndChar

StartChar: uni0180
Encoding: 384 384 144
Width: 600
GlyphClass: 2
Flags: HMW
HStem: -12 120<313 355 309 399> 0 21G<72 187 72 72> 382 120<356 486> 574 71<310 503 321 492>
VStem: 446 152<226.5 318>
LayerCount: 2
Fore
SplineSet
336 -12 m 0xb8
 290 -12 246 11 212 56 c 1
 208 56 l 1xb8
 187 0 l 1
 72 0 l 1x78
 163 574 l 1
 97 574 l 1
 107 639 l 1
 174 644 l 1
 187 723 l 1
 334 723 l 1
 321 645 l 1
 503 645 l 1
 492 574 l 1
 310 574 l 1
 302 523 l 1
 285 442 l 1
 330 480 385 502 433 502 c 0
 539 502 598 424 598 304 c 0
 598 105 462 -12 336 -12 c 0xb8
322 108 m 0
 388 108 446 166 446 287 c 0
 446 349 422 382 372 382 c 0
 340 382 308 367 272 333 c 1
 242 143 l 1
 266 117 296 108 322 108 c 0
EndSplineSet
Validated: 1
EndChar

StartChar: c
Encoding: 99 99 145
Width: 600
GlyphClass: 2
Flags: HMW
HStem: -12 119<338 375> 404 119<378 444.5>
VStem: 103 153<192.5 281.5 192.5 311>
AnchorPoint: "Ancre-2" 401 510 basechar 0
AnchorPoint: "Ancre-1" 0 0 basechar 0
AnchorPoint: "Ancre-0" 300 0 basechar 0
LayerCount: 2
Fore
SplineSet
341 -12 m 0
 202 -12 103 70 103 213 c 0
 103 409 268 523 437 523 c 0
 515 523 576 493 612 453 c 1
 529 362 l 1
 496 391 463 404 426 404 c 0
 330 404 256 333 256 230 c 0
 256 155 302 107 374 107 c 0
 426 107 474 130 513 156 c 1
 558 63 l 1
 490 12 409 -12 341 -12 c 0
EndSplineSet
Validated: 1
EndChar

StartChar: cacute
Encoding: 263 263 146
Width: 600
GlyphClass: 2
Flags: HMW
HStem: -12 119<338 375> 404 119<378 444.5> 574 167<291 556 291 556>
VStem: 103 153<192.5 281.5 192.5 311>
AnchorPoint: "Ancre-2" 439 741 basechar 0
AnchorPoint: "Ancre-1" 0 0 basechar 0
AnchorPoint: "Ancre-0" 300 0 basechar 0
LayerCount: 2
Fore
SplineSet
291 574 m 1
 406 741 l 1
 556 741 l 1
 398 574 l 1
 291 574 l 1
341 -12 m 0
 202 -12 103 70 103 213 c 0
 103 409 268 523 437 523 c 0
 515 523 576 493 612 453 c 1
 529 362 l 1
 496 391 463 404 426 404 c 0
 330 404 256 333 256 230 c 0
 256 155 302 107 374 107 c 0
 426 107 474 130 513 156 c 1
 558 63 l 1
 490 12 409 -12 341 -12 c 0
EndSplineSet
Validated: 1
EndChar

StartChar: ccaron
Encoding: 269 269 147
Width: 600
GlyphClass: 2
Flags: HMW
HStem: -12 119<338 375> 404 119<378 444.5> 574 167<349 349 349 382 275 473>
VStem: 103 153<192.5 281.5 192.5 311>
AnchorPoint: "Ancre-2" 439 741 basechar 0
AnchorPoint: "Ancre-1" 0 0 basechar 0
AnchorPoint: "Ancre-0" 300 0 basechar 0
LayerCount: 2
Fore
SplineSet
349 574 m 1
 275 741 l 1
 382 741 l 1
 420 645 l 1
 424 645 l 1
 492 741 l 1
 599 741 l 1
 473 574 l 1
 349 574 l 1
341 -12 m 0
 202 -12 103 70 103 213 c 0
 103 409 268 523 437 523 c 0
 515 523 576 493 612 453 c 1
 529 362 l 1
 496 391 463 404 426 404 c 0
 330 404 256 333 256 230 c 0
 256 155 302 107 374 107 c 0
 426 107 474 130 513 156 c 1
 558 63 l 1
 490 12 409 -12 341 -12 c 0
EndSplineSet
Validated: 1
EndChar

StartChar: ccedilla
Encoding: 231 231 148
Width: 600
GlyphClass: 2
Flags: HMW
HStem: -221 59<180 182> -3 21G<266 266> 404 119<378 444.5>
VStem: 103 153<192.5 281.5 192.5 311> 270 107<-128.5 -106.5>
AnchorPoint: "Ancre-2" 401 510 basechar 0
AnchorPoint: "Ancre-1" 0 0 basechar 0
AnchorPoint: "Ancre-0" 267 -221 basechar 0
LayerCount: 2
Fore
SplineSet
558 63 m 1
 492 14 414 -10 348 -12 c 1
 329 -43 l 1
 357 -53 377 -72 377 -105 c 0
 377 -183 283 -216 182 -221 c 1
 180 -162 l 1
 232 -157 270 -143 270 -114 c 0
 270 -99 257 -86 218 -76 c 1xf8
 266 -3 l 1
 168 22 103 97 103 213 c 0
 103 409 268 523 437 523 c 0
 515 523 576 493 612 453 c 1
 529 362 l 1
 496 391 463 404 426 404 c 0
 330 404 256 333 256 230 c 0
 256 155 302 107 374 107 c 0
 426 107 474 130 513 156 c 1
 558 63 l 1
EndSplineSet
Validated: 1
EndChar

StartChar: ccircumflex
Encoding: 265 265 149
Width: 600
GlyphClass: 2
Flags: HMW
HStem: -12 119<338 375> 404 119<378 444.5> 574 167<249 499 249 499 466 466 466 499 375 573>
VStem: 103 153<192.5 281.5 192.5 311>
AnchorPoint: "Ancre-2" 439 741 basechar 0
AnchorPoint: "Ancre-1" 0 0 basechar 0
AnchorPoint: "Ancre-0" 300 0 basechar 0
LayerCount: 2
Fore
SplineSet
249 574 m 1
 375 741 l 1
 499 741 l 1
 573 574 l 1
 466 574 l 1
 428 669 l 1
 424 669 l 1
 356 574 l 1
 249 574 l 1
341 -12 m 0
 202 -12 103 70 103 213 c 0
 103 409 268 523 437 523 c 0
 515 523 576 493 612 453 c 1
 529 362 l 1
 496 391 463 404 426 404 c 0
 330 404 256 333 256 230 c 0
 256 155 302 107 374 107 c 0
 426 107 474 130 513 156 c 1
 558 63 l 1
 490 12 409 -12 341 -12 c 0
EndSplineSet
Validated: 1
EndChar

StartChar: cdotaccent
Encoding: 267 267 150
Width: 600
GlyphClass: 2
Flags: HMW
HStem: -12 119<338 375> 404 119<378 444.5> 586 200<412 445.5>
VStem: 103 153<192.5 281.5 192.5 311> 327 203<665.5 702.5>
AnchorPoint: "Ancre-2" 441 750 basechar 0
AnchorPoint: "Ancre-1" 0 0 basechar 0
AnchorPoint: "Ancre-0" 300 0 basechar 0
LayerCount: 2
Fore
SplineSet
413 586 m 0
 361 586 327 618 327 669 c 0
 327 736 380 786 444 786 c 0
 496 786 530 751 530 700 c 0
 530 631 478 586 413 586 c 0
341 -12 m 0
 202 -12 103 70 103 213 c 0
 103 409 268 523 437 523 c 0
 515 523 576 493 612 453 c 1
 529 362 l 1
 496 391 463 404 426 404 c 0
 330 404 256 333 256 230 c 0
 256 155 302 107 374 107 c 0
 426 107 474 130 513 156 c 1
 558 63 l 1
 490 12 409 -12 341 -12 c 0
EndSplineSet
Validated: 1
EndChar

StartChar: d
Encoding: 100 100 151
Width: 600
GlyphClass: 2
Flags: HMW
HStem: -12 120<200 327.5> 0 21G<408 528 408 408> 403 120<330 370.5 281 376.5>
VStem: 82 152<178.5 277 178.5 299.5>
LayerCount: 2
Fore
SplineSet
254 -12 m 0xb0
 146 -12 82 68 82 199 c 0
 82 400 220 523 342 523 c 0
 399 523 430 501 460 467 c 1
 468 547 l 1
 496 723 l 1
 643 723 l 1
 528 0 l 1
 408 0 l 1x70
 405 53 l 1
 402 53 l 1
 360 16 304 -12 254 -12 c 0xb0
311 108 m 0
 344 108 374 122 406 157 c 1
 439 367 l 1
 416 393 391 403 362 403 c 0
 298 403 234 340 234 214 c 0
 234 143 262 108 311 108 c 0
EndSplineSet
Validated: 1
EndChar

StartChar: eth
Encoding: 240 240 152
Width: 600
GlyphClass: 2
Flags: HMW
HStem: -12 119<288 351.5 288 384.5> 359 109<313 366 277.5 376.5> 652 20G<241 241> 741 20G<320 320>
VStem: 80 136<178.5 259.5 178.5 281.5> 460 141
LayerCount: 2
Fore
SplineSet
293 -12 m 0
 172 -12 80 69 80 198 c 0
 80 365 213 468 342 468 c 0
 390 468 433 451 459 410 c 1
 450 474 426 524 386 568 c 1
 225 491 l 1
 197 556 l 1
 327 619 l 1
 302 638 274 656 241 672 c 1
 320 761 l 1
 367 738 411 710 451 677 c 1
 598 748 l 1
 626 682 l 1
 506 624 l 1
 564 559 601 465 601 348 c 0
 601 136 476 -12 293 -12 c 0
317 107 m 0
 386 107 439 161 455 265 c 0
 457 278 459 290 460 301 c 1
 432 343 398 359 355 359 c 0
 271 359 216 307 216 212 c 0
 216 145 259 107 317 107 c 0
EndSplineSet
Validated: 1
EndChar

StartChar: dcaron
Encoding: 271 271 153
Width: 600
GlyphClass: 2
Flags: HMW
HStem: -12 120<178 305.5> 0 21G<386 506 386 386> 403 120<307.5 348 259 354> 564 159<474 632 474 695>
VStem: 60 151<179 278 179 299>
LayerCount: 2
Fore
SplineSet
632 564 m 1x78
 663 792 l 1
 757 792 l 1
 744 723 l 1
 695 564 l 1
 632 564 l 1x78
232 -12 m 0xb8
 124 -12 60 67 60 198 c 0
 60 400 198 523 320 523 c 0
 376 523 408 501 438 467 c 1
 446 547 l 1
 474 723 l 1
 621 723 l 1
 506 0 l 1
 386 0 l 1x78
 383 53 l 1
 379 53 l 1
 338 16 282 -12 232 -12 c 0xb8
289 108 m 0
 322 108 352 122 384 157 c 1
 417 367 l 1
 394 393 369 403 339 403 c 0
 276 403 211 341 211 215 c 0
 211 143 239 108 289 108 c 0
EndSplineSet
Validated: 1
EndChar

StartChar: dcroat
Encoding: 273 273 154
Width: 600
GlyphClass: 2
Flags: HMW
HStem: -12 120<200 327.5> 0 21G<408 528 408 408> 382 120<328 367.5 278 374.5> 574 71<328 472 317 483>
VStem: 80 153<175 267 175 289>
LayerCount: 2
Fore
SplineSet
254 -12 m 0xb8
 146 -12 80 65 80 193 c 0
 80 385 217 502 339 502 c 0
 396 502 427 480 457 447 c 1
 464 527 l 1
 472 574 l 1
 317 574 l 1
 328 645 l 1
 483 645 l 1
 496 723 l 1
 643 723 l 1
 630 645 l 1
 696 645 l 1
 686 580 l 1
 619 575 l 1
 528 0 l 1
 408 0 l 1x78
 405 53 l 1
 402 53 l 1
 360 16 304 -12 254 -12 c 0xb8
311 108 m 0
 344 108 374 122 406 157 c 1
 436 346 l 1
 413 371 388 382 361 382 c 0
 295 382 233 325 233 209 c 0
 233 141 261 108 311 108 c 0
EndSplineSet
Validated: 1
EndChar

StartChar: e
Encoding: 101 101 155
Width: 600
GlyphClass: 2
Flags: HMW
HStem: -12 112<329.5 361> 212 98<253 462 253 574 240 462> 410 113<354.5 414.5>
VStem: 91 149<212 212 212 309> 464 130
AnchorPoint: "Ancre-2" 394 510 basechar 0
AnchorPoint: "Ancre-1" 472 10 basechar 0
AnchorPoint: "Ancre-0" 300 0 basechar 0
LayerCount: 2
Fore
SplineSet
328 -12 m 0
 190 -12 91 71 91 213 c 0
 91 405 250 523 396 523 c 0
 529 523 594 436 594 321 c 0
 594 268 579 230 574 212 c 1
 240 212 l 1
 240 210 240 208 240 206 c 0
 240 132 295 100 366 100 c 0
 411 100 452 112 500 136 c 1
 533 47 l 1
 472 11 394 -12 328 -12 c 0
253 310 m 1
 462 310 l 1
 463 319 464 327 464 335 c 0
 464 381 438 410 381 410 c 0
 328 410 277 378 253 310 c 1
EndSplineSet
Validated: 1
EndChar

StartChar: eacute
Encoding: 233 233 156
Width: 600
GlyphClass: 2
Flags: HMW
HStem: -12 112<329.5 361> 212 98<253 462 253 574 240 462> 410 113<354.5 414.5> 574 167<284 549 284 549>
VStem: 91 149<212 212 212 309> 464 130
AnchorPoint: "Ancre-2" 432 741 basechar 0
AnchorPoint: "Ancre-1" 472 10 basechar 0
AnchorPoint: "Ancre-0" 300 0 basechar 0
LayerCount: 2
Fore
SplineSet
284 574 m 1
 399 741 l 1
 549 741 l 1
 391 574 l 1
 284 574 l 1
328 -12 m 0
 190 -12 91 71 91 213 c 0
 91 405 250 523 396 523 c 0
 529 523 594 436 594 321 c 0
 594 268 579 230 574 212 c 1
 240 212 l 1
 240 210 240 208 240 206 c 0
 240 132 295 100 366 100 c 0
 411 100 452 112 500 136 c 1
 533 47 l 1
 472 11 394 -12 328 -12 c 0
253 310 m 1
 462 310 l 1
 463 319 464 327 464 335 c 0
 464 381 438 410 381 410 c 0
 328 410 277 378 253 310 c 1
EndSplineSet
Validated: 1
EndChar

StartChar: ebreve
Encoding: 277 277 157
Width: 600
GlyphClass: 2
Flags: HMW
HStem: -12 112<329.5 361> 212 98<253 462 253 574 240 462> 410 113<354.5 414.5> 574 81<397 437 397 453.5>
VStem: 91 149<212 212 212 309> 282 82<730 730> 464 130
AnchorPoint: "Ancre-2" 431 730 basechar 0
AnchorPoint: "Ancre-1" 472 10 basechar 0
AnchorPoint: "Ancre-0" 300 0 basechar 0
LayerCount: 2
Fore
SplineSet
404 574 m 0
 317 574 280 632 280 701 c 0
 280 710 281 720 282 730 c 1
 364 730 l 1
 364 728 364 725 364 723 c 0
 364 684 379 655 417 655 c 0
 457 655 482 688 494 730 c 1
 576 730 l 1
 561 649 503 574 404 574 c 0
328 -12 m 0
 190 -12 91 71 91 213 c 0
 91 405 250 523 396 523 c 0
 529 523 594 436 594 321 c 0
 594 268 579 230 574 212 c 1
 240 212 l 1
 240 210 240 208 240 206 c 0
 240 132 295 100 366 100 c 0
 411 100 452 112 500 136 c 1
 533 47 l 1
 472 11 394 -12 328 -12 c 0
253 310 m 1
 462 310 l 1
 463 319 464 327 464 335 c 0
 464 381 438 410 381 410 c 0
 328 410 277 378 253 310 c 1
EndSplineSet
Validated: 1
EndChar

StartChar: ecaron
Encoding: 283 283 158
Width: 600
GlyphClass: 2
Flags: HMW
HStem: -12 112<329.5 361> 212 98<253 462 253 574 240 462> 410 113<354.5 414.5> 574 167<342 342 342 375 268 466>
VStem: 91 149<212 212 212 309> 464 130
AnchorPoint: "Ancre-2" 432 741 basechar 0
AnchorPoint: "Ancre-1" 472 10 basechar 0
AnchorPoint: "Ancre-0" 300 0 basechar 0
LayerCount: 2
Fore
SplineSet
342 574 m 1
 268 741 l 1
 375 741 l 1
 413 645 l 1
 417 645 l 1
 485 741 l 1
 592 741 l 1
 466 574 l 1
 342 574 l 1
328 -12 m 0
 190 -12 91 71 91 213 c 0
 91 405 250 523 396 523 c 0
 529 523 594 436 594 321 c 0
 594 268 579 230 574 212 c 1
 240 212 l 1
 240 210 240 208 240 206 c 0
 240 132 295 100 366 100 c 0
 411 100 452 112 500 136 c 1
 533 47 l 1
 472 11 394 -12 328 -12 c 0
253 310 m 1
 462 310 l 1
 463 319 464 327 464 335 c 0
 464 381 438 410 381 410 c 0
 328 410 277 378 253 310 c 1
EndSplineSet
Validated: 1
EndChar

StartChar: ecircumflex
Encoding: 234 234 159
Width: 600
GlyphClass: 2
Flags: HMW
HStem: -12 112<329.5 361> 212 98<253 462 253 574 240 462> 410 113<354.5 414.5> 574 167<242 492 242 492 459 459 459 492 368 566>
VStem: 91 149<212 212 212 309> 464 130
AnchorPoint: "Ancre-2" 432 741 basechar 0
AnchorPoint: "Ancre-1" 472 10 basechar 0
AnchorPoint: "Ancre-0" 300 0 basechar 0
LayerCount: 2
Fore
SplineSet
242 574 m 1
 368 741 l 1
 492 741 l 1
 566 574 l 1
 459 574 l 1
 421 669 l 1
 417 669 l 1
 349 574 l 1
 242 574 l 1
328 -12 m 0
 190 -12 91 71 91 213 c 0
 91 405 250 523 396 523 c 0
 529 523 594 436 594 321 c 0
 594 268 579 230 574 212 c 1
 240 212 l 1
 240 210 240 208 240 206 c 0
 240 132 295 100 366 100 c 0
 411 100 452 112 500 136 c 1
 533 47 l 1
 472 11 394 -12 328 -12 c 0
253 310 m 1
 462 310 l 1
 463 319 464 327 464 335 c 0
 464 381 438 410 381 410 c 0
 328 410 277 378 253 310 c 1
EndSplineSet
Validated: 1
EndChar

StartChar: edieresis
Encoding: 235 235 160
Width: 600
GlyphClass: 2
Flags: HMW
HStem: -12 112<329.5 361> 212 98<253 462 253 574 240 462> 410 113<354.5 414.5> 571 157<293.5 320 511.5 537.5>
VStem: 91 149<212 212 212 309> 227 159<636 663.5> 446 159<636 663> 464 130
AnchorPoint: "Ancre-2" 430 728 basechar 0
AnchorPoint: "Ancre-1" 472 10 basechar 0
AnchorPoint: "Ancre-0" 300 0 basechar 0
LayerCount: 2
Fore
SplineSet
294 571 m 0xf6
 253 571 227 600 227 639 c 0
 227 688 268 728 319 728 c 0
 360 728 386 698 386 660 c 0
 386 610 346 571 294 571 c 0xf6
512 571 m 0
 471 571 446 600 446 638 c 0
 446 688 486 728 537 728 c 0
 579 728 605 698 605 660 c 0
 605 610 563 571 512 571 c 0
328 -12 m 0xf9
 190 -12 91 71 91 213 c 0
 91 405 250 523 396 523 c 0
 529 523 594 436 594 321 c 0
 594 268 579 230 574 212 c 1
 240 212 l 1
 240 210 240 208 240 206 c 0
 240 132 295 100 366 100 c 0
 411 100 452 112 500 136 c 1
 533 47 l 1
 472 11 394 -12 328 -12 c 0xf9
253 310 m 1
 462 310 l 1
 463 319 464 327 464 335 c 0
 464 381 438 410 381 410 c 0
 328 410 277 378 253 310 c 1
EndSplineSet
Validated: 1
EndChar

StartChar: edotaccent
Encoding: 279 279 161
Width: 600
GlyphClass: 2
Flags: HMW
HStem: -12 112<329.5 361> 212 98<253 462 253 574 240 462> 410 113<354.5 414.5> 586 200<405 438.5>
VStem: 91 149<212 212 212 309> 320 203<665.5 702.5> 464 130
AnchorPoint: "Ancre-2" 434 750 basechar 0
AnchorPoint: "Ancre-1" 472 10 basechar 0
AnchorPoint: "Ancre-0" 300 0 basechar 0
LayerCount: 2
Fore
SplineSet
406 586 m 0xfc
 354 586 320 618 320 669 c 0
 320 736 373 786 437 786 c 0
 489 786 523 751 523 700 c 0
 523 631 471 586 406 586 c 0xfc
328 -12 m 0
 190 -12 91 71 91 213 c 0
 91 405 250 523 396 523 c 0
 529 523 594 436 594 321 c 0
 594 268 579 230 574 212 c 1xfa
 240 212 l 1
 240 210 240 208 240 206 c 0
 240 132 295 100 366 100 c 0
 411 100 452 112 500 136 c 1
 533 47 l 1
 472 11 394 -12 328 -12 c 0
253 310 m 1
 462 310 l 1
 463 319 464 327 464 335 c 0
 464 381 438 410 381 410 c 0xfa
 328 410 277 378 253 310 c 1
EndSplineSet
Validated: 1
EndChar

StartChar: egrave
Encoding: 232 232 162
Width: 600
GlyphClass: 2
Flags: HMW
HStem: -12 112<329.5 361> 212 98<253 462 253 574 240 462> 410 113<354.5 414.5> 574 167<416 416 416 460 310 523>
VStem: 91 149<212 212 212 309> 464 130
AnchorPoint: "Ancre-2" 432 741 basechar 0
AnchorPoint: "Ancre-1" 472 10 basechar 0
AnchorPoint: "Ancre-0" 300 0 basechar 0
LayerCount: 2
Fore
SplineSet
416 574 m 1
 310 741 l 1
 460 741 l 1
 523 574 l 1
 416 574 l 1
328 -12 m 0
 190 -12 91 71 91 213 c 0
 91 405 250 523 396 523 c 0
 529 523 594 436 594 321 c 0
 594 268 579 230 574 212 c 1
 240 212 l 1
 240 210 240 208 240 206 c 0
 240 132 295 100 366 100 c 0
 411 100 452 112 500 136 c 1
 533 47 l 1
 472 11 394 -12 328 -12 c 0
253 310 m 1
 462 310 l 1
 463 319 464 327 464 335 c 0
 464 381 438 410 381 410 c 0
 328 410 277 378 253 310 c 1
EndSplineSet
Validated: 1
EndChar

StartChar: emacron
Encoding: 275 275 163
Width: 600
GlyphClass: 2
Flags: HMW
HStem: -12 112<329.5 361> 212 98<253 462 253 574 240 462> 410 113<354.5 414.5> 592 93<269 559 283 545>
VStem: 91 149<212 212 212 309> 464 130
AnchorPoint: "Ancre-2" 423 685 basechar 0
AnchorPoint: "Ancre-1" 472 10 basechar 0
AnchorPoint: "Ancre-0" 300 0 basechar 0
LayerCount: 2
Fore
SplineSet
269 592 m 1
 283 685 l 1
 559 685 l 1
 545 592 l 1
 269 592 l 1
328 -12 m 0
 190 -12 91 71 91 213 c 0
 91 405 250 523 396 523 c 0
 529 523 594 436 594 321 c 0
 594 268 579 230 574 212 c 1
 240 212 l 1
 240 210 240 208 240 206 c 0
 240 132 295 100 366 100 c 0
 411 100 452 112 500 136 c 1
 533 47 l 1
 472 11 394 -12 328 -12 c 0
253 310 m 1
 462 310 l 1
 463 319 464 327 464 335 c 0
 464 381 438 410 381 410 c 0
 328 410 277 378 253 310 c 1
EndSplineSet
Validated: 1
EndChar

StartChar: eogonek
Encoding: 281 281 164
Width: 600
GlyphClass: 2
Flags: HMW
HStem: -210 21G<309 351.5> -210 87<309 391.5> -12 112 212 98<253 462 253 574 240 462> 410 113<354.5 414.5>
VStem: 91 149<212 212 212 309> 243 105<-157.5 -76.5> 464 130
AnchorPoint: "Ancre-2" 394 510 basechar 0
AnchorPoint: "Ancre-1" 472 10 basechar 0
AnchorPoint: "Ancre-0" 300 0 basechar 0
LayerCount: 2
Fore
SplineSet
574 212 m 1xbd
 240 212 l 1xbd
 240 210 240 208 240 206 c 0
 240 132 295 100 366 100 c 0
 411 100 452 112 500 136 c 1
 533 47 l 1
 496 25 454 10 411 0 c 1
 367 -31 348 -62 348 -91 c 0
 348 -114 366 -123 385 -123 c 0
 398 -123 411 -117 421 -111 c 1x7b
 442 -177 l 1
 413 -197 367 -210 336 -210 c 0
 282 -210 243 -183 243 -132 c 0xbb
 243 -79 282 -36 313 -12 c 1
 183 -6 91 76 91 213 c 0
 91 405 250 523 396 523 c 0
 529 523 594 436 594 321 c 0
 594 268 579 230 574 212 c 1xbd
381 410 m 0
 328 410 277 378 253 310 c 1
 462 310 l 1
 463 319 464 327 464 335 c 0
 464 381 438 410 381 410 c 0
EndSplineSet
Validated: 1
EndChar

StartChar: uni1EBD
Encoding: 7869 7869 165
Width: 600
GlyphClass: 2
Flags: HMW
HStem: -12 112<329.5 361> 212 98<253 462 253 574 240 462> 410 113<354.5 414.5> 575 91<457 481.5 457 488.5> 575 143<233 397.5 233 397.5 342.5 488.5> 628 90<348.5 373>
VStem: 91 149<212 212 212 309> 464 130
AnchorPoint: "Ancre-2" 429 718 basechar 0
AnchorPoint: "Ancre-1" 472 10 basechar 0
AnchorPoint: "Ancre-0" 300 0 basechar 0
LayerCount: 2
Fore
SplineSet
233 575 m 1xf3
 260 672 312 718 373 718 c 0
 422 718 443 666 471 666 c 0xf3
 492 666 508 679 523 718 c 1
 598 718 l 1xeb
 571 622 519 575 458 575 c 0xf3
 408 575 387 628 359 628 c 0xe7
 338 628 323 615 308 575 c 1
 233 575 l 1xf3
328 -12 m 0
 190 -12 91 71 91 213 c 0
 91 405 250 523 396 523 c 0
 529 523 594 436 594 321 c 0
 594 268 579 230 574 212 c 1
 240 212 l 1
 240 210 240 208 240 206 c 0
 240 132 295 100 366 100 c 0
 411 100 452 112 500 136 c 1
 533 47 l 1
 472 11 394 -12 328 -12 c 0
253 310 m 1
 462 310 l 1
 463 319 464 327 464 335 c 0
 464 381 438 410 381 410 c 0
 328 410 277 378 253 310 c 1
EndSplineSet
Validated: 1
EndChar

StartChar: f
Encoding: 102 102 166
Width: 600
GlyphClass: 2
Flags: HMW
HStem: 0 21G<213 213 213 360> 395 115<145 293 440 594> 619 116<519.5 570>
VStem: 145 552<395 707>
LayerCount: 2
Fore
SplineSet
213 0 m 1
 276 395 l 1
 145 395 l 1
 162 504 l 1
 293 510 l 1
 296 526 l 2
 317 643 396 735 551 735 c 0
 608 735 657 722 697 707 c 1
 652 599 l 1
 623 612 589 619 551 619 c 0
 488 619 454 590 443 527 c 2
 440 510 l 1
 612 510 l 1
 594 395 l 1
 423 395 l 1
 360 0 l 1
 213 0 l 1
EndSplineSet
Validated: 1
EndChar

StartChar: g
Encoding: 103 103 167
Width: 600
GlyphClass: 2
Flags: HMW
HStem: -217 115<233.5 290.5 233.5 320.5> 13 118<204 331> 403 120<331.5 371 280.5 375.5> 490 20G<494 609 609 609>
VStem: 84 151<202.5 288.5 202.5 309>
AnchorPoint: "Ancre-2" 381 510 basechar 0
AnchorPoint: "Ancre-1" 0 0 basechar 0
AnchorPoint: "Ancre-0" 300 0 basechar 0
LayerCount: 2
Fore
SplineSet
236 -217 m 0xe8
 181 -217 104 -202 54 -154 c 1
 118 -54 l 1
 160 -91 213 -102 254 -102 c 0
 327 -102 376 -55 384 -15 c 2
 400 68 l 1
 361 34 305 13 258 13 c 0
 150 13 84 97 84 218 c 0
 84 400 216 523 345 523 c 0
 397 523 438 501 469 457 c 1
 473 457 l 1xe8
 494 510 l 1
 609 510 l 1xd8
 528 0 l 2
 506 -137 405 -217 236 -217 c 0xe8
315 131 m 0
 347 131 377 145 410 182 c 1
 439 367 l 1
 416 393 391 403 360 403 c 0
 303 403 235 341 235 236 c 0
 235 169 266 131 315 131 c 0
EndSplineSet
Validated: 1
EndChar

StartChar: gbreve
Encoding: 287 287 168
Width: 600
GlyphClass: 2
Flags: HMW
HStem: -217 115<233.5 290.5 233.5 320.5> 13 118<204 331> 403 120<331.5 371 280.5 375.5> 490 20G<494 609 609 609> 574 81<384 424 384 440.5>
VStem: 84 151<202.5 288.5 202.5 309> 269 82<730 730>
AnchorPoint: "Ancre-2" 418 730 basechar 0
AnchorPoint: "Ancre-1" 0 0 basechar 0
AnchorPoint: "Ancre-0" 300 0 basechar 0
LayerCount: 2
Fore
SplineSet
391 574 m 0xee
 304 574 267 632 267 701 c 0
 267 710 268 720 269 730 c 1
 351 730 l 1
 351 728 351 725 351 723 c 0
 351 684 366 655 404 655 c 0
 444 655 469 688 481 730 c 1
 563 730 l 1
 548 649 490 574 391 574 c 0xee
236 -217 m 0
 181 -217 104 -202 54 -154 c 1
 118 -54 l 1
 160 -91 213 -102 254 -102 c 0
 327 -102 376 -55 384 -15 c 2
 400 68 l 1
 361 34 305 13 258 13 c 0
 150 13 84 97 84 218 c 0
 84 400 216 523 345 523 c 0
 397 523 438 501 469 457 c 1
 473 457 l 1xee
 494 510 l 1
 609 510 l 1xde
 528 0 l 2
 506 -137 405 -217 236 -217 c 0
315 131 m 0
 347 131 377 145 410 182 c 1
 439 367 l 1
 416 393 391 403 360 403 c 0
 303 403 235 341 235 236 c 0
 235 169 266 131 315 131 c 0
EndSplineSet
Validated: 1
EndChar

StartChar: gcaron
Encoding: 487 487 169
Width: 600
GlyphClass: 2
Flags: HMW
HStem: -217 115<233.5 290.5 233.5 320.5> 13 118<204 331> 403 120<331.5 371 280.5 375.5> 490 20G<494 609 609 609> 574 167<329 329 329 362 255 453>
VStem: 84 151<202.5 288.5 202.5 309>
AnchorPoint: "Ancre-2" 419 741 basechar 0
AnchorPoint: "Ancre-1" 0 0 basechar 0
AnchorPoint: "Ancre-0" 300 0 basechar 0
LayerCount: 2
Fore
SplineSet
329 574 m 1xec
 255 741 l 1
 362 741 l 1
 400 645 l 1
 404 645 l 1
 472 741 l 1
 579 741 l 1
 453 574 l 1
 329 574 l 1xec
236 -217 m 0
 181 -217 104 -202 54 -154 c 1
 118 -54 l 1
 160 -91 213 -102 254 -102 c 0
 327 -102 376 -55 384 -15 c 2
 400 68 l 1
 361 34 305 13 258 13 c 0
 150 13 84 97 84 218 c 0
 84 400 216 523 345 523 c 0
 397 523 438 501 469 457 c 1
 473 457 l 1xec
 494 510 l 1
 609 510 l 1xdc
 528 0 l 2
 506 -137 405 -217 236 -217 c 0
315 131 m 0
 347 131 377 145 410 182 c 1
 439 367 l 1
 416 393 391 403 360 403 c 0
 303 403 235 341 235 236 c 0
 235 169 266 131 315 131 c 0
EndSplineSet
Validated: 1
EndChar

StartChar: gcircumflex
Encoding: 285 285 170
Width: 600
GlyphClass: 2
Flags: HMW
HStem: -217 115<233.5 290.5 233.5 320.5> 13 118<204 331> 403 120<331.5 371 280.5 375.5> 490 20G<494 609 609 609> 574 167<229 479 229 479 446 446 446 479 355 553>
VStem: 84 151<202.5 288.5 202.5 309>
AnchorPoint: "Ancre-2" 419 741 basechar 0
AnchorPoint: "Ancre-1" 0 0 basechar 0
AnchorPoint: "Ancre-0" 300 0 basechar 0
LayerCount: 2
Fore
SplineSet
229 574 m 1xec
 355 741 l 1
 479 741 l 1
 553 574 l 1
 446 574 l 1
 408 669 l 1
 404 669 l 1
 336 574 l 1
 229 574 l 1xec
236 -217 m 0
 181 -217 104 -202 54 -154 c 1
 118 -54 l 1
 160 -91 213 -102 254 -102 c 0
 327 -102 376 -55 384 -15 c 2
 400 68 l 1
 361 34 305 13 258 13 c 0
 150 13 84 97 84 218 c 0
 84 400 216 523 345 523 c 0
 397 523 438 501 469 457 c 1
 473 457 l 1xec
 494 510 l 1
 609 510 l 1xdc
 528 0 l 2
 506 -137 405 -217 236 -217 c 0
315 131 m 0
 347 131 377 145 410 182 c 1
 439 367 l 1
 416 393 391 403 360 403 c 0
 303 403 235 341 235 236 c 0
 235 169 266 131 315 131 c 0
EndSplineSet
Validated: 1
EndChar

StartChar: gdotaccent
Encoding: 289 289 171
Width: 600
GlyphClass: 2
Flags: HMW
HStem: -217 115<233.5 290.5 233.5 320.5> 13 118<204 331> 403 120<331.5 371 280.5 375.5> 490 20G<494 609 609 609> 586 200<392 425.5>
VStem: 84 151<202.5 288.5 202.5 309> 307 203<665.5 702.5>
AnchorPoint: "Ancre-2" 421 750 basechar 0
AnchorPoint: "Ancre-1" 0 0 basechar 0
AnchorPoint: "Ancre-0" 300 0 basechar 0
LayerCount: 2
Fore
SplineSet
393 586 m 0xee
 341 586 307 618 307 669 c 0
 307 736 360 786 424 786 c 0
 476 786 510 751 510 700 c 0
 510 631 458 586 393 586 c 0xee
236 -217 m 0
 181 -217 104 -202 54 -154 c 1
 118 -54 l 1
 160 -91 213 -102 254 -102 c 0
 327 -102 376 -55 384 -15 c 2
 400 68 l 1
 361 34 305 13 258 13 c 0
 150 13 84 97 84 218 c 0
 84 400 216 523 345 523 c 0
 397 523 438 501 469 457 c 1
 473 457 l 1xee
 494 510 l 1
 609 510 l 1xde
 528 0 l 2
 506 -137 405 -217 236 -217 c 0
315 131 m 0
 347 131 377 145 410 182 c 1
 439 367 l 1
 416 393 391 403 360 403 c 0
 303 403 235 341 235 236 c 0
 235 169 266 131 315 131 c 0
EndSplineSet
Validated: 1
EndChar

StartChar: uni1E21
Encoding: 7713 7713 172
Width: 600
GlyphClass: 2
Flags: HMW
HStem: -217 115<233.5 290.5 233.5 320.5> 13 118<204 331> 403 120<331.5 371 280.5 375.5> 490 20G<494 609 609 609> 592 93<256 546 270 532>
VStem: 84 151<202.5 288.5 202.5 309>
AnchorPoint: "Ancre-2" 410 685 basechar 0
AnchorPoint: "Ancre-1" 0 0 basechar 0
AnchorPoint: "Ancre-0" 300 0 basechar 0
LayerCount: 2
Fore
SplineSet
256 592 m 1xec
 270 685 l 1
 546 685 l 1
 532 592 l 1
 256 592 l 1xec
236 -217 m 0
 181 -217 104 -202 54 -154 c 1
 118 -54 l 1
 160 -91 213 -102 254 -102 c 0
 327 -102 376 -55 384 -15 c 2
 400 68 l 1
 361 34 305 13 258 13 c 0
 150 13 84 97 84 218 c 0
 84 400 216 523 345 523 c 0
 397 523 438 501 469 457 c 1
 473 457 l 1xec
 494 510 l 1
 609 510 l 1xdc
 528 0 l 2
 506 -137 405 -217 236 -217 c 0
315 131 m 0
 347 131 377 145 410 182 c 1
 439 367 l 1
 416 393 391 403 360 403 c 0
 303 403 235 341 235 236 c 0
 235 169 266 131 315 131 c 0
EndSplineSet
Validated: 1
EndChar

StartChar: h
Encoding: 104 104 173
Width: 600
GlyphClass: 2
Flags: HMW
HStem: 0 21G<72 72 72 219 393 393 393 540> 398 125<363 517.5>
VStem: 443 151
LayerCount: 2
Fore
SplineSet
72 0 m 1
 187 723 l 1
 334 723 l 1
 305 544 l 1
 281 445 l 1
 327 485 387 523 462 523 c 0
 554 523 595 469 595 377 c 0
 595 358 593 337 590 315 c 2
 540 0 l 1
 393 0 l 1
 440 296 l 2
 442 310 443 324 443 335 c 0
 443 378 426 398 383 398 c 0
 343 398 314 378 273 341 c 1
 219 0 l 1
 72 0 l 1
EndSplineSet
Validated: 1
EndChar

StartChar: hbar
Encoding: 295 295 174
Width: 600
GlyphClass: 2
Flags: HMW
HStem: 0 21G<72 72 72 219 393 393 393 540> 377 125<360 514.5> 574 71<310 503 321 492>
VStem: 440 151
LayerCount: 2
Fore
SplineSet
72 0 m 1
 163 574 l 1
 97 574 l 1
 107 639 l 1
 174 644 l 1
 187 723 l 1
 334 723 l 1
 321 645 l 1
 503 645 l 1
 492 574 l 1
 310 574 l 1
 302 523 l 1
 278 424 l 1
 324 465 384 502 459 502 c 0
 551 502 592 448 592 356 c 0
 592 337 590 316 587 294 c 2
 540 0 l 1
 393 0 l 1
 437 275 l 2
 439 289 440 303 440 314 c 0
 440 357 423 377 380 377 c 0
 340 377 311 358 270 321 c 1
 219 0 l 1
 72 0 l 1
EndSplineSet
Validated: 1
EndChar

StartChar: hcircumflex
Encoding: 293 293 175
Width: 600
GlyphClass: 2
Flags: HMW
HStem: 0 21G<72 72 72 219 393 393 393 540> 398 125<363 517.5> 772 123<104 363 104 363 327 327 327 363 220 439>
VStem: 443 151
LayerCount: 2
Fore
SplineSet
104 772 m 1
 220 895 l 1
 363 895 l 1
 439 772 l 1
 327 772 l 1
 283 835 l 1
 279 835 l 1
 216 772 l 1
 104 772 l 1
72 0 m 1
 187 723 l 1
 334 723 l 1
 305 544 l 1
 281 445 l 1
 327 485 387 523 462 523 c 0
 554 523 595 469 595 377 c 0
 595 358 593 337 590 315 c 2
 540 0 l 1
 393 0 l 1
 440 296 l 2
 442 310 443 324 443 335 c 0
 443 378 426 398 383 398 c 0
 343 398 314 378 273 341 c 1
 219 0 l 1
 72 0 l 1
EndSplineSet
Validated: 1
EndChar

StartChar: i
Encoding: 105 105 176
Width: 600
GlyphClass: 2
Flags: HMW
HStem: 0 119<61 250 80 250 397 548> 395 115<142 294 124 459> 570 200<390 423.5>
VStem: 305 203<649.5 686.5>
AnchorPoint: "Ancre-2" 419 734 basechar 0
AnchorPoint: "Ancre-1" 383 21 basechar 0
AnchorPoint: "Ancre-0" 253 0 basechar 0
LayerCount: 2
Fore
SplineSet
391 570 m 0
 339 570 305 602 305 653 c 0
 305 720 358 770 422 770 c 0
 474 770 508 735 508 684 c 0
 508 615 456 570 391 570 c 0
61 0 m 1
 80 119 l 1
 250 119 l 1
 294 395 l 1
 124 395 l 1
 142 510 l 1
 459 510 l 1
 397 119 l 1
 567 119 l 1
 548 0 l 1
 61 0 l 1
EndSplineSet
Validated: 1
Substitution2: "sous-table Substitution simple lookups14" dotlessi
Substitution2: "sous-table 'aalt' Activer toutes les variantes dans Latin lookup 0" dotlessi
EndChar

StartChar: dotlessi
Encoding: 305 305 177
Width: 600
GlyphClass: 2
Flags: HMW
HStem: 0 119<61 250 80 250 397 548> 395 115<142 294 124 459>
VStem: 61 506<0 119>
AnchorPoint: "Ancre-2" 376 494 basechar 0
AnchorPoint: "Ancre-1" 383 21 basechar 0
AnchorPoint: "Ancre-0" 253 0 basechar 0
LayerCount: 2
Fore
SplineSet
61 0 m 1
 80 119 l 1
 250 119 l 1
 294 395 l 1
 124 395 l 1
 142 510 l 1
 459 510 l 1
 397 119 l 1
 567 119 l 1
 548 0 l 1
 61 0 l 1
EndSplineSet
Validated: 1
EndChar

StartChar: iacute
Encoding: 237 237 178
Width: 600
GlyphClass: 2
Flags: HMW
HStem: 0 119<61 250 80 250 397 548> 395 115<142 294 124 459> 558 167<269 534 269 534>
VStem: 61 506<0 119>
AnchorPoint: "Ancre-2" 417 725 basechar 0
AnchorPoint: "Ancre-1" 383 21 basechar 0
AnchorPoint: "Ancre-0" 253 0 basechar 0
LayerCount: 2
Fore
SplineSet
269 558 m 1
 384 723 l 1
 534 723 l 1
 376 558 l 1
 269 558 l 1
61 0 m 1
 80 119 l 1
 250 119 l 1
 294 395 l 1
 124 395 l 1
 142 510 l 1
 459 510 l 1
 397 119 l 1
 567 119 l 1
 548 0 l 1
 61 0 l 1
EndSplineSet
Validated: 1
EndChar

StartChar: ibreve
Encoding: 301 301 179
Width: 600
GlyphClass: 2
Flags: HMW
HStem: 0 119<61 250 80 250 397 548> 395 115<142 294 124 459> 558 81<382 422 382 438.5>
VStem: 267 82<714 714>
AnchorPoint: "Ancre-2" 416 714 basechar 0
AnchorPoint: "Ancre-1" 383 21 basechar 0
AnchorPoint: "Ancre-0" 253 0 basechar 0
LayerCount: 2
Fore
SplineSet
389 558 m 0
 302 558 265 616 265 685 c 0
 265 694 266 704 267 714 c 1
 349 714 l 1
 349 712 349 709 349 707 c 0
 349 668 364 639 402 639 c 0
 442 639 467 672 479 714 c 1
 561 714 l 1
 546 633 488 558 389 558 c 0
61 0 m 1
 80 119 l 1
 250 119 l 1
 294 395 l 1
 124 395 l 1
 142 510 l 1
 459 510 l 1
 397 119 l 1
 567 119 l 1
 548 0 l 1
 61 0 l 1
EndSplineSet
Validated: 1
EndChar

StartChar: uni01D0
Encoding: 464 464 180
Width: 600
GlyphClass: 2
Flags: HMW
HStem: 0 119<61 250 80 250 397 548> 395 115<142 294 124 459> 558 167<327 327 327 360 253 451>
VStem: 61 516
AnchorPoint: "Ancre-2" 417 725 basechar 0
AnchorPoint: "Ancre-1" 383 21 basechar 0
AnchorPoint: "Ancre-0" 253 0 basechar 0
LayerCount: 2
Fore
SplineSet
327 558 m 1
 253 723 l 1
 360 723 l 1
 398 629 l 1
 402 629 l 1
 470 723 l 1
 577 723 l 1
 451 558 l 1
 327 558 l 1
61 0 m 1
 80 119 l 1
 250 119 l 1
 294 395 l 1
 124 395 l 1
 142 510 l 1
 459 510 l 1
 397 119 l 1
 567 119 l 1
 548 0 l 1
 61 0 l 1
EndSplineSet
Validated: 1
EndChar

StartChar: icircumflex
Encoding: 238 238 181
Width: 600
GlyphClass: 2
Flags: HMW
HStem: 0 119<61 250 80 250 397 548> 395 115<142 294 124 459> 558 167<227 477 227 477 444 444 444 477 353 551>
VStem: 61 506<0 119>
AnchorPoint: "Ancre-2" 417 725 basechar 0
AnchorPoint: "Ancre-1" 383 21 basechar 0
AnchorPoint: "Ancre-0" 253 0 basechar 0
LayerCount: 2
Fore
SplineSet
227 558 m 1
 353 723 l 1
 477 723 l 1
 551 558 l 1
 444 558 l 1
 406 653 l 1
 402 653 l 1
 334 558 l 1
 227 558 l 1
61 0 m 1
 80 119 l 1
 250 119 l 1
 294 395 l 1
 124 395 l 1
 142 510 l 1
 459 510 l 1
 397 119 l 1
 567 119 l 1
 548 0 l 1
 61 0 l 1
EndSplineSet
Validated: 1
EndChar

StartChar: idieresis
Encoding: 239 239 182
Width: 600
GlyphClass: 2
Flags: HMW
HStem: 0 119<61 250 80 250 397 548> 395 115<142 294 124 459> 555 157<278.5 305 496.5 522.5>
VStem: 212 159<620 647.5> 431 159<620 647>
AnchorPoint: "Ancre-2" 415 712 basechar 0
AnchorPoint: "Ancre-1" 383 21 basechar 0
AnchorPoint: "Ancre-0" 253 0 basechar 0
LayerCount: 2
Fore
SplineSet
279 555 m 0
 238 555 212 584 212 623 c 0
 212 672 253 712 304 712 c 0
 345 712 371 683 371 645 c 0
 371 595 331 555 279 555 c 0
497 555 m 0
 456 555 431 584 431 622 c 0
 431 672 471 712 522 712 c 0
 564 712 590 683 590 645 c 0
 590 595 548 555 497 555 c 0
61 0 m 1
 80 119 l 1
 250 119 l 1
 294 395 l 1
 124 395 l 1
 142 510 l 1
 459 510 l 1
 397 119 l 1
 567 119 l 1
 548 0 l 1
 61 0 l 1
EndSplineSet
Validated: 1
EndChar

StartChar: igrave
Encoding: 236 236 183
Width: 600
GlyphClass: 2
Flags: HMW
HStem: 0 119<61 250 80 250 397 548> 395 115<142 294 124 459> 558 167<401 401 401 445 295 508>
VStem: 61 506<0 119>
AnchorPoint: "Ancre-2" 417 725 basechar 0
AnchorPoint: "Ancre-1" 383 21 basechar 0
AnchorPoint: "Ancre-0" 253 0 basechar 0
LayerCount: 2
Fore
SplineSet
401 558 m 1
 295 723 l 1
 445 723 l 1
 508 558 l 1
 401 558 l 1
61 0 m 1
 80 119 l 1
 250 119 l 1
 294 395 l 1
 124 395 l 1
 142 510 l 1
 459 510 l 1
 397 119 l 1
 567 119 l 1
 548 0 l 1
 61 0 l 1
EndSplineSet
Validated: 1
EndChar

StartChar: imacron
Encoding: 299 299 184
Width: 600
GlyphClass: 2
Flags: HMW
HStem: 0 119<61 250 80 250 397 548> 395 115<142 294 124 459> 576 93<254 544 268 530>
VStem: 61 506<0 119>
AnchorPoint: "Ancre-2" 408 669 basechar 0
AnchorPoint: "Ancre-1" 383 21 basechar 0
AnchorPoint: "Ancre-0" 253 0 basechar 0
LayerCount: 2
Fore
SplineSet
254 576 m 1
 268 669 l 1
 544 669 l 1
 530 576 l 1
 254 576 l 1
61 0 m 1
 80 119 l 1
 250 119 l 1
 294 395 l 1
 124 395 l 1
 142 510 l 1
 459 510 l 1
 397 119 l 1
 567 119 l 1
 548 0 l 1
 61 0 l 1
EndSplineSet
Validated: 1
EndChar

StartChar: iogonek
Encoding: 303 303 185
Width: 600
GlyphClass: 2
Flags: HMW
HStem: -199 87<221 303.5> 0 119<80 226 61 250 397 548 80 311> 395 115<142 294 124 459> 570 200<390 423.5>
VStem: 155 105<-146.5 -67> 305 203<649.5 686.5>
AnchorPoint: "Ancre-2" 419 734 basechar 0
AnchorPoint: "Ancre-1" 383 21 basechar 0
AnchorPoint: "Ancre-0" 253 0 basechar 0
LayerCount: 2
Fore
SplineSet
391 570 m 0
 339 570 305 602 305 653 c 0
 305 720 358 770 422 770 c 0
 474 770 508 735 508 684 c 0
 508 615 456 570 391 570 c 0
311 0 m 1
 276 -28 260 -54 260 -80 c 0
 260 -103 278 -112 297 -112 c 0
 310 -112 323 -106 333 -100 c 1
 354 -166 l 1
 325 -186 279 -199 248 -199 c 0
 194 -199 155 -172 155 -121 c 0
 155 -67 195 -25 226 0 c 1
 61 0 l 1
 80 119 l 1
 250 119 l 1
 294 395 l 1
 124 395 l 1
 142 510 l 1
 459 510 l 1
 397 119 l 1
 567 119 l 1
 548 0 l 1
 311 0 l 1
EndSplineSet
Validated: 1
EndChar

StartChar: itilde
Encoding: 297 297 186
Width: 600
GlyphClass: 2
Flags: HMW
HStem: 0 119<61 250 80 250 397 548> 395 115<142 294 124 459> 559 143<218 382.5 218 382.5 327.5 473.5>
VStem: 61 522
AnchorPoint: "Ancre-2" 414 702 basechar 0
AnchorPoint: "Ancre-1" 383 21 basechar 0
AnchorPoint: "Ancre-0" 253 0 basechar 0
LayerCount: 2
Fore
SplineSet
218 559 m 1
 245 656 297 702 358 702 c 0
 407 702 428 650 456 650 c 0
 477 650 493 663 508 702 c 1
 583 702 l 1
 556 606 504 559 443 559 c 0
 393 559 372 612 344 612 c 0
 323 612 308 599 293 559 c 1
 218 559 l 1
61 0 m 1
 80 119 l 1
 250 119 l 1
 294 395 l 1
 124 395 l 1
 142 510 l 1
 459 510 l 1
 397 119 l 1
 567 119 l 1
 548 0 l 1
 61 0 l 1
EndSplineSet
Validated: 1
EndChar

StartChar: j
Encoding: 106 106 187
Width: 600
GlyphClass: 2
Flags: HMW
HStem: -217 115<155.5 205.5 155.5 251> 395 115<160 340 142 506> 586 200<437 470.5>
VStem: 352 203<665.5 702.5>
AnchorPoint: "Ancre-2" 466 750 basechar 0
AnchorPoint: "Ancre-1" 0 0 basechar 0
AnchorPoint: "Ancre-0" 300 0 basechar 0
LayerCount: 2
Fore
SplineSet
438 586 m 0
 386 586 352 618 352 669 c 0
 352 736 405 786 469 786 c 0
 521 786 555 751 555 700 c 0
 555 631 503 586 438 586 c 0
161 -217 m 0
 100 -217 53 -203 13 -182 c 1
 73 -77 l 1
 110 -96 141 -102 170 -102 c 0
 241 -102 272 -37 279 8 c 2
 340 395 l 1
 142 395 l 1
 160 510 l 1
 506 510 l 1
 427 14 l 2
 407 -111 341 -217 161 -217 c 0
EndSplineSet
Validated: 1
Substitution2: "sous-table Substitution simple lookups14" uni0237
Substitution2: "sous-table 'aalt' Activer toutes les variantes dans Latin lookup 0" uni0237
EndChar

StartChar: uni0237
Encoding: 567 567 188
Width: 600
GlyphClass: 2
Flags: HMW
HStem: -217 115<155.5 205.5 155.5 251> 395 115<160 340 142 506>
VStem: 13 493
AnchorPoint: "Ancre-2" 426 510 basechar 0
AnchorPoint: "Ancre-1" 0 0 basechar 0
AnchorPoint: "Ancre-0" 300 0 basechar 0
LayerCount: 2
Fore
SplineSet
161 -217 m 0
 100 -217 53 -203 13 -182 c 1
 73 -77 l 1
 110 -96 141 -102 170 -102 c 0
 241 -102 272 -37 279 8 c 2
 340 395 l 1
 142 395 l 1
 160 510 l 1
 506 510 l 1
 427 14 l 2
 407 -111 341 -217 161 -217 c 0
EndSplineSet
Validated: 1
EndChar

StartChar: jcircumflex
Encoding: 309 309 189
Width: 600
GlyphClass: 2
Flags: HMW
HStem: -217 115<155.5 205.5 155.5 251> 395 115<160 340 142 506> 574 167<274 524 274 524 491 491 491 524 400 598>
VStem: 13 585
AnchorPoint: "Ancre-2" 464 741 basechar 0
AnchorPoint: "Ancre-1" 0 0 basechar 0
AnchorPoint: "Ancre-0" 300 0 basechar 0
LayerCount: 2
Fore
SplineSet
274 574 m 1
 400 741 l 1
 524 741 l 1
 598 574 l 1
 491 574 l 1
 453 669 l 1
 449 669 l 1
 381 574 l 1
 274 574 l 1
161 -217 m 0
 100 -217 53 -203 13 -182 c 1
 73 -77 l 1
 110 -96 141 -102 170 -102 c 0
 241 -102 272 -37 279 8 c 2
 340 395 l 1
 142 395 l 1
 160 510 l 1
 506 510 l 1
 427 14 l 2
 407 -111 341 -217 161 -217 c 0
EndSplineSet
Validated: 1
EndChar

StartChar: k
Encoding: 107 107 190
Width: 600
GlyphClass: 2
Flags: HMW
HStem: 0 21G<76 76 76 223 426 426 426 585> 490 20G<490 651 651 651>
VStem: 76 575<0 510>
LayerCount: 2
Fore
SplineSet
76 0 m 1
 191 723 l 1
 338 723 l 1
 271 300 l 1
 275 300 l 1
 490 510 l 1
 651 510 l 1
 430 301 l 1
 585 0 l 1
 426 0 l 1
 329 211 l 1
 243 129 l 1
 223 0 l 1
 76 0 l 1
EndSplineSet
Validated: 1
EndChar

StartChar: kgreenlandic
Encoding: 312 312 191
Width: 600
GlyphClass: 2
Flags: HMW
HStem: 0 21G<76 76 76 223 426 426 426 585> 490 20G<157 304 304 304 490 651 651 651>
VStem: 76 575<0 510>
LayerCount: 2
Fore
SplineSet
76 0 m 1
 157 510 l 1
 304 510 l 1
 271 303 l 1
 274 304 l 1
 490 510 l 1
 651 510 l 1
 430 301 l 1
 585 0 l 1
 426 0 l 1
 329 204 l 1
 243 127 l 1
 223 0 l 1
 76 0 l 1
EndSplineSet
Validated: 1
EndChar

StartChar: l
Encoding: 108 108 192
Width: 600
GlyphClass: 2
Flags: HMW
HStem: -12 119<330.5 461.5> 607 116<177 302 158 467>
VStem: 158 389
LayerCount: 2
Fore
SplineSet
393 -12 m 0
 286 -12 233 48 233 147 c 0
 233 163 234 180 237 198 c 2
 302 607 l 1
 158 607 l 1
 177 723 l 1
 467 723 l 1
 383 191 l 2
 382 184 381 177 381 171 c 0
 381 123 414 107 450 107 c 0
 473 107 498 111 531 124 c 1
 547 16 l 1
 492 -1 455 -12 393 -12 c 0
EndSplineSet
Validated: 1
EndChar

StartChar: lacute
Encoding: 314 314 193
Width: 600
GlyphClass: 2
Flags: HMW
HStem: -12 119<330.5 461.5> 607 116<177 302 158 467> 780 123<314 570 414 431>
VStem: 158 412<607 903>
LayerCount: 2
Fore
SplineSet
314 780 m 1
 414 903 l 1
 570 903 l 1
 431 780 l 1
 314 780 l 1
393 -12 m 0
 286 -12 233 48 233 147 c 0
 233 163 234 180 237 198 c 2
 302 607 l 1
 158 607 l 1
 177 723 l 1
 467 723 l 1
 383 191 l 2
 382 184 381 177 381 171 c 0
 381 123 414 107 450 107 c 0
 473 107 498 111 531 124 c 1
 547 16 l 1
 492 -1 455 -12 393 -12 c 0
EndSplineSet
Validated: 1
EndChar

StartChar: lcaron
Encoding: 318 318 194
Width: 600
GlyphClass: 2
Flags: HMW
HStem: -12 119<330.5 461.5> 607 116<177 302 158 467>
VStem: 158 470<607 792>
LayerCount: 2
Fore
SplineSet
503 564 m 1
 534 792 l 1
 628 792 l 1
 616 723 l 1
 566 564 l 1
 503 564 l 1
393 -12 m 0
 286 -12 233 48 233 147 c 0
 233 163 234 180 237 198 c 2
 302 607 l 1
 158 607 l 1
 177 723 l 1
 467 723 l 1
 383 191 l 2
 382 184 381 177 381 171 c 0
 381 123 414 107 450 107 c 0
 473 107 498 111 531 124 c 1
 547 16 l 1
 492 -1 455 -12 393 -12 c 0
EndSplineSet
Validated: 1
EndChar

StartChar: ldot
Encoding: 320 320 195
Width: 600
GlyphClass: 2
Flags: HMW
HStem: -12 119<281 412.5> 271 183<511.5 545.5> 607 116<127 252 108 417>
VStem: 108 520<344.5 607> 429 199<344.5 379.5>
LayerCount: 2
Fore
SplineSet
343 -12 m 0xf0
 236 -12 183 48 183 147 c 0
 183 163 184 180 187 198 c 2
 252 607 l 1
 108 607 l 1
 127 723 l 1
 417 723 l 1
 333 191 l 2
 332 184 331 177 331 171 c 0
 331 123 364 107 401 107 c 0
 424 107 448 111 481 124 c 1
 497 16 l 1
 443 -1 405 -12 343 -12 c 0xf0
514 271 m 0xe8
 463 271 429 303 429 349 c 0
 429 410 480 454 543 454 c 0
 594 454 628 422 628 375 c 0
 628 314 577 271 514 271 c 0xe8
EndSplineSet
Validated: 1
LCarets2: 1 0
Ligature2: "sous-table Substitution de ligature lookups15" l periodcentered
EndChar

StartChar: lslash
Encoding: 322 322 196
Width: 600
GlyphClass: 2
Flags: HMW
HStem: -12 119<330.5 461.5> 607 116<177 302 158 468>
VStem: 128 462<223 563>
LayerCount: 2
Fore
SplineSet
393 -12 m 0
 286 -12 233 48 233 147 c 0
 233 163 234 180 237 198 c 2
 251 288 l 1
 128 223 l 1
 147 340 l 1
 270 406 l 1
 302 607 l 1
 158 607 l 1
 177 723 l 1
 468 723 l 1
 429 479 l 1
 590 563 l 1
 571 445 l 1
 410 361 l 1
 383 191 l 2
 382 184 381 177 381 171 c 0
 381 123 414 107 450 107 c 0
 473 107 498 111 531 124 c 1
 547 16 l 1
 492 -1 455 -12 393 -12 c 0
EndSplineSet
Validated: 1
EndChar

StartChar: m
Encoding: 109 109 197
Width: 600
GlyphClass: 2
Flags: HMW
HStem: 0 21G<36 36 36 174 248 248 248 361 435 435 435 573> 398 112<117 291.5> 490 20G<117 227 227 227> 503 20G<321.5 372 518 580.5>
VStem: 303 121 490 144
LayerCount: 2
Fore
SplineSet
36 0 m 1x94
 117 510 l 1
 227 510 l 1xa4
 228 446 l 1
 232 446 l 1
 257 489 293 523 350 523 c 0
 394 523 420 494 424 439 c 1
 449 486 490 523 546 523 c 0x9c
 603 523 634 480 634 407 c 0
 634 392 633 376 630 358 c 2
 573 0 l 1
 435 0 l 1
 490 347 l 2
 491 355 492 362 492 368 c 0
 492 388 485 398 470 398 c 0
 451 398 434 380 416 346 c 1
 361 0 l 1
 248 0 l 1
 303 347 l 2
 304 354 305 360 305 366 c 0
 305 387 297 398 282 398 c 0
 263 398 248 380 229 346 c 1xcc
 174 0 l 1
 36 0 l 1x94
EndSplineSet
Validated: 1
EndChar

StartChar: n
Encoding: 110 110 198
Width: 600
GlyphClass: 2
Flags: HMW
HStem: 0 21G<72 72 72 219 393 393 393 540> 398 125<363 517> 490 20G<153 273 273 273>
VStem: 443 151
AnchorPoint: "Ancre-2" 391 510 basechar 0
AnchorPoint: "Ancre-1" 0 0 basechar 0
AnchorPoint: "Ancre-0" 300 0 basechar 0
LayerCount: 2
Fore
SplineSet
72 0 m 1xb0
 153 510 l 1
 273 510 l 1xb0
 273 441 l 1
 277 441 l 1
 327 485 387 523 461 523 c 0
 554 523 595 469 595 377 c 0
 595 358 593 337 590 315 c 2
 540 0 l 1
 393 0 l 1
 440 296 l 2
 442 310 443 324 443 335 c 0
 443 378 426 398 383 398 c 0
 343 398 314 378 273 341 c 1xd0
 219 0 l 1
 72 0 l 1xb0
EndSplineSet
Validated: 1
EndChar

StartChar: nacute
Encoding: 324 324 199
Width: 600
GlyphClass: 2
Flags: HMW
HStem: 0 21G<72 72 72 219 393 393 393 540> 398 125<363 517> 490 20G<153 273 273 273> 574 167<281 546 281 546>
VStem: 443 151
AnchorPoint: "Ancre-2" 429 741 basechar 0
AnchorPoint: "Ancre-1" 0 0 basechar 0
AnchorPoint: "Ancre-0" 300 0 basechar 0
LayerCount: 2
Fore
SplineSet
281 574 m 1xb8
 396 741 l 1
 546 741 l 1
 388 574 l 1
 281 574 l 1xb8
72 0 m 1
 153 510 l 1
 273 510 l 1xb8
 273 441 l 1
 277 441 l 1
 327 485 387 523 461 523 c 0
 554 523 595 469 595 377 c 0
 595 358 593 337 590 315 c 2
 540 0 l 1
 393 0 l 1
 440 296 l 2
 442 310 443 324 443 335 c 0
 443 378 426 398 383 398 c 0
 343 398 314 378 273 341 c 1xd8
 219 0 l 1
 72 0 l 1
EndSplineSet
Validated: 1
EndChar

StartChar: ncaron
Encoding: 328 328 200
Width: 600
GlyphClass: 2
Flags: HMW
HStem: 0 21G<72 72 72 219 393 393 393 540> 398 125<363 517> 490 20G<153 273 273 273> 574 167<339 339 339 372 265 463>
VStem: 443 151
AnchorPoint: "Ancre-2" 429 741 basechar 0
AnchorPoint: "Ancre-1" 0 0 basechar 0
AnchorPoint: "Ancre-0" 300 0 basechar 0
LayerCount: 2
Fore
SplineSet
339 574 m 1xb8
 265 741 l 1
 372 741 l 1
 410 645 l 1
 414 645 l 1
 482 741 l 1
 589 741 l 1
 463 574 l 1
 339 574 l 1xb8
72 0 m 1
 153 510 l 1
 273 510 l 1xb8
 273 441 l 1
 277 441 l 1
 327 485 387 523 461 523 c 0
 554 523 595 469 595 377 c 0
 595 358 593 337 590 315 c 2
 540 0 l 1
 393 0 l 1
 440 296 l 2
 442 310 443 324 443 335 c 0
 443 378 426 398 383 398 c 0
 343 398 314 378 273 341 c 1xd8
 219 0 l 1
 72 0 l 1
EndSplineSet
Validated: 1
EndChar

StartChar: uni1E45
Encoding: 7749 7749 201
Width: 600
GlyphClass: 2
Flags: HMW
HStem: 0 21G<72 72 72 219 393 393 393 540> 398 125<363 517> 490 20G<153 273 273 273> 586 200<402 435.5>
VStem: 317 203<665.5 702.5> 443 151
AnchorPoint: "Ancre-2" 431 750 basechar 0
AnchorPoint: "Ancre-1" 0 0 basechar 0
AnchorPoint: "Ancre-0" 300 0 basechar 0
LayerCount: 2
Fore
SplineSet
403 586 m 0xd8
 351 586 317 618 317 669 c 0
 317 736 370 786 434 786 c 0
 486 786 520 751 520 700 c 0
 520 631 468 586 403 586 c 0xd8
72 0 m 1
 153 510 l 1
 273 510 l 1xb4
 273 441 l 1
 277 441 l 1
 327 485 387 523 461 523 c 0
 554 523 595 469 595 377 c 0
 595 358 593 337 590 315 c 2
 540 0 l 1
 393 0 l 1
 440 296 l 2
 442 310 443 324 443 335 c 0
 443 378 426 398 383 398 c 0xd4
 343 398 314 378 273 341 c 1
 219 0 l 1
 72 0 l 1
EndSplineSet
Validated: 1
EndChar

StartChar: ntilde
Encoding: 241 241 202
Width: 600
GlyphClass: 2
Flags: HMW
HStem: 0 21G<72 72 72 219 393 393 393 540> 398 125<363 517> 490 20G<153 273 273 273> 575 91<454 478.5 454 485.5> 575 143<230 394.5 230 394.5 339.5 485.5> 628 90<345.5 370>
VStem: 443 151
AnchorPoint: "Ancre-2" 426 718 basechar 0
AnchorPoint: "Ancre-1" 0 0 basechar 0
AnchorPoint: "Ancre-0" 300 0 basechar 0
LayerCount: 2
Fore
SplineSet
230 575 m 1xb2
 257 672 309 718 370 718 c 0
 419 718 440 666 468 666 c 0xb2
 489 666 505 679 520 718 c 1
 595 718 l 1xaa
 568 622 516 575 455 575 c 0xb2
 405 575 384 628 356 628 c 0xa6
 335 628 320 615 305 575 c 1
 230 575 l 1xb2
72 0 m 1
 153 510 l 1
 273 510 l 1xb2
 273 441 l 1
 277 441 l 1
 327 485 387 523 461 523 c 0
 554 523 595 469 595 377 c 0
 595 358 593 337 590 315 c 2
 540 0 l 1
 393 0 l 1
 440 296 l 2
 442 310 443 324 443 335 c 0
 443 378 426 398 383 398 c 0
 343 398 314 378 273 341 c 1xd2
 219 0 l 1
 72 0 l 1
EndSplineSet
Validated: 1
EndChar

StartChar: o
Encoding: 111 111 203
Width: 600
GlyphClass: 2
Flags: HMW
HStem: -12 119<289 359 289 371> 404 119<322 392>
VStem: 83 152<184.5 269.5 184.5 310> 446 152<240.5 326>
AnchorPoint: "Ancre-2" 381 510 basechar 0
AnchorPoint: "Ancre-1" 0 0 basechar 0
AnchorPoint: "Ancre-0" 300 0 basechar 0
LayerCount: 2
Fore
SplineSet
298 -12 m 0
 181 -12 83 70 83 213 c 0
 83 407 237 523 383 523 c 0
 500 523 598 440 598 297 c 0
 598 103 444 -12 298 -12 c 0
317 107 m 0
 401 107 446 189 446 292 c 0
 446 360 420 404 364 404 c 0
 280 404 235 321 235 218 c 0
 235 151 261 107 317 107 c 0
EndSplineSet
Validated: 1
Substitution2: "sous-table Substitution simple lookups16" ordmasculine
Substitution2: "sous-table 'aalt' Activer toutes les variantes dans Latin lookup 0" ordmasculine
EndChar

StartChar: oacute
Encoding: 243 243 204
Width: 600
GlyphClass: 2
Flags: HMW
HStem: -12 119<289 359 289 371> 404 119<322 392> 574 167<271 536 271 536>
VStem: 83 152<184.5 269.5 184.5 310> 446 152<240.5 326>
AnchorPoint: "Ancre-2" 419 741 basechar 0
AnchorPoint: "Ancre-1" 0 0 basechar 0
AnchorPoint: "Ancre-0" 300 0 basechar 0
LayerCount: 2
Fore
SplineSet
271 574 m 1
 386 741 l 1
 536 741 l 1
 378 574 l 1
 271 574 l 1
298 -12 m 0
 181 -12 83 70 83 213 c 0
 83 407 237 523 383 523 c 0
 500 523 598 440 598 297 c 0
 598 103 444 -12 298 -12 c 0
317 107 m 0
 401 107 446 189 446 292 c 0
 446 360 420 404 364 404 c 0
 280 404 235 321 235 218 c 0
 235 151 261 107 317 107 c 0
EndSplineSet
Validated: 1
EndChar

StartChar: obreve
Encoding: 335 335 205
Width: 600
GlyphClass: 2
Flags: HMW
HStem: -12 119<289 359 289 371> 404 119<322 392> 574 81<384 424 384 440.5>
VStem: 83 152<184.5 269.5 184.5 310> 269 82<730 730> 446 152<240.5 326>
AnchorPoint: "Ancre-2" 418 730 basechar 0
AnchorPoint: "Ancre-1" 0 0 basechar 0
AnchorPoint: "Ancre-0" 300 0 basechar 0
LayerCount: 2
Fore
SplineSet
391 574 m 0
 304 574 267 632 267 701 c 0
 267 710 268 720 269 730 c 1
 351 730 l 1
 351 728 351 725 351 723 c 0
 351 684 366 655 404 655 c 0
 444 655 469 688 481 730 c 1
 563 730 l 1
 548 649 490 574 391 574 c 0
298 -12 m 0
 181 -12 83 70 83 213 c 0
 83 407 237 523 383 523 c 0
 500 523 598 440 598 297 c 0
 598 103 444 -12 298 -12 c 0
317 107 m 0
 401 107 446 189 446 292 c 0
 446 360 420 404 364 404 c 0
 280 404 235 321 235 218 c 0
 235 151 261 107 317 107 c 0
EndSplineSet
Validated: 1
EndChar

StartChar: uni01D2
Encoding: 466 466 206
Width: 600
GlyphClass: 2
Flags: HMW
HStem: -12 119<289 359 289 371> 404 119<322 392> 574 167<329 329 329 362 255 453>
VStem: 83 152<184.5 269.5 184.5 310> 446 152<240.5 326>
AnchorPoint: "Ancre-2" 419 741 basechar 0
AnchorPoint: "Ancre-1" 0 0 basechar 0
AnchorPoint: "Ancre-0" 300 0 basechar 0
LayerCount: 2
Fore
SplineSet
329 574 m 1
 255 741 l 1
 362 741 l 1
 400 645 l 1
 404 645 l 1
 472 741 l 1
 579 741 l 1
 453 574 l 1
 329 574 l 1
298 -12 m 0
 181 -12 83 70 83 213 c 0
 83 407 237 523 383 523 c 0
 500 523 598 440 598 297 c 0
 598 103 444 -12 298 -12 c 0
317 107 m 0
 401 107 446 189 446 292 c 0
 446 360 420 404 364 404 c 0
 280 404 235 321 235 218 c 0
 235 151 261 107 317 107 c 0
EndSplineSet
Validated: 1
EndChar

StartChar: ocircumflex
Encoding: 244 244 207
Width: 600
GlyphClass: 2
Flags: HMW
HStem: -12 119<289 359 289 371> 404 119<322 392> 574 167<229 479 229 479 446 446 446 479 355 553>
VStem: 83 152<184.5 269.5 184.5 310> 446 152<240.5 326>
AnchorPoint: "Ancre-2" 419 741 basechar 0
AnchorPoint: "Ancre-1" 0 0 basechar 0
AnchorPoint: "Ancre-0" 300 0 basechar 0
LayerCount: 2
Fore
SplineSet
229 574 m 1
 355 741 l 1
 479 741 l 1
 553 574 l 1
 446 574 l 1
 408 669 l 1
 404 669 l 1
 336 574 l 1
 229 574 l 1
298 -12 m 0
 181 -12 83 70 83 213 c 0
 83 407 237 523 383 523 c 0
 500 523 598 440 598 297 c 0
 598 103 444 -12 298 -12 c 0
317 107 m 0
 401 107 446 189 446 292 c 0
 446 360 420 404 364 404 c 0
 280 404 235 321 235 218 c 0
 235 151 261 107 317 107 c 0
EndSplineSet
Validated: 1
EndChar

StartChar: odieresis
Encoding: 246 246 208
Width: 600
GlyphClass: 2
Flags: HMW
HStem: -12 119<289 359 289 371> 404 119<322 392> 571 157<280.5 307 498.5 524.5>
VStem: 83 152<184.5 269.5 184.5 310> 214 159<636 663.5> 433 159<636 663> 446 152<240.5 326>
AnchorPoint: "Ancre-2" 417 728 basechar 0
AnchorPoint: "Ancre-1" 0 0 basechar 0
AnchorPoint: "Ancre-0" 300 0 basechar 0
LayerCount: 2
Fore
SplineSet
281 571 m 0xec
 240 571 214 600 214 639 c 0
 214 688 255 728 306 728 c 0
 347 728 373 698 373 660 c 0
 373 610 333 571 281 571 c 0xec
499 571 m 0
 458 571 433 600 433 638 c 0
 433 688 473 728 524 728 c 0
 566 728 592 698 592 660 c 0
 592 610 550 571 499 571 c 0
298 -12 m 0xf2
 181 -12 83 70 83 213 c 0
 83 407 237 523 383 523 c 0
 500 523 598 440 598 297 c 0
 598 103 444 -12 298 -12 c 0xf2
317 107 m 0
 401 107 446 189 446 292 c 0
 446 360 420 404 364 404 c 0
 280 404 235 321 235 218 c 0
 235 151 261 107 317 107 c 0
EndSplineSet
Validated: 1
EndChar

StartChar: ograve
Encoding: 242 242 209
Width: 600
GlyphClass: 2
Flags: HMW
HStem: -12 119<289 359 289 371> 404 119<322 392> 574 167<403 403 403 447 297 510>
VStem: 83 152<184.5 269.5 184.5 310> 446 152<240.5 326>
AnchorPoint: "Ancre-2" 419 741 basechar 0
AnchorPoint: "Ancre-1" 0 0 basechar 0
AnchorPoint: "Ancre-0" 300 0 basechar 0
LayerCount: 2
Fore
SplineSet
403 574 m 1
 297 741 l 1
 447 741 l 1
 510 574 l 1
 403 574 l 1
298 -12 m 0
 181 -12 83 70 83 213 c 0
 83 407 237 523 383 523 c 0
 500 523 598 440 598 297 c 0
 598 103 444 -12 298 -12 c 0
317 107 m 0
 401 107 446 189 446 292 c 0
 446 360 420 404 364 404 c 0
 280 404 235 321 235 218 c 0
 235 151 261 107 317 107 c 0
EndSplineSet
Validated: 1
EndChar

StartChar: ohungarumlaut
Encoding: 337 337 210
Width: 600
GlyphClass: 2
Flags: HMW
HStem: -12 119<289 359 289 371> 404 119<322 392> 573 151<213 422 213 422 383 422 305 474 383 383>
VStem: 83 152<184.5 269.5 184.5 310> 446 152<240.5 326>
AnchorPoint: "Ancre-2" 381 510 basechar 0
AnchorPoint: "Ancre-1" 0 0 basechar 0
AnchorPoint: "Ancre-0" 300 0 basechar 0
LayerCount: 2
Fore
SplineSet
213 573 m 1
 305 723 l 1
 422 723 l 1
 303 573 l 1
 213 573 l 1
383 573 m 1
 476 723 l 1
 593 723 l 1
 474 573 l 1
 383 573 l 1
298 -12 m 0
 181 -12 83 70 83 213 c 0
 83 407 237 523 383 523 c 0
 500 523 598 440 598 297 c 0
 598 103 444 -12 298 -12 c 0
317 107 m 0
 401 107 446 189 446 292 c 0
 446 360 420 404 364 404 c 0
 280 404 235 321 235 218 c 0
 235 151 261 107 317 107 c 0
EndSplineSet
Validated: 1
EndChar

StartChar: omacron
Encoding: 333 333 211
Width: 600
GlyphClass: 2
Flags: HMW
HStem: -12 119<289 359 289 371> 404 119<322 392> 592 93<256 546 270 532>
VStem: 83 152<184.5 269.5 184.5 310> 446 152<240.5 326>
AnchorPoint: "Ancre-2" 410 685 basechar 0
AnchorPoint: "Ancre-1" 0 0 basechar 0
AnchorPoint: "Ancre-0" 300 0 basechar 0
LayerCount: 2
Fore
SplineSet
256 592 m 1
 270 685 l 1
 546 685 l 1
 532 592 l 1
 256 592 l 1
298 -12 m 0
 181 -12 83 70 83 213 c 0
 83 407 237 523 383 523 c 0
 500 523 598 440 598 297 c 0
 598 103 444 -12 298 -12 c 0
317 107 m 0
 401 107 446 189 446 292 c 0
 446 360 420 404 364 404 c 0
 280 404 235 321 235 218 c 0
 235 151 261 107 317 107 c 0
EndSplineSet
Validated: 1
EndChar

StartChar: uni01EB
Encoding: 491 491 212
Width: 600
GlyphClass: 2
Flags: HMW
HStem: -210 21G<260 302.5> -210 87<260 342.5> -10 21G 404 119<322 392>
VStem: 83 152<184.5 269.5 184.5 310> 194 105<-157.5 -77> 446 152<240.5 326>
AnchorPoint: "Ancre-2" 381 510 basechar 0
AnchorPoint: "Ancre-1" 0 0 basechar 0
AnchorPoint: "Ancre-0" 300 0 basechar 0
LayerCount: 2
Fore
SplineSet
356 -6 m 1xb6
 317 -36 299 -63 299 -91 c 0
 299 -114 317 -123 336 -123 c 0
 349 -123 362 -117 372 -111 c 1x76
 393 -177 l 1
 364 -197 318 -210 287 -210 c 0
 233 -210 194 -183 194 -132 c 0xb6
 194 -78 235 -36 267 -12 c 1
 164 1 83 83 83 213 c 0xba
 83 407 237 523 383 523 c 0
 500 523 598 440 598 297 c 0
 598 129 482 20 356 -6 c 1xb6
235 218 m 0xba
 235 151 261 107 317 107 c 0
 401 107 446 189 446 292 c 0
 446 360 420 404 364 404 c 0
 280 404 235 321 235 218 c 0xba
EndSplineSet
Validated: 1
EndChar

StartChar: oslash
Encoding: 248 248 213
Width: 600
GlyphClass: 2
Flags: HMW
HStem: -12 114<304 358 304 371> 408 115<323 377>
VStem: 83 151<212.5 268 212.5 310> 447 151<243 299.5>
AnchorPoint: "Ancre-2" 381 510 basechar 0
AnchorPoint: "Ancre-1" 0 0 basechar 0
AnchorPoint: "Ancre-0" 0 0 basechar 0
LayerCount: 2
Fore
SplineSet
113 -26 m 1
 65 17 l 1
 120 75 l 1
 97 109 83 159 83 213 c 0
 83 407 237 523 383 523 c 0
 432 523 478 509 514 482 c 1
 568 538 l 1
 616 494 l 1
 560 436 l 1
 584 402 598 351 598 297 c 0
 598 103 444 -12 298 -12 c 0
 248 -12 202 2 166 29 c 1
 113 -26 l 1
235 190 m 1
 420 387 l 1
 407 401 389 408 365 408 c 0
 281 408 234 320 234 216 c 0
 234 209 234 196 235 190 c 1
316 102 m 0
 400 102 447 190 447 296 c 0
 447 303 447 316 446 322 c 1
 260 125 l 1
 273 110 292 102 316 102 c 0
EndSplineSet
Validated: 1
EndChar

StartChar: otilde
Encoding: 245 245 214
Width: 600
GlyphClass: 2
Flags: HMW
HStem: -12 119<289 359 289 371> 404 119<322 392> 575 91<444 468.5 444 475.5> 575 143<220 384.5 220 384.5 329.5 475.5> 628 90<335.5 360>
VStem: 83 152<184.5 269.5 184.5 310> 446 152<240.5 326>
AnchorPoint: "Ancre-2" 416 718 basechar 0
AnchorPoint: "Ancre-1" 0 0 basechar 0
AnchorPoint: "Ancre-0" 300 0 basechar 0
LayerCount: 2
Fore
SplineSet
220 575 m 1xe6
 247 672 299 718 360 718 c 0
 409 718 430 666 458 666 c 0xe6
 479 666 495 679 510 718 c 1
 585 718 l 1xd6
 558 622 506 575 445 575 c 0xe6
 395 575 374 628 346 628 c 0xce
 325 628 310 615 295 575 c 1
 220 575 l 1xe6
298 -12 m 0
 181 -12 83 70 83 213 c 0
 83 407 237 523 383 523 c 0
 500 523 598 440 598 297 c 0
 598 103 444 -12 298 -12 c 0
317 107 m 0
 401 107 446 189 446 292 c 0
 446 360 420 404 364 404 c 0
 280 404 235 321 235 218 c 0
 235 151 261 107 317 107 c 0
EndSplineSet
Validated: 1
EndChar

StartChar: oe
Encoding: 339 339 215
Width: 600
GlyphClass: 2
Flags: HMW
HStem: -12 115<446.5 466.5> -12 118<207.5 222.5> 212 91<410 524 410 620 398 524> 405 118<239.5 283> 410 113<496.5 511>
VStem: 46 132<172 247.5 172 296> 309 89<212 339.5> 528 114
LayerCount: 2
Fore
SplineSet
193 -12 m 0x75
 107 -12 46 64 46 195 c 0
 46 397 161 523 281 523 c 0
 338 523 372 487 387 432 c 1
 424 490 472 523 521 523 c 0
 602 523 642 439 642 335 c 0
 642 250 627 235 620 212 c 1
 398 212 l 1
 398 211 398 209 398 208 c 0
 398 139 424 103 470 103 c 0
 496 103 520 111 549 130 c 1xb7
 584 36 l 1
 541 5 487 -12 446 -12 c 0
 394 -12 352 17 331 69 c 1
 294 16 252 -12 193 -12 c 0x75
410 303 m 1
 524 303 l 1
 527 320 528 337 528 351 c 0
 528 386 519 410 492 410 c 0x6f
 458 410 428 376 410 303 c 1
223 106 m 0
 274 106 309 211 309 312 c 0
 309 367 296 405 270 405 c 0x77
 209 405 178 295 178 200 c 0
 178 144 192 106 223 106 c 0
EndSplineSet
Validated: 1
EndChar

StartChar: p
Encoding: 112 112 216
Width: 600
GlyphClass: 2
Flags: HMW
HStem: -205 21G<40 40 40 187> -12 120<314 355 308.5 399> 403 120<359 489.5> 490 20G<153 273 273 273>
VStem: 448 152<238 335.5>
LayerCount: 2
Fore
SplineSet
40 -205 m 1xd8
 153 510 l 1
 273 510 l 1xd8
 276 458 l 1
 279 458 l 1
 324 495 384 523 437 523 c 0xe8
 542 523 600 443 600 319 c 0
 600 112 462 -12 336 -12 c 0
 292 -12 251 7 221 44 c 1
 213 -40 l 1
 187 -205 l 1
 40 -205 l 1xd8
321 108 m 0
 389 108 448 173 448 303 c 0
 448 368 424 403 375 403 c 0
 343 403 311 387 275 353 c 1xe8
 242 143 l 1
 266 117 296 108 321 108 c 0
EndSplineSet
Validated: 1
EndChar

StartChar: thorn
Encoding: 254 254 217
Width: 600
GlyphClass: 2
Flags: HMW
HStem: -12 120<312.5 353 308.5 398.5> 403 120<359 489> 640 20G<177 324 324 324>
VStem: 448 152<237.5 335.5>
LayerCount: 2
Fore
SplineSet
43 -184 m 1
 177 660 l 1
 324 660 l 1
 305 542 l 1
 288 463 l 1
 334 500 387 523 437 523 c 0
 541 523 600 443 600 318 c 0
 600 111 460 -12 337 -12 c 0
 288 -12 252 11 223 44 c 1
 213 -40 l 1
 190 -184 l 1
 43 -184 l 1
321 108 m 0
 385 108 448 172 448 303 c 0
 448 368 425 403 374 403 c 0
 344 403 311 387 275 353 c 1
 242 143 l 1
 265 117 296 108 321 108 c 0
EndSplineSet
Validated: 1
EndChar

StartChar: q
Encoding: 113 113 218
Width: 600
GlyphClass: 2
Flags: HMW
HStem: -206 21G<348 348 348 495> -12 120<200 327.5> 403 120<330 370 281 376.5> 490 20G<494 609 609 609>
VStem: 82 152<178.5 277 178.5 299.5>
LayerCount: 2
Fore
SplineSet
348 -206 m 1xe8
 376 -32 l 1
 395 48 l 1
 354 13 301 -12 254 -12 c 0
 146 -12 82 68 82 199 c 0
 82 400 220 523 342 523 c 0
 398 523 436 503 469 457 c 1
 473 457 l 1xe8
 494 510 l 1
 609 510 l 1xd8
 495 -206 l 1
 348 -206 l 1xe8
311 108 m 0
 344 108 374 122 406 157 c 1
 439 367 l 1
 416 393 391 403 362 403 c 0
 298 403 234 340 234 214 c 0
 234 143 262 108 311 108 c 0
EndSplineSet
Validated: 1
EndChar

StartChar: r
Encoding: 114 114 219
Width: 600
GlyphClass: 2
Flags: HMW
HStem: 0 21G<116 116 116 263> 394 129<495.5 510.5> 490 20G<197 317 317 317> 503 20G<495.5 557>
VStem: 116 512<0 502>
AnchorPoint: "Ancre-2" 381 510 basechar 0
AnchorPoint: "Ancre-1" 0 0 basechar 0
AnchorPoint: "Ancre-0" 300 0 basechar 0
LayerCount: 2
Fore
SplineSet
116 0 m 1xc8
 197 510 l 1
 317 510 l 1xa8
 311 398 l 1
 314 398 l 1
 376 482 456 523 535 523 c 0xc8
 579 523 601 515 628 502 c 1x98
 578 379 l 1
 548 388 529 394 492 394 c 0
 431 394 362 360 305 268 c 1
 263 0 l 1
 116 0 l 1xc8
EndSplineSet
Validated: 1
EndChar

StartChar: racute
Encoding: 341 341 220
Width: 600
GlyphClass: 2
Flags: HMW
HStem: 0 21G<116 116 116 263> 394 129<495.5 510.5> 490 20G<197 317 317 317> 503 20G<495.5 557> 574 167<271 536 271 536>
VStem: 116 512<0 502>
AnchorPoint: "Ancre-2" 419 741 basechar 0
AnchorPoint: "Ancre-1" 0 0 basechar 0
AnchorPoint: "Ancre-0" 300 0 basechar 0
LayerCount: 2
Fore
SplineSet
271 574 m 1xcc
 386 741 l 1
 536 741 l 1
 378 574 l 1
 271 574 l 1xcc
116 0 m 1
 197 510 l 1
 317 510 l 1xac
 311 398 l 1
 314 398 l 1
 376 482 456 523 535 523 c 0xcc
 579 523 601 515 628 502 c 1x9c
 578 379 l 1
 548 388 529 394 492 394 c 0
 431 394 362 360 305 268 c 1
 263 0 l 1
 116 0 l 1
EndSplineSet
Validated: 1
EndChar

StartChar: rcaron
Encoding: 345 345 221
Width: 600
GlyphClass: 2
Flags: HMW
HStem: 0 21G<116 116 116 263> 394 129<495.5 510.5> 490 20G<197 317 317 317> 503 20G<495.5 557> 574 167<329 329 329 362 255 453>
VStem: 116 512<0 502>
AnchorPoint: "Ancre-2" 419 741 basechar 0
AnchorPoint: "Ancre-1" 0 0 basechar 0
AnchorPoint: "Ancre-0" 300 0 basechar 0
LayerCount: 2
Fore
SplineSet
329 574 m 1xcc
 255 741 l 1
 362 741 l 1
 400 645 l 1
 404 645 l 1
 472 741 l 1
 579 741 l 1
 453 574 l 1
 329 574 l 1xcc
116 0 m 1
 197 510 l 1
 317 510 l 1xac
 311 398 l 1
 314 398 l 1
 376 482 456 523 535 523 c 0xcc
 579 523 601 515 628 502 c 1x9c
 578 379 l 1
 548 388 529 394 492 394 c 0
 431 394 362 360 305 268 c 1
 263 0 l 1
 116 0 l 1
EndSplineSet
Validated: 1
EndChar

StartChar: s
Encoding: 115 115 222
Width: 600
GlyphClass: 2
Flags: HMW
HStem: -12 109<281 350.5 281 380.5> 413 110<347 407>
VStem: 140 148<353 382 353 400> 417 149<131 160.5>
AnchorPoint: "Ancre-2" 394 510 basechar 0
AnchorPoint: "Ancre-1" 0 0 basechar 0
AnchorPoint: "Ancre-0" 300 0 basechar 0
LayerCount: 2
Fore
SplineSet
294 -12 m 0
 205 -12 120 23 63 66 c 1
 144 158 l 1
 195 121 248 97 314 97 c 0
 387 97 417 116 417 146 c 0
 417 175 368 193 295 215 c 0
 218 238 140 279 140 351 c 0
 140 449 241 523 396 523 c 0
 484 523 552 487 599 453 c 1
 519 365 l 1
 478 393 433 413 381 413 c 0
 313 413 288 396 288 368 c 0
 288 338 341 322 405 304 c 0
 491 279 566 243 566 167 c 0
 566 69 467 -12 294 -12 c 0
EndSplineSet
Validated: 1
EndChar

StartChar: sacute
Encoding: 347 347 223
Width: 600
GlyphClass: 2
Flags: HMW
HStem: -12 109<281 350.5 281 380.5> 413 110<347 407> 574 167<284 549 284 549>
VStem: 140 148<353 382 353 400> 417 149<131 160.5>
AnchorPoint: "Ancre-2" 432 741 basechar 0
AnchorPoint: "Ancre-1" 0 0 basechar 0
AnchorPoint: "Ancre-0" 300 0 basechar 0
LayerCount: 2
Fore
SplineSet
284 574 m 1
 399 741 l 1
 549 741 l 1
 391 574 l 1
 284 574 l 1
294 -12 m 0
 205 -12 120 23 63 66 c 1
 144 158 l 1
 195 121 248 97 314 97 c 0
 387 97 417 116 417 146 c 0
 417 175 368 193 295 215 c 0
 218 238 140 279 140 351 c 0
 140 449 241 523 396 523 c 0
 484 523 552 487 599 453 c 1
 519 365 l 1
 478 393 433 413 381 413 c 0
 313 413 288 396 288 368 c 0
 288 338 341 322 405 304 c 0
 491 279 566 243 566 167 c 0
 566 69 467 -12 294 -12 c 0
EndSplineSet
Validated: 1
EndChar

StartChar: scaron
Encoding: 353 353 224
Width: 600
GlyphClass: 2
Flags: HMW
HStem: -12 109<281 350.5 281 380.5> 413 110<347 407> 574 167<342 342 342 375 268 466>
VStem: 140 148<353 382 353 400> 417 149<131 160.5>
AnchorPoint: "Ancre-2" 432 741 basechar 0
AnchorPoint: "Ancre-1" 0 0 basechar 0
AnchorPoint: "Ancre-0" 300 0 basechar 0
LayerCount: 2
Fore
SplineSet
342 574 m 1
 268 741 l 1
 375 741 l 1
 413 645 l 1
 417 645 l 1
 485 741 l 1
 592 741 l 1
 466 574 l 1
 342 574 l 1
294 -12 m 0
 205 -12 120 23 63 66 c 1
 144 158 l 1
 195 121 248 97 314 97 c 0
 387 97 417 116 417 146 c 0
 417 175 368 193 295 215 c 0
 218 238 140 279 140 351 c 0
 140 449 241 523 396 523 c 0
 484 523 552 487 599 453 c 1
 519 365 l 1
 478 393 433 413 381 413 c 0
 313 413 288 396 288 368 c 0
 288 338 341 322 405 304 c 0
 491 279 566 243 566 167 c 0
 566 69 467 -12 294 -12 c 0
EndSplineSet
Validated: 1
EndChar

StartChar: scedilla
Encoding: 351 351 225
Width: 600
GlyphClass: 2
Flags: HMW
HStem: -221 59<180 182> -10 21G<261 261> -10 107<261 350.5> 413 110<347 407>
VStem: 140 148<353 382 353 400> 270 107<-128.5 -106.5> 417 149<131 160.5>
AnchorPoint: "Ancre-2" 394 510 basechar 0
AnchorPoint: "Ancre-1" 0 0 basechar 0
AnchorPoint: "Ancre-0" 267 -221 basechar 0
LayerCount: 2
Fore
SplineSet
405 304 m 0xda
 491 279 566 243 566 167 c 0
 566 80 488 6 349 -9 c 1
 329 -43 l 1
 357 -53 377 -72 377 -105 c 0
 377 -183 283 -216 182 -221 c 1
 180 -162 l 1
 232 -157 270 -143 270 -114 c 0
 270 -99 257 -86 218 -76 c 1
 261 -12 l 1
 185 -5 113 28 63 66 c 1
 144 158 l 1
 195 121 248 97 314 97 c 0
 387 97 417 116 417 146 c 0xb6
 417 175 368 193 295 215 c 0
 218 238 140 279 140 351 c 0
 140 449 241 523 396 523 c 0
 484 523 552 487 599 453 c 1
 519 365 l 1
 478 393 433 413 381 413 c 0
 313 413 288 396 288 368 c 0
 288 338 341 322 405 304 c 0xda
EndSplineSet
Validated: 1
EndChar

StartChar: scircumflex
Encoding: 349 349 226
Width: 600
GlyphClass: 2
Flags: HMW
HStem: -12 109<281 350.5 281 380.5> 413 110<347 407> 574 167<242 492 242 492 459 459 459 492 368 566>
VStem: 140 148<353 382 353 400> 417 149<131 160.5>
AnchorPoint: "Ancre-2" 432 741 basechar 0
AnchorPoint: "Ancre-1" 0 0 basechar 0
AnchorPoint: "Ancre-0" 300 0 basechar 0
LayerCount: 2
Fore
SplineSet
242 574 m 1
 368 741 l 1
 492 741 l 1
 566 574 l 1
 459 574 l 1
 421 669 l 1
 417 669 l 1
 349 574 l 1
 242 574 l 1
294 -12 m 0
 205 -12 120 23 63 66 c 1
 144 158 l 1
 195 121 248 97 314 97 c 0
 387 97 417 116 417 146 c 0
 417 175 368 193 295 215 c 0
 218 238 140 279 140 351 c 0
 140 449 241 523 396 523 c 0
 484 523 552 487 599 453 c 1
 519 365 l 1
 478 393 433 413 381 413 c 0
 313 413 288 396 288 368 c 0
 288 338 341 322 405 304 c 0
 491 279 566 243 566 167 c 0
 566 69 467 -12 294 -12 c 0
EndSplineSet
Validated: 1
EndChar

StartChar: uni1E61
Encoding: 7777 7777 227
Width: 600
GlyphClass: 2
Flags: HMW
HStem: -12 109<281 350.5 281 380.5> 413 110<347 407> 586 200<405 438.5>
VStem: 140 148<353 382 353 400> 320 203<665.5 702.5> 417 149<131 160.5>
AnchorPoint: "Ancre-2" 434 750 basechar 0
AnchorPoint: "Ancre-1" 0 0 basechar 0
AnchorPoint: "Ancre-0" 300 0 basechar 0
LayerCount: 2
Fore
SplineSet
406 586 m 0xf8
 354 586 320 618 320 669 c 0
 320 736 373 786 437 786 c 0
 489 786 523 751 523 700 c 0
 523 631 471 586 406 586 c 0xf8
294 -12 m 0
 205 -12 120 23 63 66 c 1
 144 158 l 1
 195 121 248 97 314 97 c 0
 387 97 417 116 417 146 c 0
 417 175 368 193 295 215 c 0
 218 238 140 279 140 351 c 0
 140 449 241 523 396 523 c 0
 484 523 552 487 599 453 c 1
 519 365 l 1
 478 393 433 413 381 413 c 0
 313 413 288 396 288 368 c 0
 288 338 341 322 405 304 c 0
 491 279 566 243 566 167 c 0xd4
 566 69 467 -12 294 -12 c 0
EndSplineSet
Validated: 1
EndChar

StartChar: germandbls
Encoding: 223 223 228
Width: 600
GlyphClass: 2
Flags: HMW
HStem: -12 109<393.5 422 393.5 459.5> 0 21G<61 208 61 61> 619 116<358 399.5>
VStem: 335 140<343 396> 429 140<524.5 581.5> 458 140<135.5 185.5>
LayerCount: 2
Fore
SplineSet
395 -12 m 0xa4
 340 -12 303 1 262 26 c 1
 327 126 l 1
 355 105 380 97 407 97 c 0
 437 97 458 120 458 151 c 0xa4
 458 220 335 230 335 341 c 0x70
 335 451 429 470 429 567 c 0
 429 596 414 619 385 619 c 0
 331 619 299 574 288 502 c 2
 208 0 l 1
 61 0 l 1
 142 510 l 2
 162 637 251 735 404 735 c 0
 519 735 569 665 569 587 c 0x68
 569 462 475 437 475 373 c 0x70
 475 313 598 302 598 181 c 0
 598 77 524 -12 395 -12 c 0xa4
EndSplineSet
Validated: 1
EndChar

StartChar: t
Encoding: 116 116 229
Width: 600
GlyphClass: 2
Flags: HMW
HStem: -12 115<405 418> 395 115<130 236 112 262 402 594>
VStem: 202 150
AnchorPoint: "Ancre-2" 355 607 basechar 0
AnchorPoint: "Ancre-1" 0 0 basechar 0
AnchorPoint: "Ancre-0" 300 0 basechar 0
LayerCount: 2
Fore
SplineSet
386 -12 m 0
 253 -12 202 52 202 152 c 0
 202 171 204 190 207 211 c 2
 236 395 l 1
 112 395 l 1
 130 510 l 1
 262 510 l 1
 286 660 l 1
 435 720 l 1
 402 510 l 1
 612 510 l 1
 594 395 l 1
 384 395 l 1
 355 212 l 2
 353 200 352 189 352 179 c 0
 352 125 380 103 441 103 c 0
 479 103 513 111 543 122 c 1
 553 16 l 1
 506 2 450 -12 386 -12 c 0
EndSplineSet
Validated: 1
EndChar

StartChar: tcaron
Encoding: 357 357 230
Width: 600
GlyphClass: 2
Flags: HMW
HStem: -12 115<405 418> 395 115<130 236 112 262 402 594> 564 228<479 604 510 542>
VStem: 202 150
LayerCount: 2
Fore
SplineSet
479 564 m 1
 510 792 l 1
 604 792 l 1
 591 723 l 1
 542 564 l 1
 479 564 l 1
386 -12 m 0
 253 -12 202 52 202 152 c 0
 202 171 204 190 207 211 c 2
 236 395 l 1
 112 395 l 1
 130 510 l 1
 262 510 l 1
 286 660 l 1
 435 720 l 1
 402 510 l 1
 612 510 l 1
 594 395 l 1
 384 395 l 1
 355 212 l 2
 353 200 352 189 352 179 c 0
 352 125 380 103 441 103 c 0
 479 103 513 111 543 122 c 1
 553 16 l 1
 506 2 450 -12 386 -12 c 0
EndSplineSet
Validated: 1
EndChar

StartChar: uni0163
Encoding: 355 355 231
Width: 600
GlyphClass: 2
Flags: HMW
HStem: -221 59<180 182> -12 115<405 418> 395 115<130 236 112 262 402 594>
VStem: 202 150 270 107<-128.5 -106.5>
AnchorPoint: "Ancre-2" 355 607 basechar 0
AnchorPoint: "Ancre-1" 0 0 basechar 0
AnchorPoint: "Ancre-0" 267 -221 basechar 0
LayerCount: 2
Fore
SplineSet
384 395 m 1xf0
 355 212 l 2
 353 200 352 189 352 179 c 0
 352 125 380 103 441 103 c 0xf0
 479 103 513 111 543 122 c 1
 553 16 l 1
 506 2 450 -12 386 -12 c 0
 377 -12 369 -12 361 -12 c 0
 357 -12 353 -12 349 -12 c 1
 329 -43 l 1
 357 -53 377 -72 377 -105 c 0
 377 -183 283 -216 182 -221 c 1
 180 -162 l 1
 232 -157 270 -143 270 -114 c 0
 270 -99 257 -86 218 -76 c 1
 271 4 l 1xe8
 289 4 l 1
 227 29 202 82 202 152 c 0
 202 171 204 190 207 211 c 2
 236 395 l 1
 112 395 l 1
 130 510 l 1
 262 510 l 1
 286 660 l 1
 435 720 l 1
 402 510 l 1
 612 510 l 1
 594 395 l 1
 384 395 l 1xf0
EndSplineSet
Validated: 1
EndChar

StartChar: uni1E97
Encoding: 7831 7831 232
Width: 600
GlyphClass: 2
Flags: HMW
HStem: -12 115<405 418> 395 115<130 236 112 262 402 594> 668 157<239.5 266 457.5 483.5>
VStem: 173 159<733 760.5> 202 150 392 159<733 760>
AnchorPoint: "Ancre-2" 376 825 basechar 0
AnchorPoint: "Ancre-1" 0 0 basechar 0
AnchorPoint: "Ancre-0" 300 0 basechar 0
LayerCount: 2
Fore
SplineSet
384 395 m 1xec
 355 212 l 2
 353 200 352 189 352 179 c 0
 352 125 380 103 441 103 c 0
 479 103 513 111 543 122 c 1
 553 16 l 1
 506 2 450 -12 386 -12 c 0
 253 -12 202 52 202 152 c 0
 202 171 204 190 207 211 c 2
 236 395 l 1
 112 395 l 1
 130 510 l 1
 262 510 l 1
 286 660 l 1
 398 705 l 1
 394 714 392 724 392 735 c 0
 392 785 432 825 483 825 c 0
 525 825 551 796 551 758 c 0
 551 708 509 668 458 668 c 0
 447 668 437 670 428 674 c 1
 402 510 l 1
 612 510 l 1
 594 395 l 1
 384 395 l 1xec
240 668 m 0xf4
 199 668 173 697 173 736 c 0
 173 785 214 825 265 825 c 0
 306 825 332 796 332 758 c 0
 332 708 292 668 240 668 c 0xf4
EndSplineSet
Validated: 1
EndChar

StartChar: u
Encoding: 117 117 233
Width: 600
GlyphClass: 2
Flags: HMW
HStem: -12 125<164.5 317.5> 0 21G<405 525 405 405> 490 20G<143 290 290 290 459 606 606 606>
VStem: 88 151
AnchorPoint: "Ancre-2" 381 510 basechar 0
AnchorPoint: "Ancre-1" 542 10 basechar 0
AnchorPoint: "Ancre-0" 300 0 basechar 0
LayerCount: 2
Fore
SplineSet
221 -12 m 0xb0
 128 -12 88 41 88 132 c 0
 88 151 89 172 93 195 c 2
 143 510 l 1
 290 510 l 1
 243 214 l 2
 241 199 239 186 239 174 c 0
 239 132 256 113 299 113 c 0
 336 113 364 127 406 174 c 1xb0
 459 510 l 1
 606 510 l 1
 525 0 l 1
 405 0 l 1x70
 406 74 l 1
 402 74 l 1
 349 22 292 -12 221 -12 c 0xb0
EndSplineSet
Validated: 1
EndChar

StartChar: uacute
Encoding: 250 250 234
Width: 600
GlyphClass: 2
Flags: HMW
HStem: -12 125<164.5 317.5> 0 21G<405 525 405 405> 490 20G<143 290 290 290 459 606 606 606> 574 167<271 536 271 536>
VStem: 88 151
AnchorPoint: "Ancre-2" 419 741 basechar 0
AnchorPoint: "Ancre-1" 542 10 basechar 0
AnchorPoint: "Ancre-0" 300 0 basechar 0
LayerCount: 2
Fore
SplineSet
271 574 m 1x78
 386 741 l 1
 536 741 l 1
 378 574 l 1
 271 574 l 1x78
221 -12 m 0xb8
 128 -12 88 41 88 132 c 0
 88 151 89 172 93 195 c 2
 143 510 l 1
 290 510 l 1
 243 214 l 2
 241 199 239 186 239 174 c 0
 239 132 256 113 299 113 c 0
 336 113 364 127 406 174 c 1xb8
 459 510 l 1
 606 510 l 1
 525 0 l 1
 405 0 l 1x78
 406 74 l 1
 402 74 l 1
 349 22 292 -12 221 -12 c 0xb8
EndSplineSet
Validated: 1
EndChar

StartChar: ubreve
Encoding: 365 365 235
Width: 600
GlyphClass: 2
Flags: HMW
HStem: -12 125<164.5 317.5> 0 21G<405 525 405 405> 490 20G<143 290 290 290 459 606 606 606> 574 81<384 424 384 440.5>
VStem: 88 151 269 82<730 730>
AnchorPoint: "Ancre-2" 418 730 basechar 0
AnchorPoint: "Ancre-1" 542 10 basechar 0
AnchorPoint: "Ancre-0" 300 0 basechar 0
LayerCount: 2
Fore
SplineSet
391 574 m 0x7c
 304 574 267 632 267 701 c 0
 267 710 268 720 269 730 c 1
 351 730 l 1
 351 728 351 725 351 723 c 0
 351 684 366 655 404 655 c 0
 444 655 469 688 481 730 c 1
 563 730 l 1
 548 649 490 574 391 574 c 0x7c
221 -12 m 0xb8
 128 -12 88 41 88 132 c 0
 88 151 89 172 93 195 c 2
 143 510 l 1
 290 510 l 1
 243 214 l 2
 241 199 239 186 239 174 c 0
 239 132 256 113 299 113 c 0
 336 113 364 127 406 174 c 1xb8
 459 510 l 1
 606 510 l 1
 525 0 l 1
 405 0 l 1x78
 406 74 l 1
 402 74 l 1
 349 22 292 -12 221 -12 c 0xb8
EndSplineSet
Validated: 1
EndChar

StartChar: uni01D4
Encoding: 468 468 236
Width: 600
GlyphClass: 2
Flags: HMW
HStem: -12 125<164.5 317.5> 0 21G<405 525 405 405> 490 20G<143 290 290 290 459 606 606 606> 574 167<329 329 329 362 255 453>
VStem: 88 151
AnchorPoint: "Ancre-2" 419 741 basechar 0
AnchorPoint: "Ancre-1" 542 10 basechar 0
AnchorPoint: "Ancre-0" 300 0 basechar 0
LayerCount: 2
Fore
SplineSet
329 574 m 1x78
 255 741 l 1
 362 741 l 1
 400 645 l 1
 404 645 l 1
 472 741 l 1
 579 741 l 1
 453 574 l 1
 329 574 l 1x78
221 -12 m 0xb8
 128 -12 88 41 88 132 c 0
 88 151 89 172 93 195 c 2
 143 510 l 1
 290 510 l 1
 243 214 l 2
 241 199 239 186 239 174 c 0
 239 132 256 113 299 113 c 0
 336 113 364 127 406 174 c 1xb8
 459 510 l 1
 606 510 l 1
 525 0 l 1
 405 0 l 1x78
 406 74 l 1
 402 74 l 1
 349 22 292 -12 221 -12 c 0xb8
EndSplineSet
Validated: 1
EndChar

StartChar: ucircumflex
Encoding: 251 251 237
Width: 600
GlyphClass: 2
Flags: HMW
HStem: -12 125<164.5 317.5> 0 21G<405 525 405 405> 490 20G<143 290 290 290 459 606 606 606> 574 167<229 479 229 479 446 446 446 479 355 553>
VStem: 88 151
AnchorPoint: "Ancre-2" 419 741 basechar 0
AnchorPoint: "Ancre-1" 542 10 basechar 0
AnchorPoint: "Ancre-0" 300 0 basechar 0
LayerCount: 2
Fore
SplineSet
229 574 m 1x78
 355 741 l 1
 479 741 l 1
 553 574 l 1
 446 574 l 1
 408 669 l 1
 404 669 l 1
 336 574 l 1
 229 574 l 1x78
221 -12 m 0xb8
 128 -12 88 41 88 132 c 0
 88 151 89 172 93 195 c 2
 143 510 l 1
 290 510 l 1
 243 214 l 2
 241 199 239 186 239 174 c 0
 239 132 256 113 299 113 c 0
 336 113 364 127 406 174 c 1xb8
 459 510 l 1
 606 510 l 1
 525 0 l 1
 405 0 l 1x78
 406 74 l 1
 402 74 l 1
 349 22 292 -12 221 -12 c 0xb8
EndSplineSet
Validated: 1
EndChar

StartChar: udieresis
Encoding: 252 252 238
Width: 600
GlyphClass: 2
Flags: HMW
HStem: -12 125<164.5 317.5> 0 21G<405 525 405 405> 490 20G<143 290 290 290 459 606 606 606> 571 157<280.5 307 498.5 524.5>
VStem: 88 151 214 159<636 663.5> 433 159<636 663>
AnchorPoint: "Ancre-2" 417 728 basechar 0
AnchorPoint: "Ancre-1" 542 10 basechar 0
AnchorPoint: "Ancre-0" 300 0 basechar 0
LayerCount: 2
Fore
SplineSet
281 571 m 0x76
 240 571 214 600 214 639 c 0
 214 688 255 728 306 728 c 0
 347 728 373 698 373 660 c 0
 373 610 333 571 281 571 c 0x76
499 571 m 0
 458 571 433 600 433 638 c 0
 433 688 473 728 524 728 c 0
 566 728 592 698 592 660 c 0
 592 610 550 571 499 571 c 0
221 -12 m 0xb8
 128 -12 88 41 88 132 c 0
 88 151 89 172 93 195 c 2
 143 510 l 1
 290 510 l 1
 243 214 l 2
 241 199 239 186 239 174 c 0
 239 132 256 113 299 113 c 0
 336 113 364 127 406 174 c 1xb8
 459 510 l 1
 606 510 l 1
 525 0 l 1
 405 0 l 1x78
 406 74 l 1
 402 74 l 1
 349 22 292 -12 221 -12 c 0xb8
EndSplineSet
Validated: 1
EndChar

StartChar: ugrave
Encoding: 249 249 239
Width: 600
GlyphClass: 2
Flags: HMW
HStem: -12 125<164.5 317.5> 0 21G<405 525 405 405> 490 20G<143 290 290 290 459 606 606 606> 574 167<403 403 403 447 297 510>
VStem: 88 151
AnchorPoint: "Ancre-2" 419 741 basechar 0
AnchorPoint: "Ancre-1" 542 10 basechar 0
AnchorPoint: "Ancre-0" 300 0 basechar 0
LayerCount: 2
Fore
SplineSet
403 574 m 1x78
 297 741 l 1
 447 741 l 1
 510 574 l 1
 403 574 l 1x78
221 -12 m 0xb8
 128 -12 88 41 88 132 c 0
 88 151 89 172 93 195 c 2
 143 510 l 1
 290 510 l 1
 243 214 l 2
 241 199 239 186 239 174 c 0
 239 132 256 113 299 113 c 0
 336 113 364 127 406 174 c 1xb8
 459 510 l 1
 606 510 l 1
 525 0 l 1
 405 0 l 1x78
 406 74 l 1
 402 74 l 1
 349 22 292 -12 221 -12 c 0xb8
EndSplineSet
Validated: 1
EndChar

StartChar: uhungarumlaut
Encoding: 369 369 240
Width: 600
GlyphClass: 2
Flags: HMW
HStem: -12 125<164.5 317.5> 0 21G<405 525 405 405> 490 20G<143 290 290 290 459 606 606 606> 573 151<213 422 213 422 383 422 305 474 383 383>
VStem: 88 151
AnchorPoint: "Ancre-2" 381 510 basechar 0
AnchorPoint: "Ancre-1" 542 10 basechar 0
AnchorPoint: "Ancre-0" 300 0 basechar 0
LayerCount: 2
Fore
SplineSet
213 573 m 1x78
 305 723 l 1
 422 723 l 1
 303 573 l 1
 213 573 l 1x78
383 573 m 1
 476 723 l 1
 593 723 l 1
 474 573 l 1
 383 573 l 1
221 -12 m 0xb8
 128 -12 88 41 88 132 c 0
 88 151 89 172 93 195 c 2
 143 510 l 1
 290 510 l 1
 243 214 l 2
 241 199 239 186 239 174 c 0
 239 132 256 113 299 113 c 0
 336 113 364 127 406 174 c 1xb8
 459 510 l 1
 606 510 l 1
 525 0 l 1
 405 0 l 1x78
 406 74 l 1
 402 74 l 1
 349 22 292 -12 221 -12 c 0xb8
EndSplineSet
Validated: 1
EndChar

StartChar: umacron
Encoding: 363 363 241
Width: 600
GlyphClass: 2
Flags: HMW
HStem: -12 125<164.5 317.5> 0 21G<405 525 405 405> 490 20G<143 290 290 290 459 606 606 606> 592 93<256 546 270 532>
VStem: 88 151
AnchorPoint: "Ancre-2" 410 685 basechar 0
AnchorPoint: "Ancre-1" 542 10 basechar 0
AnchorPoint: "Ancre-0" 300 0 basechar 0
LayerCount: 2
Fore
SplineSet
256 592 m 1x78
 270 685 l 1
 546 685 l 1
 532 592 l 1
 256 592 l 1x78
221 -12 m 0xb8
 128 -12 88 41 88 132 c 0
 88 151 89 172 93 195 c 2
 143 510 l 1
 290 510 l 1
 243 214 l 2
 241 199 239 186 239 174 c 0
 239 132 256 113 299 113 c 0
 336 113 364 127 406 174 c 1xb8
 459 510 l 1
 606 510 l 1
 525 0 l 1
 405 0 l 1x78
 406 74 l 1
 402 74 l 1
 349 22 292 -12 221 -12 c 0xb8
EndSplineSet
Validated: 1
EndChar

StartChar: uogonek
Encoding: 371 371 242
Width: 600
GlyphClass: 2
Flags: HMW
HStem: -210 21G<379 421.5> -210 87<379 461.5> -12 125<164.5 317.5> 0 21G<483 483 483 525> 490 20G<143 290 290 290 459 606 606 606>
VStem: 88 151 313 105<-102.5 -99.5>
AnchorPoint: "Ancre-2" 381 510 basechar 0
AnchorPoint: "Ancre-1" 542 10 basechar 0
AnchorPoint: "Ancre-0" 300 0 basechar 0
LayerCount: 2
Fore
SplineSet
483 0 m 1x9e
 438 -32 418 -62 418 -91 c 0
 418 -114 436 -123 455 -123 c 0
 468 -123 481 -117 491 -111 c 1x5e
 512 -177 l 1
 483 -197 437 -210 406 -210 c 0
 352 -210 313 -183 313 -132 c 0
 313 -67 371 -20 403 0 c 1
 405 0 l 1
 406 74 l 1
 402 74 l 1
 349 22 292 -12 221 -12 c 0
 128 -12 88 41 88 132 c 0
 88 151 89 172 93 195 c 2
 143 510 l 1
 290 510 l 1
 243 214 l 2
 241 199 239 186 239 174 c 0
 239 132 256 113 299 113 c 0
 336 113 364 127 406 174 c 1xae
 459 510 l 1
 606 510 l 1
 525 0 l 1
 483 0 l 1x9e
EndSplineSet
Validated: 1
EndChar

StartChar: uring
Encoding: 367 367 243
Width: 600
GlyphClass: 2
Flags: HMW
HStem: -12 125<164.5 317.5> 0 21G<405 525 405 405> 490 20G<143 290 290 290 459 606 606 606> 548 55<385.5 408.5 385.5 424> 697 55<397 420.5>
VStem: 88 151 288 73<630.5 658 630.5 670> 445 72<642 669.5>
AnchorPoint: "Ancre-2" 421 752 basechar 0
AnchorPoint: "Ancre-1" 542 10 basechar 0
AnchorPoint: "Ancre-0" 300 0 basechar 0
LayerCount: 2
Fore
SplineSet
387 548 m 0x7f
 327 548 288 582 288 635 c 0
 288 705 345 752 419 752 c 0
 479 752 517 718 517 665 c 0
 517 595 461 548 387 548 c 0x7f
396 603 m 0
 421 603 445 628 445 660 c 0
 445 683 431 697 410 697 c 0
 384 697 361 674 361 642 c 0
 361 619 375 603 396 603 c 0
221 -12 m 0xbf
 128 -12 88 41 88 132 c 0
 88 151 89 172 93 195 c 2
 143 510 l 1
 290 510 l 1
 243 214 l 2
 241 199 239 186 239 174 c 0
 239 132 256 113 299 113 c 0
 336 113 364 127 406 174 c 1xbf
 459 510 l 1
 606 510 l 1
 525 0 l 1
 405 0 l 1x7f
 406 74 l 1
 402 74 l 1
 349 22 292 -12 221 -12 c 0xbf
EndSplineSet
Validated: 1
EndChar

StartChar: utilde
Encoding: 361 361 244
Width: 600
GlyphClass: 2
Flags: HMW
HStem: -12 125<164.5 317.5> 0 21G<405 525 405 405> 490 20G<143 290 290 290 459 606 606 606> 575 91<444 468.5 444 475.5> 575 143<220 384.5 220 384.5 329.5 475.5> 628 90<335.5 360>
VStem: 88 151
AnchorPoint: "Ancre-2" 416 718 basechar 0
AnchorPoint: "Ancre-1" 542 10 basechar 0
AnchorPoint: "Ancre-0" 300 0 basechar 0
LayerCount: 2
Fore
SplineSet
220 575 m 1x72
 247 672 299 718 360 718 c 0
 409 718 430 666 458 666 c 0x72
 479 666 495 679 510 718 c 1
 585 718 l 1x6a
 558 622 506 575 445 575 c 0x72
 395 575 374 628 346 628 c 0x66
 325 628 310 615 295 575 c 1
 220 575 l 1x72
221 -12 m 0xb2
 128 -12 88 41 88 132 c 0
 88 151 89 172 93 195 c 2
 143 510 l 1
 290 510 l 1
 243 214 l 2
 241 199 239 186 239 174 c 0
 239 132 256 113 299 113 c 0
 336 113 364 127 406 174 c 1xb2
 459 510 l 1
 606 510 l 1
 525 0 l 1
 405 0 l 1x72
 406 74 l 1
 402 74 l 1
 349 22 292 -12 221 -12 c 0xb2
EndSplineSet
Validated: 1
EndChar

StartChar: v
Encoding: 118 118 245
Width: 600
GlyphClass: 2
Flags: HMW
HStem: 0 109<218 323 319 323 319 387> 490 20G<112 260 260 260 508 650 650 650>
VStem: 112 538<510 510>
LayerCount: 2
Fore
SplineSet
218 0 m 1
 112 510 l 1
 260 510 l 1
 299 266 l 2
 307 215 313 162 319 109 c 1
 323 109 l 1
 347 162 368 215 392 266 c 2
 508 510 l 1
 650 510 l 1
 387 0 l 1
 218 0 l 1
EndSplineSet
Validated: 1
EndChar

StartChar: w
Encoding: 119 119 246
Width: 600
GlyphClass: 2
Flags: HMW
HStem: 0 119<214 217 214 253 431 435> 326 119<350 354 350 350> 490 20G<85 228 228 228 543 677 677 677>
VStem: 86 139 349 82<119 176 176 199.5>
AnchorPoint: "Ancre-2" 381 510 basechar 0
AnchorPoint: "Ancre-1" 0 0 basechar 0
AnchorPoint: "Ancre-0" 300 0 basechar 0
LayerCount: 2
Fore
SplineSet
86 0 m 1
 85 510 l 1
 228 510 l 1
 221 270 l 2
 219 220 215 170 214 119 c 1
 217 119 l 1
 231 170 248 222 264 270 c 2
 323 445 l 1
 426 445 l 1
 431 270 l 2
 431 245 432 220 432 195 c 0
 432 170 431 145 431 119 c 1
 435 119 l 1
 450 170 461 220 475 270 c 2
 543 510 l 1
 677 510 l 1
 519 0 l 1
 349 0 l 1
 349 176 l 2
 349 223 351 271 354 326 c 1
 350 326 l 1
 340 288 329 245 308 176 c 2
 253 0 l 1
 86 0 l 1
EndSplineSet
Validated: 1
EndChar

StartChar: wacute
Encoding: 7811 7811 247
Width: 600
GlyphClass: 2
Flags: HMW
HStem: 0 119<214 217 214 253 431 435> 326 119<350 354 350 350> 490 20G<85 228 228 228 543 677 677 677> 574 167<271 536 271 536>
VStem: 86 139 349 82<119 176 176 199.5>
AnchorPoint: "Ancre-2" 419 741 basechar 0
AnchorPoint: "Ancre-1" 0 0 basechar 0
AnchorPoint: "Ancre-0" 300 0 basechar 0
LayerCount: 2
Fore
SplineSet
271 574 m 1
 386 741 l 1
 536 741 l 1
 378 574 l 1
 271 574 l 1
86 0 m 1
 85 510 l 1
 228 510 l 1
 221 270 l 2
 219 220 215 170 214 119 c 1
 217 119 l 1
 231 170 248 222 264 270 c 2
 323 445 l 1
 426 445 l 1
 431 270 l 2
 431 245 432 220 432 195 c 0
 432 170 431 145 431 119 c 1
 435 119 l 1
 450 170 461 220 475 270 c 2
 543 510 l 1
 677 510 l 1
 519 0 l 1
 349 0 l 1
 349 176 l 2
 349 223 351 271 354 326 c 1
 350 326 l 1
 340 288 329 245 308 176 c 2
 253 0 l 1
 86 0 l 1
EndSplineSet
Validated: 1
EndChar

StartChar: wcircumflex
Encoding: 373 373 248
Width: 600
GlyphClass: 2
Flags: HMW
HStem: 0 119<214 217 214 253 431 435> 326 119<350 354 350 350> 490 20G<85 228 228 228 543 677 677 677> 574 167<229 479 229 479 446 446 446 479 355 553>
VStem: 86 139 349 82<119 176 176 199.5>
AnchorPoint: "Ancre-2" 419 741 basechar 0
AnchorPoint: "Ancre-1" 0 0 basechar 0
AnchorPoint: "Ancre-0" 300 0 basechar 0
LayerCount: 2
Fore
SplineSet
229 574 m 1
 355 741 l 1
 479 741 l 1
 553 574 l 1
 446 574 l 1
 408 669 l 1
 404 669 l 1
 336 574 l 1
 229 574 l 1
86 0 m 1
 85 510 l 1
 228 510 l 1
 221 270 l 2
 219 220 215 170 214 119 c 1
 217 119 l 1
 231 170 248 222 264 270 c 2
 323 445 l 1
 426 445 l 1
 431 270 l 2
 431 245 432 220 432 195 c 0
 432 170 431 145 431 119 c 1
 435 119 l 1
 450 170 461 220 475 270 c 2
 543 510 l 1
 677 510 l 1
 519 0 l 1
 349 0 l 1
 349 176 l 2
 349 223 351 271 354 326 c 1
 350 326 l 1
 340 288 329 245 308 176 c 2
 253 0 l 1
 86 0 l 1
EndSplineSet
Validated: 1
EndChar

StartChar: wdieresis
Encoding: 7813 7813 249
Width: 600
GlyphClass: 2
Flags: HMW
HStem: 0 119<214 217 214 253 431 435> 326 119<350 354 350 350> 490 20G<85 228 228 228 543 677 677 677> 571 157<280.5 307 498.5 524.5>
VStem: 86 139 214 159<636 663.5> 349 82<119 176 176 199.5> 433 159<636 663>
AnchorPoint: "Ancre-2" 417 728 basechar 0
AnchorPoint: "Ancre-1" 0 0 basechar 0
AnchorPoint: "Ancre-0" 300 0 basechar 0
LayerCount: 2
Fore
SplineSet
281 571 m 0xf5
 240 571 214 600 214 639 c 0
 214 688 255 728 306 728 c 0
 347 728 373 698 373 660 c 0
 373 610 333 571 281 571 c 0xf5
499 571 m 0
 458 571 433 600 433 638 c 0
 433 688 473 728 524 728 c 0
 566 728 592 698 592 660 c 0
 592 610 550 571 499 571 c 0
86 0 m 1xfa
 85 510 l 1
 228 510 l 1
 221 270 l 2
 219 220 215 170 214 119 c 1
 217 119 l 1
 231 170 248 222 264 270 c 2
 323 445 l 1
 426 445 l 1
 431 270 l 2
 431 245 432 220 432 195 c 0
 432 170 431 145 431 119 c 1
 435 119 l 1
 450 170 461 220 475 270 c 2
 543 510 l 1
 677 510 l 1
 519 0 l 1
 349 0 l 1
 349 176 l 2
 349 223 351 271 354 326 c 1
 350 326 l 1
 340 288 329 245 308 176 c 2
 253 0 l 1
 86 0 l 1xfa
EndSplineSet
Validated: 1
EndChar

StartChar: wgrave
Encoding: 7809 7809 250
Width: 600
GlyphClass: 2
Flags: HMW
HStem: 0 119<214 217 214 253 431 435> 326 119<350 354 350 350> 490 20G<85 228 228 228 543 677 677 677> 574 167<403 403 403 447 297 510>
VStem: 86 139 349 82<119 176 176 199.5>
AnchorPoint: "Ancre-2" 419 741 basechar 0
AnchorPoint: "Ancre-1" 0 0 basechar 0
AnchorPoint: "Ancre-0" 300 0 basechar 0
LayerCount: 2
Fore
SplineSet
403 574 m 1
 297 741 l 1
 447 741 l 1
 510 574 l 1
 403 574 l 1
86 0 m 1
 85 510 l 1
 228 510 l 1
 221 270 l 2
 219 220 215 170 214 119 c 1
 217 119 l 1
 231 170 248 222 264 270 c 2
 323 445 l 1
 426 445 l 1
 431 270 l 2
 431 245 432 220 432 195 c 0
 432 170 431 145 431 119 c 1
 435 119 l 1
 450 170 461 220 475 270 c 2
 543 510 l 1
 677 510 l 1
 519 0 l 1
 349 0 l 1
 349 176 l 2
 349 223 351 271 354 326 c 1
 350 326 l 1
 340 288 329 245 308 176 c 2
 253 0 l 1
 86 0 l 1
EndSplineSet
Validated: 1
EndChar

StartChar: x
Encoding: 120 120 251
Width: 600
GlyphClass: 2
Flags: HMW
HStem: 0 21G<37 37 37 191 404 404 404 562> 490 20G<129 287 287 287 479 633 633 633>
VStem: 37 596<0 510>
LayerCount: 2
Fore
SplineSet
37 0 m 1
 251 265 l 1
 129 510 l 1
 287 510 l 1
 324 426 l 2
 335 397 350 367 363 339 c 1
 367 339 l 1
 384 367 404 398 421 426 c 2
 479 510 l 1
 633 510 l 1
 429 249 l 1
 562 0 l 1
 404 0 l 1
 361 87 l 2
 347 115 331 146 318 175 c 1
 314 175 l 1
 294 146 274 117 254 87 c 2
 191 0 l 1
 37 0 l 1
EndSplineSet
Validated: 1
EndChar

StartChar: y
Encoding: 121 121 252
Width: 600
GlyphClass: 2
Flags: HMW
HStem: -217 116<109.5 144.5 109.5 171.5> -207 21G<34 34> 490 20G<112 257 257 257 513 652 652 652>
VStem: 34 618
AnchorPoint: "Ancre-2" 391 510 basechar 0
AnchorPoint: "Ancre-1" 0 0 basechar 0
AnchorPoint: "Ancre-0" 300 0 basechar 0
LayerCount: 2
Fore
SplineSet
109 -217 m 0xb0
 80 -217 54 -213 34 -207 c 1x70
 78 -95 l 1
 90 -99 103 -101 116 -101 c 0
 173 -101 211 -54 225 -29 c 2
 248 12 l 1
 112 510 l 1
 257 510 l 1
 305 287 l 2
 315 239 324 187 331 134 c 1
 335 134 l 1
 356 184 381 237 405 287 c 2
 513 510 l 1
 652 510 l 1
 370 -24 l 2
 303 -151 234 -217 109 -217 c 0xb0
EndSplineSet
Validated: 1
EndChar

StartChar: yacute
Encoding: 253 253 253
Width: 600
GlyphClass: 2
Flags: HMW
HStem: -217 116<109.5 144.5 109.5 171.5> -207 21G<34 34> 490 20G<112 257 257 257 513 652 652 652> 574 167<281 546 281 546>
VStem: 34 618
AnchorPoint: "Ancre-2" 429 741 basechar 0
AnchorPoint: "Ancre-1" 0 0 basechar 0
AnchorPoint: "Ancre-0" 300 0 basechar 0
LayerCount: 2
Fore
SplineSet
281 574 m 1xb8
 396 741 l 1
 546 741 l 1
 388 574 l 1
 281 574 l 1xb8
109 -217 m 0
 80 -217 54 -213 34 -207 c 1x78
 78 -95 l 1
 90 -99 103 -101 116 -101 c 0
 173 -101 211 -54 225 -29 c 2
 248 12 l 1
 112 510 l 1
 257 510 l 1
 305 287 l 2
 315 239 324 187 331 134 c 1
 335 134 l 1
 356 184 381 237 405 287 c 2
 513 510 l 1
 652 510 l 1
 370 -24 l 2
 303 -151 234 -217 109 -217 c 0
EndSplineSet
Validated: 1
EndChar

StartChar: ycircumflex
Encoding: 375 375 254
Width: 600
GlyphClass: 2
Flags: HMW
HStem: -217 116<109.5 144.5 109.5 171.5> -207 21G<34 34> 490 20G<112 257 257 257 513 652 652 652> 574 167<239 489 239 489 456 456 456 489 365 563>
VStem: 34 618
AnchorPoint: "Ancre-2" 429 741 basechar 0
AnchorPoint: "Ancre-1" 0 0 basechar 0
AnchorPoint: "Ancre-0" 300 0 basechar 0
LayerCount: 2
Fore
SplineSet
239 574 m 1xb8
 365 741 l 1
 489 741 l 1
 563 574 l 1
 456 574 l 1
 418 669 l 1
 414 669 l 1
 346 574 l 1
 239 574 l 1xb8
109 -217 m 0
 80 -217 54 -213 34 -207 c 1x78
 78 -95 l 1
 90 -99 103 -101 116 -101 c 0
 173 -101 211 -54 225 -29 c 2
 248 12 l 1
 112 510 l 1
 257 510 l 1
 305 287 l 2
 315 239 324 187 331 134 c 1
 335 134 l 1
 356 184 381 237 405 287 c 2
 513 510 l 1
 652 510 l 1
 370 -24 l 2
 303 -151 234 -217 109 -217 c 0
EndSplineSet
Validated: 1
EndChar

StartChar: ydieresis
Encoding: 255 255 255
Width: 600
GlyphClass: 2
Flags: HMW
HStem: -217 116<109.5 144.5 109.5 171.5> -207 21G<34 34> 490 20G<112 257 257 257 513 652 652 652> 571 157<290.5 317 508.5 534.5>
VStem: 224 159<636 663.5> 443 159<636 663>
AnchorPoint: "Ancre-2" 427 728 basechar 0
AnchorPoint: "Ancre-1" 0 0 basechar 0
AnchorPoint: "Ancre-0" 300 0 basechar 0
LayerCount: 2
Fore
SplineSet
291 571 m 0xbc
 250 571 224 600 224 639 c 0
 224 688 265 728 316 728 c 0
 357 728 383 698 383 660 c 0
 383 610 343 571 291 571 c 0xbc
509 571 m 0
 468 571 443 600 443 638 c 0
 443 688 483 728 534 728 c 0
 576 728 602 698 602 660 c 0
 602 610 560 571 509 571 c 0
109 -217 m 0
 80 -217 54 -213 34 -207 c 1x7c
 78 -95 l 1
 90 -99 103 -101 116 -101 c 0
 173 -101 211 -54 225 -29 c 2
 248 12 l 1
 112 510 l 1
 257 510 l 1
 305 287 l 2
 315 239 324 187 331 134 c 1
 335 134 l 1
 356 184 381 237 405 287 c 2
 513 510 l 1
 652 510 l 1
 370 -24 l 2
 303 -151 234 -217 109 -217 c 0
EndSplineSet
Validated: 1
EndChar

StartChar: uni1E8F
Encoding: 7823 7823 256
Width: 600
GlyphClass: 2
Flags: HMW
HStem: -217 116<109.5 144.5 109.5 171.5> -207 21G<34 34> 490 20G<112 257 257 257 513 652 652 652> 586 200<402 435.5>
VStem: 34 618 317 203<665.5 702.5>
AnchorPoint: "Ancre-2" 431 750 basechar 0
AnchorPoint: "Ancre-1" 0 0 basechar 0
AnchorPoint: "Ancre-0" 300 0 basechar 0
LayerCount: 2
Fore
SplineSet
403 586 m 0xb4
 351 586 317 618 317 669 c 0
 317 736 370 786 434 786 c 0
 486 786 520 751 520 700 c 0
 520 631 468 586 403 586 c 0xb4
109 -217 m 0
 80 -217 54 -213 34 -207 c 1x78
 78 -95 l 1
 90 -99 103 -101 116 -101 c 0
 173 -101 211 -54 225 -29 c 2
 248 12 l 1
 112 510 l 1
 257 510 l 1
 305 287 l 2
 315 239 324 187 331 134 c 1
 335 134 l 1
 356 184 381 237 405 287 c 2
 513 510 l 1
 652 510 l 1
 370 -24 l 2
 303 -151 234 -217 109 -217 c 0
EndSplineSet
Validated: 1
EndChar

StartChar: ygrave
Encoding: 7923 7923 257
Width: 600
GlyphClass: 2
Flags: HMW
HStem: -217 116<109.5 144.5 109.5 171.5> -207 21G<34 34> 490 20G<112 257 257 257 513 652 652 652> 574 167<413 413 413 457 307 520>
VStem: 34 618
AnchorPoint: "Ancre-2" 429 741 basechar 0
AnchorPoint: "Ancre-1" 0 0 basechar 0
AnchorPoint: "Ancre-0" 300 0 basechar 0
LayerCount: 2
Fore
SplineSet
413 574 m 1xb8
 307 741 l 1
 457 741 l 1
 520 574 l 1
 413 574 l 1xb8
109 -217 m 0
 80 -217 54 -213 34 -207 c 1x78
 78 -95 l 1
 90 -99 103 -101 116 -101 c 0
 173 -101 211 -54 225 -29 c 2
 248 12 l 1
 112 510 l 1
 257 510 l 1
 305 287 l 2
 315 239 324 187 331 134 c 1
 335 134 l 1
 356 184 381 237 405 287 c 2
 513 510 l 1
 652 510 l 1
 370 -24 l 2
 303 -151 234 -217 109 -217 c 0
EndSplineSet
Validated: 1
EndChar

StartChar: uni1EF9
Encoding: 7929 7929 258
Width: 600
GlyphClass: 2
Flags: HMW
HStem: -196 116<112.5 147.5 112.5 174.5> 490 20G<112 257 257 257 513 652 652 652> 593 144<230 394.5 230 394.5 339.5 485.5>
VStem: 38 614
LayerCount: 2
Fore
SplineSet
230 593 m 1
 257 690 309 737 370 737 c 0
 419 737 440 684 468 684 c 0
 489 684 504 697 520 737 c 1
 595 737 l 1
 568 641 516 593 455 593 c 0
 405 593 384 647 356 647 c 0
 335 647 320 634 305 593 c 1
 230 593 l 1
112 -196 m 0
 83 -196 58 -192 38 -186 c 1
 81 -74 l 1
 94 -78 106 -80 119 -80 c 0
 176 -80 208 -54 234 -12 c 2
 248 12 l 1
 112 510 l 1
 257 510 l 1
 305 287 l 2
 315 239 324 187 331 134 c 1
 335 134 l 1
 356 184 381 237 405 287 c 2
 513 510 l 1
 652 510 l 1
 375 -3 l 2
 307 -130 237 -196 112 -196 c 0
EndSplineSet
Validated: 1
EndChar

StartChar: z
Encoding: 122 122 259
Width: 600
GlyphClass: 2
Flags: HMW
HStem: 0 115<291 541> 395 115<183 393 165 614>
VStem: 70 544<0 510>
LayerCount: 2
Fore
SplineSet
70 0 m 1
 83 79 l 1
 393 395 l 1
 165 395 l 1
 183 510 l 1
 614 510 l 1
 601 432 l 1
 291 115 l 1
 559 115 l 1
 541 0 l 1
 70 0 l 1
EndSplineSet
Validated: 1
EndChar

StartChar: zacute
Encoding: 378 378 260
Width: 600
GlyphClass: 2
Flags: HMW
HStem: 0 115<291 541> 395 115<183 393 165 614> 591 171<335 601 335 601>
VStem: 70 544<0 510>
LayerCount: 2
Fore
SplineSet
335 591 m 1
 451 762 l 1
 601 762 l 1
 442 591 l 1
 335 591 l 1
70 0 m 1
 83 79 l 1
 393 395 l 1
 165 395 l 1
 183 510 l 1
 614 510 l 1
 601 432 l 1
 291 115 l 1
 559 115 l 1
 541 0 l 1
 70 0 l 1
EndSplineSet
Validated: 1
EndChar

StartChar: zcaron
Encoding: 382 382 261
Width: 600
GlyphClass: 2
Flags: HMW
HStem: 0 115<291 541> 395 115<183 393 165 614> 574 167<329 329 329 362 255 453>
VStem: 70 544<0 510>
AnchorPoint: "Ancre-2" 419 741 basechar 0
AnchorPoint: "Ancre-1" 0 0 basechar 0
AnchorPoint: "Ancre-0" 0 0 basechar 0
LayerCount: 2
Fore
SplineSet
329 574 m 1
 255 741 l 1
 362 741 l 1
 400 645 l 1
 404 645 l 1
 472 741 l 1
 579 741 l 1
 453 574 l 1
 329 574 l 1
70 0 m 1
 83 79 l 1
 393 395 l 1
 165 395 l 1
 183 510 l 1
 614 510 l 1
 601 432 l 1
 291 115 l 1
 559 115 l 1
 541 0 l 1
 70 0 l 1
EndSplineSet
Validated: 1
EndChar

StartChar: zdotaccent
Encoding: 380 380 262
Width: 600
GlyphClass: 2
Flags: HMW
HStem: 0 115<291 541> 395 115<183 393 165 614> 586 200<392 425.5>
VStem: 307 203<665.5 702.5>
AnchorPoint: "Ancre-2" 421 750 basechar 0
AnchorPoint: "Ancre-1" 0 0 basechar 0
AnchorPoint: "Ancre-0" 0 0 basechar 0
LayerCount: 2
Fore
SplineSet
393 586 m 0
 341 586 307 618 307 669 c 0
 307 736 360 786 424 786 c 0
 476 786 510 751 510 700 c 0
 510 631 458 586 393 586 c 0
70 0 m 1
 83 79 l 1
 393 395 l 1
 165 395 l 1
 183 510 l 1
 614 510 l 1
 601 432 l 1
 291 115 l 1
 559 115 l 1
 541 0 l 1
 70 0 l 1
EndSplineSet
Validated: 1
EndChar

StartChar: ordfeminine
Encoding: 170 170 263
Width: 600
GlyphClass: 2
Flags: HMW
HStem: 260 71<334 495 334 409> 515 82<382.5 392.5>
VStem: 208 103<348 368.5 348 376.5> 424 103
LayerCount: 2
Fore
SplineSet
299 252 m 0
 242 252 208 290 208 338 c 0
 208 415 270 458 424 472 c 1
 424 473 424 475 424 476 c 0
 424 500 408 515 375 515 c 0
 348 515 315 504 279 486 c 1
 253 553 l 1
 301 579 356 597 409 597 c 0
 483 597 527 561 527 484 c 0
 527 472 526 460 524 446 c 2
 495 260 l 1
 409 260 l 1
 407 293 l 1
 405 293 l 1
 373 269 335 252 299 252 c 0
344 331 m 0
 365 331 387 341 406 357 c 1
 414 410 l 1
 336 400 311 381 311 356 c 0
 311 340 324 331 344 331 c 0
EndSplineSet
Validated: 1
EndChar

StartChar: ordmasculine
Encoding: 186 186 264
Width: 600
GlyphClass: 2
Flags: HMW
HStem: 252 82<336 381 336 389> 514 83<354.5 398.5>
VStem: 197 107<380.5 431 380.5 459> 431 106<418.5 468.5>
LayerCount: 2
Fore
SplineSet
340 252 m 0
 261 252 197 306 197 397 c 0
 197 521 297 597 395 597 c 0
 473 597 537 543 537 451 c 0
 537 327 438 252 340 252 c 0
353 334 m 0
 409 334 431 388 431 449 c 0
 431 488 416 514 381 514 c 0
 328 514 304 462 304 400 c 0
 304 361 319 334 353 334 c 0
EndSplineSet
Validated: 1
EndChar

StartChar: pi
Encoding: 960 960 265
Width: 600
GlyphClass: 2
Flags: HMW
HStem: -12 21G<461.5 524> -12 119<461.5 564.5> -9 21G<231 231> 0 21G<85 85> 394 116<169 172 76 667 309 428 309 309 568 568 568 648>
VStem: 382 203<78 111 3 142>
LayerCount: 2
Fore
SplineSet
507 -12 m 0x8c
 416 -12 382 39 382 117 c 0
 382 167 412 295 428 394 c 1
 309 394 l 1
 290 271 261 128 231 -9 c 1x2c
 85 0 l 1x1c
 125 140 154 279 172 394 c 1
 76 394 l 1
 94 504 l 1
 169 510 l 1
 667 510 l 1
 648 394 l 1
 568 394 l 1
 545 292 523 155 523 141 c 0
 523 116 536 107 561 107 c 0
 568 107 574 109 585 111 c 1x4c
 585 3 l 1
 567 -5 541 -12 507 -12 c 0x8c
EndSplineSet
Validated: 1
EndChar

StartChar: zero
Encoding: 48 48 266
Width: 600
Flags: HMW
HStem: -12 114<302.5 347.5 302.5 386.5> 558 114<356.5 401.5>
VStem: 100 130<246 246 246 382.5> 475 130<417 417>
LayerCount: 2
Fore
SplineSet
298 -12 m 0
 175 -12 100 82 100 250 c 0
 100 515 229 672 406 672 c 0
 530 672 605 582 605 414 c 0
 605 151 475 -12 298 -12 c 0
230 246 m 1
 453 524 l 1
 438 548 415 558 388 558 c 0
 325 558 270 504 240 332 c 0
 234 300 232 272 230 246 c 1
316 102 m 0
 379 102 440 159 466 332 c 0
 471 365 474 394 475 417 c 1
 252 138 l 1
 267 113 289 102 316 102 c 0
EndSplineSet
Validated: 1
Substitution2: "sous-table 'salt' Alternatives stylistiques dans Latin lookup 13" zero.alt
Substitution2: "sous-table 'frac' Fractions dans Latin lookup 10" zero.numr
Substitution2: "sous-table 'dnom' D+AOkA-nominateurs dans Latin lookup 8" zero.dnom
Substitution2: "sous-table 'numr' Num+AOkA-rateurs dans Latin lookup 7" zero.numr
Substitution2: "sous-table 'sups' Exposant dans Latin lookup 6" zero.sups
Substitution2: "sous-table 'sinf' Indices scientifiques dans Latin lookup 5" zero.subs
Substitution2: "sous-table 'subs' Indice dans Latin lookup 4" zero.subs
AlternateSubs2: "sous-table 'aalt' Activer toutes les variantes dans Latin lookup 1" zero.subs zero.sups zero.numr zero.dnom zero.alt
EndChar

StartChar: one
Encoding: 49 49 267
Width: 600
Flags: HMW
HStem: 0 119<82 265 101 265 412 537> 510 150<196 498>
VStem: 82 474<0 119>
LayerCount: 2
Fore
SplineSet
82 0 m 1
 101 119 l 1
 265 119 l 1
 327 510 l 1
 196 510 l 1
 210 601 l 1
 286 614 338 633 390 660 c 1
 498 660 l 1
 412 119 l 1
 556 119 l 1
 537 0 l 1
 82 0 l 1
EndSplineSet
Validated: 1
Substitution2: "sous-table 'frac' Fractions dans Latin lookup 10" one.numr
Substitution2: "sous-table 'dnom' D+AOkA-nominateurs dans Latin lookup 8" one.dnom
Substitution2: "sous-table 'numr' Num+AOkA-rateurs dans Latin lookup 7" one.numr
Substitution2: "sous-table 'sups' Exposant dans Latin lookup 6" one.sups
Substitution2: "sous-table 'sinf' Indices scientifiques dans Latin lookup 5" one.subs
Substitution2: "sous-table 'subs' Indice dans Latin lookup 4" one.subs
AlternateSubs2: "sous-table 'aalt' Activer toutes les variantes dans Latin lookup 1" one.subs one.sups one.numr one.dnom
EndChar

StartChar: two
Encoding: 50 50 268
Width: 600
Flags: HMW
HStem: 0 124<404 535> 557 115<335 375>
VStem: 436 143<430 500>
LayerCount: 2
Fore
SplineSet
58 0 m 1
 71 84 l 1
 291 256 436 369 436 474 c 0
 436 526 404 557 346 557 c 0
 295 557 249 525 207 488 c 1
 141 568 l 1
 218 636 286 672 384 672 c 0
 504 672 579 602 579 495 c 0
 579 365 440 242 287 116 c 1
 324 120 371 124 404 124 c 2
 555 124 l 1
 535 0 l 1
 58 0 l 1
EndSplineSet
Validated: 1
Substitution2: "sous-table 'frac' Fractions dans Latin lookup 10" two.numr
Substitution2: "sous-table 'dnom' D+AOkA-nominateurs dans Latin lookup 8" two.dnom
Substitution2: "sous-table 'numr' Num+AOkA-rateurs dans Latin lookup 7" two.numr
Substitution2: "sous-table 'sups' Exposant dans Latin lookup 6" two.sups
Substitution2: "sous-table 'sinf' Indices scientifiques dans Latin lookup 5" two.subs
Substitution2: "sous-table 'subs' Indice dans Latin lookup 4" two.subs
AlternateSubs2: "sous-table 'aalt' Activer toutes les variantes dans Latin lookup 1" two.subs two.sups two.numr two.dnom
EndChar

StartChar: three
Encoding: 51 51 269
Width: 600
Flags: HMW
HStem: -12 119<253 319.5 253 349.5> 286 104<254 304.5> 557 115<341 383.5>
VStem: 415 146<171 227.5> 440 150<474.5 513>
LayerCount: 2
Fore
SplineSet
277 -12 m 0xf0
 168 -12 95 26 55 81 c 1
 138 174 l 1
 173 135 224 107 282 107 c 0
 357 107 415 140 415 202 c 0xf0
 415 253 372 286 237 286 c 1
 254 390 l 1
 392 390 440 433 440 493 c 0
 440 533 410 557 357 557 c 0
 307 557 263 535 213 498 c 1
 153 588 l 1
 223 640 300 672 382 672 c 0
 508 672 590 615 590 516 c 0xe8
 590 433 535 379 444 345 c 1
 443 341 l 1
 511 321 561 273 561 200 c 0
 561 66 422 -12 277 -12 c 0xf0
EndSplineSet
Validated: 1
Substitution2: "sous-table 'frac' Fractions dans Latin lookup 10" three.numr
Substitution2: "sous-table 'dnom' D+AOkA-nominateurs dans Latin lookup 8" three.dnom
Substitution2: "sous-table 'numr' Num+AOkA-rateurs dans Latin lookup 7" three.numr
Substitution2: "sous-table 'sups' Exposant dans Latin lookup 6" three.sups
Substitution2: "sous-table 'sinf' Indices scientifiques dans Latin lookup 5" three.subs
Substitution2: "sous-table 'subs' Indice dans Latin lookup 4" three.subs
AlternateSubs2: "sous-table 'aalt' Activer toutes les variantes dans Latin lookup 1" three.subs three.sups three.numr three.dnom
EndChar

StartChar: four
Encoding: 52 52 270
Width: 600
Flags: HMW
HStem: 0 21G<341 341 341 478> 160 112<220 366 521 583> 640 20G<319 466 466 466>
VStem: 60 541<160 272>
LayerCount: 2
Fore
SplineSet
341 0 m 1
 366 160 l 1
 60 160 l 1
 76 261 l 1
 319 660 l 1
 466 660 l 1
 220 272 l 1
 384 272 l 1
 410 433 l 1
 547 433 l 1
 521 272 l 1
 601 272 l 1
 583 160 l 1
 503 160 l 1
 478 0 l 1
 341 0 l 1
EndSplineSet
Validated: 1
Substitution2: "sous-table 'salt' Alternatives stylistiques dans Latin lookup 13" four.alt
Substitution2: "sous-table 'frac' Fractions dans Latin lookup 10" four.numr
Substitution2: "sous-table 'dnom' D+AOkA-nominateurs dans Latin lookup 8" four.dnom
Substitution2: "sous-table 'numr' Num+AOkA-rateurs dans Latin lookup 7" four.numr
Substitution2: "sous-table 'sups' Exposant dans Latin lookup 6" four.sups
Substitution2: "sous-table 'sinf' Indices scientifiques dans Latin lookup 5" four.subs
Substitution2: "sous-table 'subs' Indice dans Latin lookup 4" four.subs
AlternateSubs2: "sous-table 'aalt' Activer toutes les variantes dans Latin lookup 1" four.subs four.sups four.numr four.dnom four.alt
EndChar

StartChar: five
Encoding: 53 53 271
Width: 600
Flags: HMW
HStem: -12 119<249 319 249 353.5> 319 104<299 433.5> 536 124<326 588 326 326>
VStem: 421 149<190.5 258.5>
LayerCount: 2
Fore
SplineSet
281 -12 m 0
 171 -12 102 28 59 80 c 1
 139 173 l 1
 176 136 219 107 279 107 c 0
 359 107 421 151 421 230 c 0
 421 287 380 319 320 319 c 0
 278 319 254 311 207 286 c 1
 149 328 l 1
 219 660 l 1
 608 660 l 1
 588 536 l 1
 326 536 l 1
 294 406 l 1
 325 418 349 423 381 423 c 0
 486 423 570 368 570 251 c 0
 570 85 426 -12 281 -12 c 0
EndSplineSet
Validated: 1
Substitution2: "sous-table 'frac' Fractions dans Latin lookup 10" five.numr
Substitution2: "sous-table 'dnom' D+AOkA-nominateurs dans Latin lookup 8" five.dnom
Substitution2: "sous-table 'numr' Num+AOkA-rateurs dans Latin lookup 7" five.numr
Substitution2: "sous-table 'sups' Exposant dans Latin lookup 6" five.sups
Substitution2: "sous-table 'sinf' Indices scientifiques dans Latin lookup 5" five.subs
Substitution2: "sous-table 'subs' Indice dans Latin lookup 4" five.subs
AlternateSubs2: "sous-table 'aalt' Activer toutes les variantes dans Latin lookup 1" five.subs five.sups five.numr five.dnom
EndChar

StartChar: six
Encoding: 54 54 272
Width: 600
Flags: HMW
HStem: -12 110<305 359 305 382.5> 307 105<347.5 463> 553 119<396 456>
VStem: 103 135 446 136<184 255>
LayerCount: 2
Fore
SplineSet
315 -12 m 0
 202 -12 103 66 103 246 c 0
 103 533 278 672 440 672 c 0
 530 672 594 636 630 594 c 1
 539 506 l 1
 516 531 477 553 435 553 c 0
 357 553 281 498 250 339 c 1
 302 385 366 412 414 412 c 0
 512 412 582 358 582 246 c 0
 582 86 450 -12 315 -12 c 0
330 98 m 0
 388 98 446 140 446 228 c 0
 446 282 414 307 366 307 c 0
 329 307 285 289 238 241 c 1
 238 239 238 236 238 234 c 0
 238 132 281 98 330 98 c 0
EndSplineSet
Validated: 1
Substitution2: "sous-table 'frac' Fractions dans Latin lookup 10" six.numr
Substitution2: "sous-table 'dnom' D+AOkA-nominateurs dans Latin lookup 8" six.dnom
Substitution2: "sous-table 'numr' Num+AOkA-rateurs dans Latin lookup 7" six.numr
Substitution2: "sous-table 'sups' Exposant dans Latin lookup 6" six.sups
Substitution2: "sous-table 'sinf' Indices scientifiques dans Latin lookup 5" six.subs
Substitution2: "sous-table 'subs' Indice dans Latin lookup 4" six.subs
AlternateSubs2: "sous-table 'aalt' Activer toutes les variantes dans Latin lookup 1" six.subs six.sups six.numr six.dnom
EndChar

StartChar: seven
Encoding: 55 55 273
Width: 600
Flags: HMW
HStem: 0 21G<193 193 193 341> 536 124<167 466 147 644>
VStem: 147 497<536 660>
LayerCount: 2
Fore
SplineSet
193 0 m 1
 240 223 305 361 466 536 c 1
 147 536 l 1
 167 660 l 1
 644 660 l 1
 629 570 l 1
 439 384 394 258 341 0 c 1
 193 0 l 1
EndSplineSet
Validated: 1
Substitution2: "sous-table 'frac' Fractions dans Latin lookup 10" seven.numr
Substitution2: "sous-table 'dnom' D+AOkA-nominateurs dans Latin lookup 8" seven.dnom
Substitution2: "sous-table 'numr' Num+AOkA-rateurs dans Latin lookup 7" seven.numr
Substitution2: "sous-table 'sups' Exposant dans Latin lookup 6" seven.sups
Substitution2: "sous-table 'sinf' Indices scientifiques dans Latin lookup 5" seven.subs
Substitution2: "sous-table 'subs' Indice dans Latin lookup 4" seven.subs
AlternateSubs2: "sous-table 'aalt' Activer toutes les variantes dans Latin lookup 1" seven.subs seven.sups seven.numr seven.dnom
EndChar

StartChar: eight
Encoding: 56 56 274
Width: 600
Flags: HMW
HStem: -12 102<287.5 350 287.5 382> 570 102<365 416.5>
VStem: 85 131<146.5 193.5> 164 130<456 509 456 530.5> 432 138<155 213> 469 123<478.5 518.5>
LayerCount: 2
Fore
SplineSet
297 -12 m 0xe8
 163 -12 85 52 85 146 c 0xe8
 85 241 153 294 234 332 c 1
 234 336 l 1
 193 369 164 413 164 469 c 0
 164 592 271 672 410 672 c 0
 525 672 592 610 592 518 c 0xd4
 592 439 538 384 476 346 c 1
 475 342 l 1
 529 312 570 268 570 196 c 0
 570 78 467 -12 297 -12 c 0xe8
404 382 m 1xd4
 447 419 469 455 469 497 c 0
 469 540 442 570 391 570 c 0
 339 570 294 538 294 480 c 0
 294 432 339 407 404 382 c 1xd4
317 90 m 0xe8
 383 90 432 124 432 186 c 0
 432 240 376 261 296 293 c 1
 251 262 216 222 216 172 c 0
 216 121 258 90 317 90 c 0xe8
EndSplineSet
Validated: 1
Substitution2: "sous-table 'frac' Fractions dans Latin lookup 10" eight.numr
Substitution2: "sous-table 'dnom' D+AOkA-nominateurs dans Latin lookup 8" eight.dnom
Substitution2: "sous-table 'numr' Num+AOkA-rateurs dans Latin lookup 7" eight.numr
Substitution2: "sous-table 'sups' Exposant dans Latin lookup 6" eight.sups
Substitution2: "sous-table 'sinf' Indices scientifiques dans Latin lookup 5" eight.subs
Substitution2: "sous-table 'subs' Indice dans Latin lookup 4" eight.subs
AlternateSubs2: "sous-table 'aalt' Activer toutes les variantes dans Latin lookup 1" eight.subs eight.sups eight.numr eight.dnom
EndChar

StartChar: nine
Encoding: 57 57 275
Width: 600
Flags: HMW
HStem: -12 119<248 307.5 248 344.5> 248 104<240 356.5> 562 110<344.5 398>
VStem: 121 135<404 475 404 494> 466 134<420 473>
LayerCount: 2
Fore
SplineSet
263 -12 m 0
 173 -12 110 24 72 66 c 1
 164 154 l 1
 186 128 227 107 269 107 c 0
 346 107 422 161 454 322 c 1
 401 275 336 248 289 248 c 0
 191 248 121 302 121 414 c 0
 121 574 253 672 387 672 c 0
 501 672 600 594 600 415 c 0
 600 127 426 -12 263 -12 c 0
338 352 m 0
 375 352 419 371 466 420 c 1
 466 526 423 562 373 562 c 0
 316 562 256 519 256 431 c 0
 256 377 288 352 338 352 c 0
EndSplineSet
Validated: 1
Substitution2: "sous-table 'frac' Fractions dans Latin lookup 10" nine.numr
Substitution2: "sous-table 'dnom' D+AOkA-nominateurs dans Latin lookup 8" nine.dnom
Substitution2: "sous-table 'numr' Num+AOkA-rateurs dans Latin lookup 7" nine.numr
Substitution2: "sous-table 'sups' Exposant dans Latin lookup 6" nine.sups
Substitution2: "sous-table 'sinf' Indices scientifiques dans Latin lookup 5" nine.subs
Substitution2: "sous-table 'subs' Indice dans Latin lookup 4" nine.subs
AlternateSubs2: "sous-table 'aalt' Activer toutes les variantes dans Latin lookup 1" nine.subs nine.sups nine.numr nine.dnom
EndChar

StartChar: zero.alt
Encoding: 65537 -1 276
Width: 600
Flags: HMW
HStem: -12 114<291.5 359.5 291.5 386.5> 257 156<342 364.5> 558 114<344.5 413>
VStem: 100 131<197.5 361 197.5 382.5> 277 152<320 349.5> 474 131<303.5 465>
LayerCount: 2
Fore
SplineSet
298 -12 m 0
 175 -12 100 82 100 250 c 0
 100 515 229 672 406 672 c 0
 530 672 605 582 605 414 c 0
 605 151 475 -12 298 -12 c 0
316 102 m 0
 403 102 474 197 474 410 c 0
 474 520 438 558 388 558 c 0
 301 558 231 469 231 253 c 0
 231 142 267 102 316 102 c 0
341 257 m 0
 303 257 277 282 277 323 c 0
 277 376 319 413 365 413 c 0
 403 413 429 387 429 347 c 0
 429 293 388 257 341 257 c 0
EndSplineSet
Validated: 1
EndChar

StartChar: four.alt
Encoding: 65538 -1 277
Width: 600
Flags: HMW
HStem: 0 21G<341 341 341 478> 160 112<220 366 521 583> 534 126<427 431 427 427>
VStem: 60 541<160 272>
LayerCount: 2
Fore
SplineSet
341 0 m 1
 366 160 l 1
 60 160 l 1
 76 261 l 1
 405 660 l 1
 583 660 l 1
 521 272 l 1
 601 272 l 1
 583 160 l 1
 503 160 l 1
 478 0 l 1
 341 0 l 1
220 272 m 1
 384 272 l 1
 403 392 l 2
 409 433 422 493 431 534 c 1
 427 534 l 1
 400 497 368 460 340 423 c 2
 220 272 l 1
EndSplineSet
Validated: 1
EndChar

